<svg width="100" height="100" viewBox="0 0 100 100" fill="none" xmlns="http://www.w3.org/2000/svg">
<path d="M46.9272 12.8419L56.7623 23.1186C57.0751 23.4455 57.0638 23.9641 56.7369 24.2768C56.5782 24.4288 56.3742 24.5041 56.1707 24.5041C55.9548 24.5041 55.7395 24.4195 55.5786 24.2514L47.3991 15.7045C47.44 16.1989 47.4619 16.6986 47.4619 17.2034C47.4619 18.9512 47.2108 20.6413 46.7447 22.2406L53.0019 28.8687C53.3126 29.1977 53.2977 29.7164 52.9687 30.0267C52.8104 30.1762 52.6083 30.2504 52.4065 30.2504C52.1888 30.2504 51.9717 30.1641 51.8108 29.9935L46.137 23.9835C43.4525 30.5711 36.9798 35.2265 29.4391 35.2265C27.4166 35.2265 25.4708 34.8914 23.6541 34.2742C23.2601 36.1436 22.6733 40.9537 25.4714 45.9976C27.6984 47.7995 29.5077 49.7867 30.8811 51.948C32.889 55.1078 33.9143 58.5829 33.9546 62.3335C35.1435 60.0874 36.8303 57.5013 39.2021 54.9085C42.6181 51.1743 46.8168 48.1428 51.6957 45.8762H38.4505C36.1919 45.8762 34.3544 44.0387 34.3544 41.7801C34.3544 39.5215 36.1919 37.684 38.4505 37.684H61.3887C63.6473 37.684 65.4848 39.5215 65.4848 41.7801C65.4848 41.7858 65.4842 41.7913 65.4842 41.7971C69.226 41.2042 73.2072 40.916 77.4135 40.9453C78.4314 40.9516 79.3784 41.5036 79.8847 42.3853L84.2835 49.8955C88.2014 48.5536 89.3307 45.7504 90.5216 42.7891C91.9581 39.2177 93.4419 35.5294 99.8921 35.2439V0H55.0903C56.4164 0.881277 57.2928 2.38803 57.2928 4.09611C57.2928 6.80629 55.0876 9.01143 52.3775 9.01143C49.6673 9.01143 47.4621 6.80629 47.4621 4.09611C47.4621 2.38803 48.3385 0.881277 49.6646 0H34.8162C40.7714 1.86537 45.4059 6.74424 46.9272 12.8419ZM66.304 31.1304C64.0454 31.1304 62.2079 29.2929 62.2079 27.0343C62.2079 24.7757 64.0454 22.9382 66.304 22.9382C68.5626 22.9382 70.4001 24.7757 70.4001 27.0343C70.4001 29.2929 68.5628 31.1304 66.304 31.1304ZM70.5236 13.1446L64.3621 17.0394C64.2261 17.1254 64.0747 17.1664 63.925 17.1664C63.6534 17.1664 63.3876 17.0314 63.2317 16.7848C62.9899 16.4022 63.1039 15.8962 63.4863 15.6545L69.6479 11.7595C70.0307 11.5172 70.5365 11.6317 70.7782 12.0141C71.0201 12.3969 70.906 12.9029 70.5236 13.1446ZM85.9653 5.73455C93.1929 5.73455 99.0729 11.6145 99.0729 18.8421C99.0729 26.0697 93.1929 31.9496 85.9653 31.9496C78.7377 31.9496 72.8578 26.0697 72.8578 18.8421C72.8578 11.6145 78.7377 5.73455 85.9653 5.73455ZM57.7376 10.9487L71.9521 1.8795C72.3331 1.63598 72.8402 1.74781 73.0833 2.12956C73.3266 2.51091 73.2148 3.0174 72.8332 3.2607L58.6187 12.3299C58.4823 12.4171 58.3297 12.4587 58.179 12.4587C57.9086 12.4587 57.6438 12.325 57.4876 12.0798C57.2443 11.6985 57.3563 11.192 57.7376 10.9487Z" fill="#FF9E1B"/>
<path d="M61.3888 39.3226H38.4506C37.0954 39.3226 35.9929 40.4251 35.9929 41.7803C35.9929 43.1355 37.0954 44.2379 38.4506 44.2379H55.6417C55.6602 44.2379 55.6774 44.2422 55.6954 44.2433L63.8464 41.7803C63.8464 40.4251 62.7442 39.3226 61.3888 39.3226Z" fill="#FF9E1B"/>
<path d="M76.5924 42.5837C56.8601 42.6525 46.0691 49.8617 40.4738 55.9462C35.8565 60.9675 33.9225 66.0601 33.2403 68.3105C33.1711 68.5975 33.0955 68.8858 33.0162 69.1754C33.8637 70.1851 35.1155 70.6951 36.5053 70.5868C38.471 70.4311 40.2457 69.0997 41.2525 67.0252C41.4329 66.6537 41.6645 66.3039 41.9408 65.9856C43.9307 63.6959 53.7489 53.4056 69.3063 53.4056C70.0514 53.4056 70.81 53.43 71.5809 53.4792C71.5014 51.7756 71.7181 46.6624 76.5924 42.5837Z" fill="#FF9E1B"/>
<path d="M33.5986 33.0515C29.0673 29.9986 22.7296 22.9077 20.1386 19.9087C19.6989 26.7181 26.6555 32.7836 27.4659 33.465C28.1135 33.543 28.7712 33.588 29.4392 33.588C30.876 33.588 32.2697 33.4006 33.5986 33.0515Z" fill="#FF9E1B"/>
<path d="M86.2931 24.0032C86.2931 25.0421 87.185 25.8874 88.2813 25.8874H95.0057C95.8737 24.7761 96.5417 23.5024 96.955 22.119H88.2813C87.1852 22.119 86.2931 22.9642 86.2931 24.0032Z" fill="#FF9E1B"/>
<path d="M81.6106 12.9466C81.9399 13.5927 81.935 14.3683 81.618 15.0737H84.245C84.936 15.0737 85.6059 15.3604 86.0829 15.8605C86.5667 16.3678 86.8149 17.0337 86.7817 17.7351C86.7178 19.0909 85.5824 20.153 84.1965 20.153H74.5735C75.2264 25.8618 80.0848 30.3114 85.9654 30.3114C88.8216 30.3114 91.4349 29.2595 93.4449 27.526H88.2813C86.2814 27.526 84.6546 25.9458 84.6546 24.0034C84.6546 22.061 86.2814 20.4807 88.2813 20.4807H97.3157C97.3927 19.9454 97.4347 19.3988 97.4347 18.8423C97.4347 12.5181 92.2898 7.3732 85.9656 7.3732C82.3708 7.3732 79.1587 9.03683 77.0543 11.6331H79.0843C80.6996 11.6329 81.3603 12.4559 81.6106 12.9466Z" fill="#FF9E1B"/>
<path d="M38.9646 3.88513C37.7813 5.33024 37.1898 7.75677 37.3741 10.4852C37.7026 15.353 40.3268 20.2583 44.4432 23.776C45.3285 21.7626 45.8238 19.5404 45.8238 17.2036C45.8235 11.7202 43.1132 6.86075 38.9646 3.88513Z" fill="#FF9E1B"/>
<path d="M84.1964 18.5144C84.6972 18.5144 85.1228 18.1302 85.1453 17.6577C85.157 17.4076 85.0689 17.1711 84.8973 16.9913C84.7254 16.811 84.4938 16.7119 84.245 16.7119H81.05C80.5542 16.7119 80.1063 16.4371 79.8806 15.9949C79.6567 15.5556 79.6971 15.0354 79.9858 14.6374C80.2134 14.3239 80.2797 13.9433 80.1509 13.6904C79.965 13.3257 79.4028 13.2712 79.0841 13.2712H75.945C75.0738 14.832 74.5583 16.6161 74.5046 18.5144H84.1964Z" fill="#FF9E1B"/>
<path d="M66.304 29.492C67.6613 29.492 68.7616 28.3916 68.7616 27.0343C68.7616 25.677 67.6613 24.5766 66.304 24.5766C64.9466 24.5766 63.8463 25.677 63.8463 27.0343C63.8463 28.3916 64.9466 29.492 66.304 29.492Z" fill="#FF9E1B"/>
<path d="M36.6346 72.2199C36.0581 72.2653 35.4938 72.2268 34.9531 72.1162L52.4109 98.2236C53.4991 99.7436 55.2237 100.307 57.0266 99.7309C58.6288 99.2187 59.7718 97.9391 59.8814 96.5692L42.5498 68.0787C41.2583 70.4868 39.0728 72.0269 36.6346 72.2199Z" fill="#FF9E1B"/>
<path d="M52.3772 7.37298C54.187 7.37298 55.6541 5.90587 55.6541 4.0961C55.6541 2.28632 54.187 0.819214 52.3772 0.819214C50.5675 0.819214 49.1003 2.28632 49.1003 4.0961C49.1003 5.90587 50.5675 7.37298 52.3772 7.37298Z" fill="#FF9E1B"/>
<path d="M71.2396 65.6573C70.4005 65.5703 69.5768 65.5264 68.7691 65.5264C63.9457 65.5264 59.67 67.0827 55.759 70.2496C54.2973 71.433 53.936 73.5433 54.9183 75.158C55.4762 76.0749 56.3628 76.6957 57.4147 76.9058C58.4653 77.1155 59.5199 76.8841 60.3852 76.2535C63.6868 73.8473 67.188 72.5291 71.0885 72.2242C73.2692 72.0538 74.3115 70.5128 74.3772 69.061C74.4364 67.7514 73.6494 66.0774 71.2396 65.6573Z" fill="#FF9E1B"/>
<path d="M33.6876 19.1438C33.4652 19.5829 32.9761 19.8229 32.4938 19.7246C27.4048 18.6866 23.391 15.6391 20.8512 10.87C19.5855 8.49388 18.9695 6.23631 18.6833 4.85982C15.2381 7.86574 13.0547 12.283 13.0547 17.2036C13.0547 24.4613 17.7996 30.6282 24.3491 32.7746C21.5521 29.8495 17.2378 24.1226 18.8083 17.8455C18.8613 17.6333 18.9889 17.4402 19.1757 17.3265C19.5392 17.1051 19.9843 17.1942 20.2376 17.4981C20.3396 17.6204 30.3423 29.5747 35.6253 32.3715C39.0385 30.9743 41.8769 28.4581 43.6854 25.2807C39.0629 21.4656 36.1051 16.0178 35.7389 10.5956C35.5298 7.49914 36.1989 4.78117 37.5822 2.99527C35.1816 1.61386 32.4022 0.819214 29.4391 0.819214C28.7995 0.819214 28.1695 0.85997 27.5488 0.931652C28.2138 10.6849 32.1827 16.2865 33.5557 17.9522C33.833 18.2883 33.8844 18.755 33.6876 19.1438Z" fill="#FF9E1B"/>
<path d="M99.8355 79.6906L78.4676 43.2076C78.467 43.2066 78.4664 43.2057 78.4657 43.2047C73.0267 47.1511 73.14 52.5016 73.2305 53.623C73.9199 53.6983 74.6185 53.7927 75.3275 53.9107C76.1576 54.0489 76.8824 54.5413 77.3164 55.2618L97.8903 89.4188C98.144 85.047 99.1976 82.2322 99.8787 80.8322C100.054 80.4707 100.038 80.0439 99.8355 79.6906Z" fill="#FF9E1B"/>
<path d="M75.0587 55.5268C57.8049 52.656 46.5053 63.4132 43.5764 66.6137L61.1473 95.4972C68.6456 94.9107 73.9144 95.2297 78.5735 95.512C84.7226 95.8847 90.0338 96.2067 98.9113 94.6196L75.9129 56.107C75.7265 55.7978 75.4152 55.5862 75.0587 55.5268ZM76.0141 69.1349C75.9191 71.2364 74.3773 73.6107 71.2161 73.8579C67.6269 74.1385 64.3996 75.3552 61.35 77.5776C60.4169 78.2575 59.2919 78.617 58.152 78.617C57.7987 78.617 57.4444 78.5824 57.0938 78.5123C55.6089 78.2155 54.3058 77.3033 53.5187 76.0094C52.1121 73.6969 52.6319 70.6734 54.7279 68.9762C59.5873 65.0414 65.2084 63.378 71.4373 64.0303C71.4547 64.0322 71.4719 64.0346 71.4891 64.0375C74.749 64.5915 76.1106 66.9969 76.0141 69.1349Z" fill="#FF9E1B"/>
<path d="M22.3231 10.1481C24.4011 14.023 27.4234 16.5706 31.328 17.746C29.4694 15.1044 26.529 9.67848 25.9224 1.20343C23.8158 1.66609 21.8603 2.53425 20.1414 3.72335C20.2974 4.69802 20.8309 7.36561 22.3231 10.1481Z" fill="#FF9E1B"/>
<path d="M30.1985 65.2043C30.2094 64.5579 30.0404 63.9429 29.7098 63.4259C24.0208 54.5296 11.91 47.4614 3.31433 47.4614C2.18872 47.4614 1.12496 47.5824 0.142101 47.8364C0.0626363 47.8568 0.0276146 47.9146 0.0122542 47.9595C-0.00167258 47.9998 -0.0160089 48.0795 0.043999 48.1573L30.4408 86.7541C30.9936 87.4703 31.8183 87.9288 32.7082 88.0187C35.9056 88.3407 41.2869 89.1437 45.6709 91.0916L31.4365 69.8048C30.5995 68.6069 30.168 67.0115 30.1985 65.2043Z" fill="#FF9E1B"/>
<path d="M11.6458 14.3333C12.7366 7.54707 17.6288 2.01508 24.0623 0H4.8905C5.04103 2.27989 5.97536 8.99996 11.6458 14.3333Z" fill="#FF9E1B"/>
<path d="M31.0902 62.5434C31.5946 63.3328 31.8527 64.2622 31.8365 65.2317C31.8285 65.7114 31.8623 66.1671 31.9295 66.599C32.8781 61.4895 32.0653 56.866 29.4984 52.8269C23.8274 43.9023 10.8825 39.968 5.99028 39.1209C6.46052 42.0879 5.49445 44.4907 4.70349 45.8764C8.34431 46.1445 12.4892 47.4495 16.666 49.698C22.6842 52.9379 27.9417 57.6199 31.0902 62.5434Z" fill="#FF9E1B"/>
</svg>
