<svg class="control__loc" width="24" height="24" viewBox="0 0 24 24" fill="none" xmlns="http://www.w3.org/2000/svg"><path d="M19.0063 9.49477C19.005 8.32393 18.7297 7.16965 18.2025 6.12424C17.6752 5.07884 16.9106 4.17135 15.9698 3.47434C15.029 2.77734 13.9382 2.31018 12.7846 2.11022C11.6309 1.91027 10.4465 1.98308 9.32602 2.32282C8.20556 2.66256 7.18015 3.25981 6.33182 4.06679C5.48349 4.87376 4.8358 5.86808 4.44054 6.97018C4.04528 8.07229 3.91343 9.25161 4.05553 10.4138C4.19764 11.576 4.60975 12.6888 5.25892 13.6632C5.40239 13.8804 5.55827 14.0892 5.72578 14.2884L11.5032 22L17.2723 14.2884C17.439 14.0884 17.5974 13.8799 17.7391 13.6715C18.5661 12.4356 19.0072 10.9818 19.0063 9.49477ZM11.5032 12.8295C10.8436 12.8295 10.1989 12.6339 9.65052 12.2675C9.10213 11.9011 8.6747 11.3803 8.42231 10.7709C8.16991 10.1616 8.10387 9.49108 8.23254 8.8442C8.36121 8.19733 8.67881 7.60314 9.14518 7.13677C9.61155 6.6704 10.2057 6.3528 10.8526 6.22412C11.4995 6.09545 12.17 6.16149 12.7793 6.41389C13.3887 6.66629 13.9095 7.09371 14.2759 7.6421C14.6423 8.19049 14.8379 8.83523 14.8379 9.49477C14.8379 10.3792 14.4866 11.2274 13.8612 11.8528C13.2358 12.4782 12.3876 12.8295 11.5032 12.8295Z" fill="white"></path></svg>