<svg width="253" height="64" viewBox="0 0 253 64" fill="none" xmlns="http://www.w3.org/2000/svg">
<g clip-path="url(#clip0_78_234)">
<path d="M4 3C4 4.71335 5.38844 6.10941 7.09244 6.10941H56.1928C57.8968 6.10941 59.2853 4.71335 59.2853 3H4Z" fill="white"/>
<path d="M8.60742 9.28223C8.60742 10.9956 9.99586 12.3916 11.6999 12.3916V52.2428V53.4485C11.6999 54.2735 12.331 54.9081 13.1514 54.9081H18.3265C21.419 54.9081 24.3852 55.8599 26.9096 57.5733L31.9585 61L35.9345 58.0175C38.5852 55.9868 41.8669 54.9081 45.1487 54.9081H50.1345C50.9549 54.9081 51.5861 54.2735 51.5861 53.4485V52.2428V12.3916H51.9647C53.6687 12.3916 55.0572 10.9956 55.0572 9.28223H8.60742ZM34.0412 55.5426L31.8323 57.1925L28.6136 54.9715C25.5843 52.8774 21.987 51.7986 18.2634 51.7986H14.7292V42.0262H18.2634C21.3559 42.0262 24.3221 42.9781 26.8465 44.6914L31.8954 48.1181L35.8714 45.1356C38.5221 43.105 41.8038 42.0262 45.0856 42.0262H48.4305V51.7986H45.0856C41.1727 51.7986 37.2598 53.1312 34.0412 55.5426ZM30.1283 30.0328V43.105L28.6767 42.0897C27.7932 41.4551 26.8465 40.9474 25.8367 40.5032V30.0328H30.1283ZM33.2207 30.0328H37.1967V40.7436L37.5754 40.5667C36.3132 41.1378 35.1772 41.8358 34.0412 42.6608L33.1576 43.2954V30.0328H33.2207ZM48.4936 38.9168H45.1487C43.5078 38.9168 41.867 39.1706 40.2892 39.6148V30.0962H42.8767C44.5807 30.0962 45.9692 28.7002 45.9692 26.9868H17.0643C17.0643 28.7002 18.4527 30.0962 20.1567 30.0962H22.7443V39.5514C21.2927 39.1706 19.8412 38.9803 18.3265 38.9803H14.7923V12.3916H48.4936V38.9168Z" fill="white"/>
<path d="M22.6181 22.6719H24.1958V17.9126H26.6572V22.6719H28.8661C29.8127 22.6719 30.5701 22.4181 31.0749 21.9104C31.5798 21.4028 31.8323 20.6413 31.8323 19.6894V19.3087C31.8323 18.4203 31.5798 17.6588 31.0749 17.1511C30.5701 16.6435 29.8127 16.3896 28.8661 16.3896H26.8465H26.6572H20.9141V17.9126H22.6181V22.6719ZM28.2349 17.9126H28.8029C29.3078 17.9126 29.6234 18.0395 29.8758 18.2299C30.0652 18.4203 30.1914 18.801 30.1914 19.3087V19.6894C30.1914 20.2605 30.0652 20.6413 29.8758 20.8317C29.6865 21.022 29.3078 21.1489 28.8029 21.1489H28.2349V17.9126Z" fill="white"/>
<path d="M34.4196 16.3892H32.8418V22.6714H34.4196V16.3892Z" fill="white"/>
<path d="M36.1246 22.0369C36.3771 22.2907 36.6295 22.4176 36.9451 22.5445C37.2606 22.6715 37.6393 22.7349 38.018 22.7349C38.3966 22.7349 38.7753 22.6715 39.0909 22.5445C39.4064 22.4176 39.6589 22.2273 39.9113 22.0369C40.1637 21.7831 40.29 21.5292 40.4162 21.2119C40.5424 20.8946 40.6055 20.5139 40.6055 20.1332V16.4526H39.0277V20.1332C39.0277 20.5774 38.9646 20.8946 38.7753 21.0216C38.586 21.2119 38.3966 21.2754 38.0811 21.2754C37.7655 21.2754 37.5131 21.2119 37.3869 21.0216C37.1975 20.8312 37.1344 20.5139 37.1344 20.1332V16.4526H35.5566V20.1332C35.5566 20.5139 35.6198 20.8946 35.746 21.2119C35.746 21.5292 35.8722 21.7831 36.1246 22.0369Z" fill="white"/>
</g>
<path d="M109.724 5.85647C107.62 5.85647 105.571 6.07818 103.599 6.49494C101.265 4.92332 98.422 4 95.3515 4C87.4253 4 81 10.1517 81 17.7404C81 20.1946 81.6727 22.4973 82.8496 24.4913C81.9409 27.1462 81.447 29.9822 81.447 32.9275C81.447 47.8789 94.1072 60 109.724 60C125.34 60 138 47.8789 138 32.9275C138 17.9761 125.34 5.85647 109.724 5.85647Z" fill="white"/>
<path d="M123.338 36.0764C121.655 37.6873 118.918 37.6873 117.235 36.0764C116.502 35.3748 116.089 34.4824 115.994 33.5661C115.994 33.5661 115.967 33.4117 115.976 33.1114C115.985 32.8322 115.994 32.7255 115.994 32.7255C116.095 31.784 116.526 30.9112 117.234 30.2334C118.916 28.6225 121.655 28.6225 123.338 30.2334C124.084 30.9476 125.293 30.9476 126.039 30.2334C126.785 29.5192 126.785 28.3615 126.039 27.6472C122.866 24.6107 117.706 24.6107 114.534 27.6472C114.509 27.6711 114.486 27.6964 114.462 27.7202C113.254 26.3394 111.443 25.4596 109.419 25.4596C107.596 25.4596 105.945 26.1753 104.752 27.3259C103.559 26.1753 101.909 25.4596 100.086 25.4596C98.9381 25.4596 97.8594 25.7431 96.9199 26.2398C96.552 25.8231 95.9995 25.5564 95.381 25.5564C94.2729 25.5564 93.376 26.4082 93.376 27.4592V38.671C93.376 39.722 94.2729 40.5738 95.381 40.5738C96.489 40.5738 97.386 39.722 97.386 38.671V31.4079C97.4475 29.978 98.7593 29.115 100.086 29.115C101.607 29.115 102.844 30.2993 102.844 31.7559V38.7861C102.844 39.795 103.698 40.6131 104.752 40.6131C105.806 40.6131 106.66 39.795 106.66 38.7861V31.7559C106.66 30.2993 107.897 29.115 109.419 29.115C110.94 29.115 112.177 30.2993 112.177 31.7559C112.177 31.7559 112.151 32.9543 112.151 33.1549C112.151 35.2359 112.996 37.192 114.534 38.6626C116.12 40.1809 118.202 40.94 120.285 40.94C122.369 40.94 124.452 40.1809 126.038 38.6626C126.784 37.9483 126.784 36.7907 126.038 36.0764C125.293 35.3622 124.084 35.3622 123.338 36.0764Z" fill="black"/>
<path d="M96.0412 21.8128C98.3895 21.4479 99.9842 19.3295 99.6031 17.0812C99.222 14.8329 97.0094 13.3061 94.6611 13.671C92.3128 14.0359 90.7181 16.1543 91.0992 18.4025C91.4804 20.6508 93.693 22.1776 96.0412 21.8128Z" fill="black"/>
<rect x="68" y="3" width="3" height="58" fill="white"/>
<path d="M152.955 17.6728V24.1502C152.955 25.1806 152.626 25.9964 151.967 26.5976C151.307 27.1989 150.431 27.5006 149.334 27.5006C148.225 27.5006 147.342 27.2034 146.692 26.6111C146.039 26.0187 145.713 25.1962 145.713 24.1435V17.6728H147.391V24.1569C147.391 24.8051 147.557 25.299 147.885 25.641C148.214 25.983 148.697 26.1529 149.336 26.1529C150.632 26.1529 151.281 25.4689 151.281 24.1032V17.6728H152.955Z" fill="white"/>
<path d="M156.019 20.1627L156.066 20.9941C156.598 20.3504 157.298 20.0286 158.163 20.0286C159.663 20.0286 160.427 20.8869 160.454 22.6057V27.3665H158.836V22.6995C158.836 22.2436 158.737 21.9038 158.538 21.6848C158.342 21.4658 158.018 21.3562 157.571 21.3562C156.918 21.3562 156.433 21.6513 156.113 22.2413V27.3665H154.495V20.1627H156.019Z" fill="white"/>
<path d="M161.87 18.2918C161.87 18.0437 161.948 17.8358 162.107 17.6727C162.266 17.5095 162.489 17.4268 162.782 17.4268C163.075 17.4268 163.301 17.5095 163.462 17.6727C163.62 17.8358 163.701 18.0437 163.701 18.2918C163.701 18.5354 163.62 18.7388 163.462 18.902C163.303 19.0652 163.075 19.1456 162.782 19.1456C162.489 19.1456 162.263 19.0652 162.107 18.902C161.948 18.7388 161.87 18.5354 161.87 18.2918ZM163.587 27.3664H161.968V20.1626H163.587V27.3664Z" fill="white"/>
<path d="M167.687 25.3146L169.211 20.1627H170.883L168.387 27.3665H166.981L164.464 20.1627H166.142L167.687 25.3146Z" fill="white"/>
<path d="M174.571 27.4983C173.545 27.4983 172.715 27.1765 172.078 26.5305C171.441 25.8846 171.124 25.0241 171.124 23.9512V23.7523C171.124 23.0326 171.263 22.3911 171.54 21.8256C171.817 21.2601 172.206 20.8198 172.709 20.5046C173.209 20.1895 173.77 20.033 174.387 20.033C175.369 20.033 176.126 20.3459 176.66 20.9718C177.195 21.5976 177.463 22.4827 177.463 23.6271V24.2798H172.756C172.805 24.8743 173.004 25.3459 173.352 25.6901C173.701 26.0366 174.139 26.2087 174.667 26.2087C175.409 26.2087 176.012 25.9092 176.477 25.3101L177.349 26.1416C177.061 26.573 176.676 26.906 176.193 27.143C175.711 27.3799 175.17 27.4983 174.571 27.4983ZM174.378 21.3272C173.934 21.3272 173.576 21.4836 173.303 21.7921C173.031 22.1027 172.856 22.5364 172.78 23.0907H175.862V22.97C175.827 22.4291 175.684 22.02 175.429 21.7407C175.176 21.4657 174.825 21.3272 174.378 21.3272Z" fill="white"/>
<path d="M182.376 21.6401C182.163 21.6043 181.942 21.5864 181.716 21.5864C180.974 21.5864 180.476 21.8703 180.219 22.438V27.3642H178.601V20.1604H180.145L180.185 20.9651C180.576 20.3392 181.117 20.0263 181.81 20.0263C182.04 20.0263 182.233 20.0576 182.382 20.1202L182.376 21.6401Z" fill="white"/>
<path d="M187.297 25.4085C187.297 25.1202 187.179 24.9011 186.942 24.7491C186.705 24.5994 186.309 24.4653 185.759 24.349C185.21 24.2328 184.749 24.0875 184.38 23.9087C183.573 23.5176 183.169 22.9521 183.169 22.21C183.169 21.5887 183.43 21.0701 183.953 20.6521C184.476 20.2342 185.142 20.0263 185.952 20.0263C186.812 20.0263 187.507 20.2386 188.039 20.6656C188.571 21.0925 188.835 21.6445 188.835 22.324H187.217C187.217 22.0133 187.1 21.7541 186.87 21.5484C186.64 21.3428 186.334 21.24 185.952 21.24C185.596 21.24 185.308 21.3227 185.082 21.4858C184.859 21.649 184.747 21.8703 184.747 22.1452C184.747 22.3933 184.852 22.5878 185.06 22.7241C185.268 22.8627 185.69 23.0013 186.325 23.1398C186.96 23.2784 187.458 23.446 187.82 23.6383C188.182 23.8305 188.45 24.0629 188.625 24.3334C188.799 24.6038 188.889 24.9324 188.889 25.3191C188.889 25.9673 188.62 26.4925 188.084 26.8926C187.547 27.2949 186.843 27.4961 185.974 27.4961C185.384 27.4961 184.859 27.3888 184.396 27.1765C183.933 26.9641 183.576 26.6713 183.316 26.2981C183.059 25.9248 182.93 25.5247 182.93 25.0933H184.501C184.523 25.4755 184.666 25.7683 184.935 25.9762C185.201 26.1818 185.554 26.2847 185.994 26.2847C186.421 26.2847 186.745 26.2042 186.966 26.041C187.188 25.8823 187.297 25.67 187.297 25.4085Z" fill="white"/>
<path d="M190.051 18.2918C190.051 18.0437 190.129 17.8358 190.288 17.6727C190.446 17.5095 190.67 17.4268 190.963 17.4268C191.256 17.4268 191.481 17.5095 191.642 17.6727C191.801 17.8358 191.881 18.0437 191.881 18.2918C191.881 18.5354 191.801 18.7388 191.642 18.902C191.483 19.0652 191.256 19.1456 190.963 19.1456C190.67 19.1456 190.444 19.0652 190.288 18.902C190.129 18.7388 190.051 18.5354 190.051 18.2918ZM191.767 27.3664H190.149V20.1626H191.767V27.3664Z" fill="white"/>
<path d="M195.404 18.4126V20.1627H196.676V21.3607H195.404V25.3817C195.404 25.6566 195.458 25.8556 195.568 25.9785C195.677 26.1014 195.872 26.1618 196.151 26.1618C196.336 26.1618 196.526 26.1394 196.716 26.0947V27.3464C196.348 27.4492 195.992 27.5006 195.65 27.5006C194.408 27.5006 193.786 26.8144 193.786 25.4443V21.363H192.602V20.1649H193.786V18.4148H195.404V18.4126Z" fill="white"/>
<path d="M200.544 25.0486L202.008 20.1626H203.732L200.868 28.4572C200.428 29.6686 199.684 30.2743 198.631 30.2743C198.396 30.2743 198.137 30.2341 197.853 30.1536V28.8953L198.16 28.9154C198.569 28.9154 198.875 28.8416 199.083 28.6919C199.288 28.5444 199.451 28.294 199.572 27.9431L199.805 27.324L197.274 20.1604H199.018L200.544 25.0486Z" fill="white"/>
<path d="M207.753 23.6986C207.753 22.9923 207.892 22.3575 208.173 21.792C208.453 21.2266 208.846 20.7907 209.351 20.4867C209.856 20.1827 210.437 20.0308 211.094 20.0308C212.067 20.0308 212.856 20.3437 213.461 20.9695C214.067 21.5953 214.393 22.4246 214.443 23.4594L214.449 23.8394C214.449 24.5502 214.313 25.185 214.04 25.7437C213.768 26.3025 213.377 26.7361 212.869 27.0423C212.362 27.3486 211.774 27.5028 211.108 27.5028C210.091 27.5028 209.277 27.1653 208.667 26.488C208.057 25.8108 207.753 24.91 207.753 23.7813V23.6986ZM209.371 23.8372C209.371 24.5792 209.523 25.1581 209.832 25.5783C210.138 25.9985 210.565 26.2064 211.11 26.2064C211.655 26.2064 212.08 25.9941 212.384 25.5672C212.688 25.1403 212.84 24.5167 212.84 23.6964C212.84 22.9677 212.684 22.3911 212.371 21.9664C212.058 21.5395 211.633 21.3271 211.097 21.3271C210.569 21.3271 210.149 21.5372 209.838 21.9552C209.528 22.3754 209.371 23.0035 209.371 23.8372Z" fill="white"/>
<path d="M216.007 27.3664V21.3607H214.907V20.1626H216.007V19.5033C216.007 18.7053 216.228 18.0884 216.673 17.6526C217.118 17.2167 217.739 16.9999 218.537 16.9999C218.821 16.9999 219.123 17.0402 219.442 17.1206L219.402 18.3857C219.225 18.35 219.018 18.3321 218.783 18.3321C218.01 18.3321 217.625 18.7299 217.625 19.5234V20.1626H219.089V21.3607H217.625V27.3664H216.007Z" fill="white"/>
<path d="M151.292 41.4701H147.537L146.75 43.7275H145L148.661 34.0338H150.172L153.84 43.7275H152.083L151.292 41.4701ZM148.008 40.1111H150.818L149.412 36.0901L148.008 40.1111Z" fill="white"/>
<path d="M161.031 40.1983C161.031 41.3114 160.778 42.2009 160.271 42.8648C159.766 43.5286 159.086 43.8594 158.235 43.8594C157.446 43.8594 156.813 43.6001 156.337 43.0816V46.4968H154.719V36.5237H156.21L156.277 37.2568C156.75 36.6802 157.396 36.3918 158.214 36.3918C159.093 36.3918 159.781 36.7182 160.282 37.3731C160.78 38.028 161.031 38.9354 161.031 40.0999V40.1983ZM159.419 40.0597C159.419 39.34 159.276 38.77 158.99 38.3498C158.704 37.9274 158.295 37.7173 157.761 37.7173C157.099 37.7173 156.625 37.99 156.337 38.5353V41.7316C156.63 42.2903 157.11 42.5697 157.774 42.5697C158.288 42.5697 158.691 42.3619 158.983 41.9461C159.274 41.5304 159.419 40.9023 159.419 40.0597Z" fill="white"/>
<path d="M168.556 40.1983C168.556 41.3114 168.304 42.2009 167.796 42.8648C167.291 43.5286 166.612 43.8594 165.76 43.8594C164.971 43.8594 164.338 43.6001 163.862 43.0816V46.4968H162.244V36.5237H163.735L163.802 37.2568C164.276 36.6802 164.922 36.3918 165.74 36.3918C166.618 36.3918 167.307 36.7182 167.807 37.3731C168.306 38.028 168.556 38.9354 168.556 40.0999V40.1983ZM166.945 40.0597C166.945 39.34 166.802 38.77 166.515 38.3498C166.229 37.9274 165.82 37.7173 165.286 37.7173C164.625 37.7173 164.151 37.99 163.862 38.5353V41.7316C164.155 42.2903 164.636 42.5697 165.3 42.5697C165.814 42.5697 166.216 42.3619 166.509 41.9461C166.799 41.5304 166.945 40.9023 166.945 40.0597Z" fill="white"/>
<path d="M171.448 43.7276H169.83V33.5019H171.448V43.7276Z" fill="white"/>
<path d="M172.947 34.653C172.947 34.4049 173.025 34.1971 173.184 34.0339C173.343 33.8707 173.566 33.788 173.859 33.788C174.152 33.788 174.378 33.8707 174.539 34.0339C174.7 34.1971 174.778 34.4049 174.778 34.653C174.778 34.8966 174.697 35.1 174.539 35.2632C174.38 35.4264 174.152 35.5068 173.859 35.5068C173.566 35.5068 173.341 35.4264 173.184 35.2632C173.025 35.1 172.947 34.8966 172.947 34.653ZM174.664 43.7276H173.046V36.5238H174.664V43.7276Z" fill="white"/>
<path d="M179.325 43.8595C178.3 43.8595 177.47 43.5376 176.833 42.8917C176.196 42.2457 175.879 41.3852 175.879 40.3123V40.1134C175.879 39.3937 176.017 38.7522 176.295 38.1867C176.572 37.6213 176.961 37.1809 177.464 36.8658C177.964 36.5506 178.525 36.3942 179.142 36.3942C180.123 36.3942 180.881 36.7071 181.415 37.3329C181.95 37.9588 182.218 38.8439 182.218 39.9882V40.6409H177.511C177.56 41.2354 177.759 41.7071 178.107 42.0513C178.456 42.3977 178.894 42.5698 179.422 42.5698C180.164 42.5698 180.767 42.2703 181.232 41.6713L182.104 42.5028C181.815 42.9341 181.431 43.2672 180.948 43.5041C180.465 43.741 179.924 43.8595 179.325 43.8595ZM179.131 37.6883C178.686 37.6883 178.329 37.8448 178.056 38.1554C177.783 38.4661 177.609 38.8997 177.533 39.4541H180.615V39.3334C180.579 38.7925 180.436 38.3834 180.182 38.104C179.927 37.8246 179.58 37.6883 179.131 37.6883Z" fill="white"/>
<path d="M183.058 40.0732C183.058 38.9645 183.315 38.0727 183.831 37.3999C184.345 36.7272 185.036 36.3919 185.901 36.3919C186.665 36.3919 187.282 36.6579 187.751 37.1898V33.5019H189.37V43.7276H187.906L187.825 42.9811C187.34 43.5667 186.696 43.8595 185.887 43.8595C185.045 43.8595 184.361 43.5197 183.84 42.8402C183.319 42.163 183.058 41.2399 183.058 40.0732ZM184.676 40.2117C184.676 40.9449 184.817 41.5148 185.098 41.9261C185.38 42.3373 185.78 42.5407 186.301 42.5407C186.962 42.5407 187.445 42.2457 187.751 41.6556V38.5801C187.454 38.0034 186.976 37.7151 186.314 37.7151C185.791 37.7151 185.387 37.923 185.103 38.3387C184.819 38.7522 184.676 39.378 184.676 40.2117Z" fill="white"/>
<path d="M199.676 41.2309C199.676 40.804 199.526 40.4755 199.227 40.2452C198.927 40.015 198.386 39.7826 197.606 39.5456C196.826 39.3087 196.205 39.0494 195.742 38.7611C194.859 38.2068 194.417 37.4826 194.417 36.5908C194.417 35.8085 194.734 35.167 195.371 34.6597C196.008 34.1523 196.835 33.8997 197.852 33.8997C198.527 33.8997 199.128 34.0249 199.656 34.273C200.183 34.5211 200.599 34.8765 200.901 35.3347C201.203 35.7929 201.355 36.3025 201.355 36.8613H199.676C199.676 36.3561 199.517 35.9583 199.2 35.6722C198.882 35.3861 198.429 35.243 197.839 35.243C197.289 35.243 196.862 35.3615 196.558 35.5962C196.254 35.8309 196.102 36.1594 196.102 36.5819C196.102 36.9373 196.265 37.2323 196.594 37.4715C196.922 37.7084 197.463 37.9408 198.219 38.1643C198.974 38.3879 199.58 38.6427 200.036 38.931C200.492 39.2171 200.827 39.5456 201.042 39.9167C201.256 40.2877 201.361 40.7213 201.361 41.2175C201.361 42.0244 201.053 42.6681 200.431 43.1442C199.812 43.6203 198.972 43.8594 197.912 43.8594C197.211 43.8594 196.567 43.7298 195.979 43.4705C195.391 43.2113 194.933 42.8514 194.607 42.3954C194.28 41.9395 194.117 41.4053 194.117 40.7973H195.802C195.802 41.3472 195.984 41.7741 196.348 42.0758C196.712 42.3776 197.233 42.5295 197.912 42.5295C198.498 42.5295 198.938 42.4111 199.233 42.1742C199.528 41.935 199.676 41.6221 199.676 41.2309Z" fill="white"/>
<path d="M205.514 42.5698C205.919 42.5698 206.254 42.4513 206.52 42.2166C206.786 41.9819 206.929 41.6914 206.947 41.3449H208.471C208.453 41.7942 208.315 42.2121 208.051 42.5988C207.789 42.9877 207.434 43.2939 206.985 43.5197C206.535 43.7454 206.053 43.8594 205.534 43.8594C204.526 43.8594 203.728 43.5331 203.138 42.8805C202.548 42.2278 202.253 41.327 202.253 40.1782V40.0105C202.253 38.9153 202.546 38.0369 203.131 37.3776C203.717 36.7182 204.517 36.3896 205.527 36.3896C206.383 36.3896 207.081 36.64 207.622 37.1384C208.16 37.6368 208.444 38.294 208.471 39.1053H206.947C206.929 38.6918 206.788 38.3521 206.524 38.0861C206.261 37.8201 205.923 37.686 205.516 37.686C204.993 37.686 204.589 37.876 204.305 38.256C204.021 38.636 203.876 39.2104 203.871 39.9837V40.243C203.871 41.0253 204.012 41.6064 204.294 41.9909C204.573 42.3775 204.98 42.5698 205.514 42.5698Z" fill="white"/>
<path d="M209.492 34.653C209.492 34.4049 209.57 34.1971 209.729 34.0339C209.888 33.8707 210.111 33.788 210.404 33.788C210.697 33.788 210.923 33.8707 211.084 34.0339C211.245 34.1971 211.323 34.4049 211.323 34.653C211.323 34.8966 211.242 35.1 211.084 35.2632C210.925 35.4264 210.697 35.5068 210.404 35.5068C210.111 35.5068 209.886 35.4264 209.729 35.2632C209.573 35.1 209.492 34.8966 209.492 34.653ZM211.211 43.7276H209.593V36.5238H211.211V43.7276Z" fill="white"/>
<path d="M215.869 43.8595C214.843 43.8595 214.014 43.5376 213.377 42.8917C212.74 42.2457 212.423 41.3852 212.423 40.3123V40.1134C212.423 39.3937 212.561 38.7522 212.839 38.1867C213.116 37.6213 213.505 37.1809 214.008 36.8658C214.508 36.5506 215.069 36.3942 215.686 36.3942C216.667 36.3942 217.425 36.7071 217.959 37.3329C218.493 37.9588 218.762 38.8439 218.762 39.9882V40.6409H214.054C214.104 41.2354 214.303 41.7071 214.651 42.0513C215 42.3977 215.438 42.5698 215.966 42.5698C216.708 42.5698 217.311 42.2703 217.776 41.6713L218.648 42.5028C218.359 42.9341 217.975 43.2672 217.492 43.5041C217.009 43.741 216.468 43.8595 215.869 43.8595ZM215.677 37.6883C215.232 37.6883 214.875 37.8448 214.602 38.1554C214.329 38.4661 214.155 38.8997 214.079 39.4541H217.161V39.3334C217.126 38.7925 216.983 38.3834 216.728 38.104C216.473 37.8246 216.126 37.6883 215.677 37.6883Z" fill="white"/>
<path d="M221.413 36.5238L221.46 37.3552C221.992 36.7115 222.692 36.3896 223.557 36.3896C225.056 36.3896 225.821 37.2479 225.848 38.9667V43.7276H224.229V39.0606C224.229 38.6024 224.131 38.2649 223.932 38.0459C223.735 37.8268 223.411 37.7173 222.964 37.7173C222.312 37.7173 221.827 38.0123 221.507 38.6024V43.7276H219.889V36.5238H221.413Z" fill="white"/>
<path d="M230.272 42.5698C230.676 42.5698 231.012 42.4513 231.278 42.2166C231.544 41.9819 231.687 41.6914 231.705 41.3449H233.229C233.211 41.7942 233.072 42.2121 232.809 42.5988C232.547 42.9877 232.192 43.2939 231.742 43.5197C231.293 43.7454 230.81 43.8594 230.292 43.8594C229.284 43.8594 228.486 43.5331 227.896 42.8805C227.306 42.2278 227.011 41.327 227.011 40.1782V40.0105C227.011 38.9153 227.304 38.0369 227.889 37.3776C228.475 36.7182 229.275 36.3896 230.285 36.3896C231.141 36.3896 231.839 36.64 232.38 37.1384C232.918 37.6368 233.202 38.294 233.229 39.1053H231.705C231.687 38.6918 231.546 38.3521 231.282 38.0861C231.018 37.8201 230.681 37.686 230.274 37.686C229.751 37.686 229.346 37.876 229.063 38.256C228.779 38.636 228.633 39.2104 228.629 39.9837V40.243C228.629 41.0253 228.77 41.6064 229.051 41.9909C229.333 42.3775 229.74 42.5698 230.272 42.5698Z" fill="white"/>
<path d="M237.453 43.8595C236.427 43.8595 235.598 43.5376 234.961 42.8917C234.324 42.2457 234.007 41.3852 234.007 40.3123V40.1134C234.007 39.3937 234.145 38.7522 234.423 38.1867C234.7 37.6213 235.089 37.1809 235.592 36.8658C236.092 36.5506 236.653 36.3942 237.27 36.3942C238.251 36.3942 239.009 36.7071 239.543 37.3329C240.077 37.9588 240.346 38.8439 240.346 39.9882V40.6409H235.638C235.688 41.2354 235.887 41.7071 236.235 42.0513C236.584 42.3977 237.022 42.5698 237.55 42.5698C238.292 42.5698 238.895 42.2703 239.36 41.6713L240.232 42.5028C239.943 42.9341 239.559 43.2672 239.076 43.5041C238.593 43.741 238.052 43.8595 237.453 43.8595ZM237.261 37.6883C236.816 37.6883 236.459 37.8448 236.186 38.1554C235.913 38.4661 235.739 38.8997 235.663 39.4541H238.745V39.3334C238.71 38.7925 238.566 38.3834 238.312 38.104C238.057 37.8246 237.71 37.6883 237.261 37.6883Z" fill="white"/>
<path d="M245.408 41.7696C245.408 41.4813 245.29 41.2622 245.053 41.1102C244.816 40.9582 244.421 40.8264 243.871 40.7101C243.321 40.5939 242.86 40.4486 242.492 40.2698C241.685 39.8787 241.28 39.3132 241.28 38.5734C241.28 37.952 241.542 37.4334 242.065 37.0155C242.588 36.5975 243.254 36.3896 244.063 36.3896C244.923 36.3896 245.619 36.602 246.151 37.0289C246.682 37.4558 246.946 38.0079 246.946 38.6874H245.328C245.328 38.3767 245.212 38.1174 244.982 37.9118C244.751 37.7061 244.445 37.6033 244.063 37.6033C243.708 37.6033 243.419 37.686 243.193 37.8492C242.97 38.0146 242.858 38.2336 242.858 38.5085C242.858 38.7566 242.963 38.9511 243.171 39.0874C243.379 39.226 243.801 39.3646 244.436 39.5032C245.071 39.6418 245.569 39.8094 245.931 40.0016C246.294 40.1938 246.562 40.4263 246.736 40.6967C246.91 40.9672 247 41.2957 247 41.6824C247 42.3306 246.732 42.8559 246.195 43.256C245.659 43.6583 244.955 43.8594 244.085 43.8594C243.495 43.8594 242.97 43.7521 242.507 43.5398C242.045 43.3275 241.687 43.0347 241.428 42.6614C241.171 42.2881 241.041 41.8881 241.041 41.4567H242.612C242.635 41.8389 242.778 42.1317 243.046 42.3395C243.312 42.5452 243.665 42.648 244.105 42.648C244.532 42.648 244.856 42.5675 245.078 42.4044C245.297 42.2434 245.408 42.0311 245.408 41.7696Z" fill="white"/>
<defs>
<clipPath id="clip0_78_234">
<rect width="56" height="58" fill="white" transform="translate(4 3)"/>
</clipPath>
</defs>
</svg>
