<svg width="257" height="66" viewBox="0 0 257 66" fill="none" xmlns="http://www.w3.org/2000/svg">
<mask id="mask0_67_309" style="mask-type:luminance" maskUnits="userSpaceOnUse" x="199" y="1" width="54" height="64">
<path d="M253 1H199V65H253V1Z" fill="white"/>
</mask>
<g mask="url(#mask0_67_309)">
<path d="M245.009 12.8008H207.527V14.8734H245.009V12.8008Z" fill="#2679D9"/>
<path d="M210.839 16.9873H210.588V19.0599H210.839H212.684V45.6301V47.4126H217.212C219.308 47.4126 221.321 48.0342 223.04 49.1949L226.478 51.4748L229.161 49.4851C230.964 48.1586 233.186 47.4126 235.408 47.4126H239.768V45.6301V19.0599H241.865H242.116V16.9873H241.865H210.839ZM227.903 47.7855L226.436 48.9047L224.256 47.4539C222.159 46.0447 219.77 45.3399 217.254 45.3399H214.864V38.8321H217.212C219.308 38.8321 221.321 39.4539 223.04 40.6146L226.478 42.8943L229.161 40.9046C230.964 39.5782 233.186 38.8321 235.408 38.8321H237.672V45.3399H235.408C232.725 45.2985 230.041 46.2104 227.903 47.7855ZM225.22 30.7906V39.4954L224.214 38.8321C223.627 38.4176 222.956 38.086 222.327 37.7958V30.7906H225.22ZM227.316 30.7906H230.041V37.7958H230.293C229.454 38.169 228.658 38.6249 227.903 39.1637L227.316 39.5782V30.7906ZM237.672 36.7181H235.408C234.276 36.7181 233.186 36.8839 232.138 37.174V30.8321H235.995V28.7595H216.374V30.8321H220.231V37.0912C219.267 36.8424 218.26 36.7181 217.212 36.7181H214.822V19.0185H237.672V36.7181Z" fill="#2679D9"/>
<path d="M222.789 21.7954L222.705 22.5414H221.699V25.8161H220.735V22.5414H219.729V21.7954H222.789ZM225.263 21.8368C225.472 21.9196 225.682 22.0441 225.892 22.2098L225.43 22.7073C225.137 22.5 224.844 22.3757 224.55 22.3757C224.382 22.3757 224.257 22.4172 224.173 22.4585C224.089 22.5414 224.047 22.6244 224.047 22.7487C224.047 22.8316 224.089 22.9145 224.131 22.956C224.173 22.9975 224.257 23.0803 224.34 23.1218C224.466 23.1632 224.592 23.2462 224.844 23.2875C225.263 23.4119 225.556 23.5777 225.766 23.785C225.975 23.9923 226.059 24.241 226.059 24.6141C226.059 24.8628 225.975 25.07 225.85 25.2772C225.724 25.4845 225.556 25.6089 225.305 25.7331C225.053 25.8576 224.76 25.899 224.466 25.899C224.131 25.899 223.837 25.8576 223.586 25.7331C223.334 25.6089 223.125 25.4845 222.915 25.3187L223.418 24.7798C223.586 24.9041 223.753 25.0285 223.879 25.07C224.047 25.1529 224.215 25.1529 224.424 25.1529C224.634 25.1529 224.76 25.1115 224.885 25.0285C225.011 24.9456 225.053 24.8213 225.053 24.6554C225.053 24.5726 225.011 24.4897 224.969 24.4067C224.927 24.3239 224.844 24.2824 224.76 24.241C224.634 24.1995 224.508 24.1166 224.298 24.0752C223.837 23.9508 223.544 23.785 223.334 23.5777C223.166 23.3705 223.041 23.1218 223.041 22.8316C223.041 22.5829 223.083 22.4172 223.208 22.2098C223.334 22.0441 223.502 21.9196 223.712 21.7954C223.921 21.7124 224.173 21.6709 224.466 21.6709C224.802 21.7124 225.053 21.7539 225.263 21.8368ZM229.707 24.4897C229.707 24.7798 229.665 24.9871 229.539 25.2358C229.413 25.4431 229.246 25.6089 228.994 25.7331C228.743 25.8576 228.449 25.899 228.114 25.899C227.611 25.899 227.191 25.7746 226.94 25.5259C226.688 25.2772 226.521 24.9041 226.521 24.4897V21.8368H227.485V24.4482C227.485 24.6969 227.527 24.9041 227.653 25.0285C227.736 25.1529 227.904 25.2358 228.114 25.2358C228.323 25.2358 228.491 25.1529 228.575 25.0285C228.659 24.9041 228.743 24.6969 228.743 24.4482V21.8368H229.707V24.4897ZM233.019 21.7954L232.935 22.4585H231.51V23.4119H232.768V24.0752H231.51V25.1115H233.019V25.7746H230.545V21.7954H233.019Z" fill="#144276"/>
<path d="M226.018 64.9876C221.029 64.9876 215.998 63.6197 211.596 60.8424C203.713 55.9097 199.102 47.1635 199.102 37.9614V1.11133H252.976V38.376C252.976 47.661 247.987 56.3658 239.979 61.1741C235.661 63.7026 230.839 64.9876 226.018 64.9876ZM201.198 3.18389V38.376C201.198 46.9148 205.81 54.9979 213.189 59.3917C221.113 64.1171 230.965 64.1171 238.889 59.3917C246.31 54.9564 250.88 46.9148 250.88 38.376V3.18389H201.198Z" fill="#2679D9"/>
<path d="M205.556 14.1271L204.844 14.0443V13.2981H202.328V12.3447H204.844V11.5571H205.556V14.1271Z" fill="#144276"/>
<path d="M202.328 16.324L202.957 16.1998V15.4537L202.328 15.3293V14.3345L205.556 15.2878V16.407L202.328 17.3604V16.324ZM203.628 15.578V16.0753L204.886 15.8267L203.628 15.578Z" fill="#144276"/>
<path d="M205.181 20.3864L204.678 19.9719C204.846 19.7646 204.929 19.5159 204.929 19.2672C204.929 19.1428 204.929 19.06 204.887 19.0186C204.846 18.9771 204.804 18.9356 204.72 18.9356C204.678 18.9356 204.636 18.9356 204.594 18.9771C204.552 19.0186 204.51 19.06 204.51 19.1428C204.468 19.2258 204.426 19.3502 204.384 19.5159C204.259 19.8476 204.133 20.0963 203.965 20.262C203.797 20.4279 203.588 20.4694 203.294 20.4694C203.085 20.4694 202.917 20.4279 202.749 20.3035C202.582 20.1792 202.456 20.0548 202.372 19.8476C202.288 19.6404 202.246 19.3917 202.246 19.1428C202.246 18.8528 202.288 18.604 202.372 18.3968C202.456 18.1895 202.582 17.9823 202.707 17.8579L203.21 18.3138C203.001 18.5626 202.917 18.8113 202.917 19.1015C202.917 19.2258 202.959 19.3502 203.001 19.3917C203.043 19.4745 203.127 19.4745 203.21 19.4745C203.294 19.4745 203.336 19.4745 203.378 19.433C203.42 19.3917 203.462 19.3502 203.504 19.2672C203.546 19.1843 203.588 19.1015 203.63 18.9356C203.755 18.5626 203.881 18.3139 204.049 18.1481C204.217 17.9823 204.426 17.9408 204.678 17.9408C204.887 17.9408 205.055 17.9823 205.181 18.1066C205.349 18.231 205.432 18.3553 205.516 18.5626C205.6 18.7699 205.642 18.9771 205.642 19.1843C205.642 19.6817 205.474 20.0548 205.181 20.3864Z" fill="#144276"/>
<path d="M202.328 22.9974H203.628V22.2513H202.328V21.2979H205.556V22.2513H204.382V22.9974H205.556V23.9507H202.328V22.9974Z" fill="#144276"/>
<path d="M205.556 25.8577H202.328V24.9043H205.556V25.8577ZM205.556 27.7644L204.131 26.8524L202.328 27.8474V26.7696L204.047 25.8991L205.556 26.8111V27.7644Z" fill="#144276"/>
<path d="M205.557 30.6659L204.887 30.583V29.5052H204.3V30.4586H203.671V29.5052H203.042V30.6244H202.371V28.5518H205.599V30.6659H205.557Z" fill="#144276"/>
<path d="M202.328 34.148V32.946L204.676 32.2412H204.592C204.382 32.2827 204.173 32.2827 203.963 32.3242C203.796 32.3242 203.586 32.3657 203.334 32.3657H202.328V31.5366H205.556V32.6973L203.209 33.4434H203.292C203.502 33.4019 203.712 33.3604 203.879 33.3604C204.047 33.3604 204.257 33.319 204.508 33.319H205.556V34.148H202.328Z" fill="#144276"/>
<path d="M205.556 37.5052L204.844 37.4222V36.6761H202.328V35.7227H204.844V34.9351H205.556V37.5052Z" fill="#144276"/>
<path d="M206.06 44.6766L205.473 44.3864C205.598 44.1377 205.598 43.889 205.556 43.6403C205.515 43.516 205.473 43.4331 205.431 43.3916C205.389 43.3502 205.305 43.3087 205.263 43.3501C205.221 43.3501 205.179 43.3916 205.137 43.4331C205.095 43.4746 205.095 43.516 205.095 43.5988C205.095 43.6818 205.053 43.8062 205.053 43.972C205.011 44.3451 204.97 44.5938 204.844 44.7595C204.718 44.9254 204.508 45.0497 204.257 45.1326C204.047 45.1741 203.879 45.1741 203.67 45.0911C203.502 45.0082 203.334 44.8839 203.209 44.718C203.083 44.5523 202.957 44.3036 202.915 44.0549C202.831 43.7647 202.831 43.516 202.873 43.3087C202.915 43.06 202.999 42.8942 203.083 42.687L203.712 43.0186C203.586 43.3087 203.544 43.5988 203.586 43.8475C203.628 43.972 203.67 44.0549 203.754 44.1377C203.838 44.2206 203.879 44.2206 203.963 44.1792C204.005 44.1792 204.089 44.1377 204.089 44.0964C204.089 44.0549 204.131 44.0134 204.173 43.9305C204.173 43.8477 204.215 43.7233 204.215 43.5988C204.257 43.2259 204.299 42.9357 204.424 42.7285C204.55 42.5211 204.718 42.4383 204.97 42.3554C205.179 42.3139 205.347 42.3139 205.515 42.3968C205.682 42.4798 205.85 42.6041 205.934 42.7698C206.06 42.9357 206.143 43.1429 206.185 43.3501C206.311 43.889 206.269 44.3036 206.06 44.6766Z" fill="#144276"/>
<path d="M207.403 47.205L206.69 47.3709L206.438 46.7076L204.132 47.6196L203.797 46.7491L206.103 45.8371L205.809 45.091L206.48 44.8423L207.403 47.205Z" fill="#144276"/>
<path d="M205.474 50.3138L205.977 49.8992L205.6 49.2361L205.013 49.4433L204.51 48.5728L207.78 47.8682L208.325 48.863L205.977 51.2257L205.474 50.3138ZM206.229 49.0289L206.48 49.4433L207.445 48.6143L206.229 49.0289Z" fill="#144276"/>
<path d="M210.253 51.5574L209.624 51.8891L209.205 51.3087L207.192 52.7596L206.605 52.0135L208.618 50.5626L208.157 49.9408L208.744 49.5264L210.253 51.5574Z" fill="#144276"/>
<path d="M211.973 53.3396L211.428 53.7126L210.673 52.9665L210.254 53.3809L210.924 54.0442L210.463 54.5001L209.792 53.837L209.331 54.2929L210.128 55.1219L209.667 55.5778L208.199 54.0857L210.505 51.8887L211.973 53.3396Z" fill="#144276"/>
<path d="M217.13 59.0601C217.046 59.2673 216.878 59.4332 216.711 59.516C216.543 59.599 216.333 59.6819 216.124 59.6819C215.914 59.6819 215.662 59.6404 215.369 59.4747C214.95 59.2673 214.698 59.0186 214.614 58.77C214.488 58.4798 214.53 58.1896 214.698 57.858L215.62 55.9927L216.501 56.4073L215.578 58.2726C215.495 58.4383 215.453 58.5627 215.495 58.687C215.537 58.8114 215.579 58.8529 215.704 58.9357C215.83 58.9772 215.914 59.0186 216.04 58.9357C216.124 58.8944 216.207 58.7699 216.291 58.6042L217.214 56.7389L218.094 57.1534L217.13 59.0601Z" fill="#144276"/>
<path d="M220.022 61.174L218.89 60.8009L218.932 58.3967V58.4795C218.89 58.6869 218.849 58.8941 218.807 59.1013C218.765 59.3086 218.723 59.4744 218.639 59.7231L218.345 60.6764L217.549 60.4277L218.513 57.4019L219.645 57.7749V60.2205V60.1376C219.687 59.9304 219.687 59.7231 219.729 59.5574C219.771 59.3915 219.813 59.1843 219.897 58.9356L220.19 57.9821L220.987 58.2308L220.022 61.174Z" fill="#144276"/>
<path d="M222.579 58.4383L221.992 61.5472L221.027 61.3813L221.614 58.2725L222.579 58.4383Z" fill="#144276"/>
<path d="M225.807 58.7698L224.717 61.8787L223.459 61.7957L222.83 58.5625L223.836 58.6455L224.13 61.2154L224.759 58.7283L225.807 58.7698Z" fill="#144276"/>
<path d="M228.197 58.6455L228.113 59.3087L227.023 59.3501L227.065 59.9305L228.029 59.889L228.071 60.5108L227.107 60.5523L227.149 61.1741L228.281 61.1326L228.323 61.7958L226.226 61.9202L226.059 58.7698L228.197 58.6455Z" fill="#144276"/>
<path d="M230.168 60.3863L230 60.4278L230.209 61.547L229.245 61.7128L228.658 58.6039L229.832 58.3966C230.293 58.3137 230.671 58.3137 230.922 58.4381C231.174 58.5624 231.341 58.7697 231.425 59.1427C231.467 59.3501 231.467 59.5158 231.383 59.6402C231.3 59.806 231.216 59.9303 231.006 60.0962L232.012 61.2154L230.964 61.4226L230.168 60.3863ZM229.874 59.806L230.126 59.7645C230.251 59.7231 230.335 59.6816 230.377 59.5988C230.419 59.5158 230.461 59.4329 230.419 59.2671C230.377 59.0184 230.209 58.9355 229.916 58.977L229.706 59.0184L229.874 59.806Z" fill="#144276"/>
<path d="M233.983 57.5676L233.732 58.148C233.48 58.065 233.229 58.065 232.977 58.148C232.851 58.1894 232.809 58.2309 232.767 58.2722C232.725 58.3137 232.725 58.3966 232.725 58.4796C232.725 58.5209 232.767 58.5624 232.809 58.6039C232.851 58.6453 232.893 58.6453 232.977 58.6453C233.061 58.6453 233.187 58.6453 233.354 58.6453C233.732 58.6453 233.983 58.6868 234.193 58.7698C234.403 58.894 234.528 59.0598 234.612 59.3086C234.696 59.5158 234.696 59.6816 234.612 59.8889C234.528 60.0962 234.444 60.2205 234.277 60.3863C234.109 60.5521 233.899 60.635 233.648 60.7593C233.396 60.8423 233.103 60.8837 232.893 60.8837C232.642 60.8837 232.432 60.8008 232.264 60.7179L232.558 60.0962C232.851 60.2205 233.145 60.2205 233.396 60.1376C233.522 60.0962 233.606 60.0547 233.648 59.9718C233.69 59.8888 233.69 59.806 233.69 59.7231C233.69 59.6816 233.648 59.5988 233.606 59.5988C233.564 59.5573 233.522 59.5573 233.438 59.5158C233.354 59.5158 233.229 59.5158 233.103 59.5158C232.725 59.5158 232.432 59.4744 232.222 59.3914C232.013 59.2671 231.887 59.1013 231.803 58.894C231.719 58.6868 231.719 58.5211 231.803 58.3552C231.887 58.1894 231.971 58.0235 232.139 57.8993C232.306 57.7748 232.474 57.6506 232.725 57.5676C233.187 57.4019 233.606 57.4019 233.983 57.5676Z" fill="#144276"/>
<path d="M235.283 56.5728L236.624 59.4329L235.744 59.8475L234.402 56.9873L235.283 56.5728Z" fill="#144276"/>
<path d="M237.923 55.0806L238.217 55.7439L237.588 56.1169L238.888 58.2308L238.049 58.7284L236.749 56.6143L236.079 57.0288L235.701 56.4485L237.923 55.0806Z" fill="#144276"/>
<path d="M240.314 53.1738L240.775 55.3707L241.529 56.2825L240.775 56.9043L240.02 55.9924L237.924 55.0805L238.72 54.4173L239.936 55.122L239.475 53.7955L240.314 53.1738Z" fill="#144276"/>
<path d="M244.717 47.8269C245.094 47.744 245.513 47.8268 245.975 48.1169C246.268 48.2828 246.52 48.49 246.687 48.6973C246.855 48.9046 246.939 49.1533 246.939 49.4435C246.939 49.6922 246.855 49.9823 246.687 50.231C246.436 50.6455 246.142 50.8942 245.723 50.9771C245.346 51.0601 244.884 50.9771 244.423 50.687C244.13 50.5212 243.878 50.3139 243.711 50.1066C243.543 49.8994 243.459 49.6507 243.459 49.3605C243.459 49.1118 243.543 48.8217 243.711 48.573C244.046 48.1584 244.339 47.9097 244.717 47.8269ZM244.381 49.3605C244.465 49.5263 244.675 49.6507 245.01 49.8579C245.346 50.0237 245.597 50.1481 245.765 50.1481C245.933 50.1481 246.058 50.0652 246.184 49.9409C246.268 49.775 246.268 49.6092 246.184 49.4848C246.1 49.3191 245.891 49.1947 245.555 48.9874C245.22 48.8217 244.968 48.6973 244.801 48.6973C244.633 48.6973 244.507 48.7802 244.381 48.9046C244.297 49.0704 244.297 49.2361 244.381 49.3605Z" fill="#144276"/>
<path d="M247.735 48.1167L244.758 46.956L245.512 45.0493L246.099 45.3809L245.722 46.2927L246.393 46.5414L246.728 45.7124L247.357 45.9612L247.022 46.7903L248.112 47.2462L247.735 48.1167Z" fill="#144276"/>
<path d="M246.562 38.5005L247.233 38.6248L247.191 39.7025L247.778 39.7439L247.82 38.7905L248.449 38.832L248.407 39.7854L249.036 39.8269L249.078 38.7077L249.749 38.7492L249.665 40.8217L246.479 40.6973L246.562 38.5005Z" fill="#144276"/>
<path d="M246.814 35.3916L247.317 35.8476C247.233 35.9304 247.191 36.0134 247.149 36.1378C247.107 36.2621 247.107 36.3035 247.107 36.428C247.107 36.6352 247.191 36.7595 247.359 36.8839C247.527 36.9668 247.778 37.0496 248.114 37.0496C248.449 37.0496 248.701 37.0082 248.868 36.8839C249.036 36.7595 249.12 36.6352 249.12 36.428C249.12 36.3035 249.078 36.2206 249.036 36.1378C248.994 36.0549 248.91 35.9304 248.826 35.8476L249.371 35.433C249.497 35.5575 249.623 35.7232 249.707 35.889C249.791 36.0549 249.833 36.2621 249.833 36.4693C249.833 36.8009 249.749 37.0496 249.623 37.2983C249.497 37.547 249.288 37.7129 249.036 37.8372C248.784 37.9616 248.491 38.0445 248.114 38.0445C247.778 38.0445 247.443 37.9616 247.191 37.8372C246.94 37.7129 246.73 37.547 246.604 37.2983C246.478 37.0496 246.395 36.8009 246.395 36.5108C246.437 36.0134 246.562 35.6817 246.814 35.3916Z" fill="#144276"/>
<path d="M246.897 32.1583C247.19 31.9096 247.609 31.7852 248.155 31.7852C248.49 31.7852 248.783 31.8266 249.077 31.9509C249.328 32.0753 249.538 32.2411 249.664 32.4485C249.79 32.6557 249.873 32.9458 249.873 33.2775C249.873 33.7749 249.706 34.1479 249.412 34.3966C249.119 34.6454 248.7 34.7697 248.155 34.7697C247.819 34.7697 247.526 34.7282 247.232 34.6039C246.981 34.4795 246.771 34.3137 246.645 34.1064C246.519 33.8992 246.436 33.609 246.436 33.2775C246.436 32.78 246.603 32.407 246.897 32.1583ZM247.358 33.6505C247.526 33.7334 247.777 33.7749 248.155 33.7749C248.532 33.7749 248.783 33.7334 248.951 33.6505C249.119 33.5675 249.203 33.4432 249.203 33.2775C249.203 33.1116 249.119 32.9458 248.951 32.8629C248.783 32.78 248.532 32.7386 248.155 32.7386C247.777 32.7386 247.526 32.78 247.358 32.8629C247.19 32.9458 247.106 33.0701 247.106 33.236C247.106 33.4018 247.19 33.609 247.358 33.6505Z" fill="#144276"/>
<path d="M249.748 28.3032V29.5053L247.4 30.1685H247.484C247.694 30.127 247.903 30.127 248.113 30.0856C248.281 30.0856 248.49 30.0442 248.742 30.0442H249.748V30.8732H246.52V29.7126L248.867 28.9665H248.784C248.574 29.0078 248.364 29.0493 248.197 29.0493C248.029 29.0493 247.819 29.0908 247.568 29.0908H246.52V28.2617H249.748V28.3032Z" fill="#144276"/>
<path d="M246.897 24.8213C247.19 24.5725 247.609 24.4482 248.155 24.4482C248.49 24.4482 248.783 24.4897 249.077 24.6139C249.328 24.7384 249.538 24.9041 249.664 25.1113C249.79 25.3187 249.873 25.6089 249.873 25.9404C249.873 26.4379 249.706 26.8109 249.412 27.0596C249.119 27.3083 248.7 27.4327 248.155 27.4327C247.819 27.4327 247.526 27.3912 247.232 27.2669C246.981 27.1425 246.771 26.9767 246.645 26.7694C246.519 26.5622 246.436 26.272 246.436 25.9404C246.436 25.443 246.603 25.07 246.897 24.8213ZM247.358 26.3135C247.526 26.3964 247.777 26.4379 248.155 26.4379C248.532 26.4379 248.783 26.3964 248.951 26.3135C249.119 26.2305 249.203 26.1062 249.203 25.9404C249.203 25.7746 249.119 25.6089 248.951 25.5259C248.783 25.443 248.532 25.4015 248.155 25.4015C247.777 25.4015 247.526 25.443 247.358 25.5259C247.19 25.6089 247.106 25.7331 247.106 25.899C247.106 26.0648 247.19 26.2305 247.358 26.3135Z" fill="#144276"/>
<path d="M249.749 20.1787V21.132L248.617 21.1734C248.533 21.1734 248.407 21.1734 248.197 21.1734C247.904 21.1734 247.569 21.1734 247.275 21.132L249.413 21.5051V22.4169L247.275 22.8315C247.694 22.79 248.072 22.79 248.365 22.79H248.575L249.707 22.8315V23.7848L246.479 23.5361V22.2926L248.575 21.9195L246.479 21.588V20.4274L249.749 20.1787Z" fill="#144276"/>
<path d="M246.52 18.3965H249.748V19.3499H246.52V18.3965Z" fill="#144276"/>
<path d="M246.814 14.9561L247.317 15.4121C247.233 15.4949 247.191 15.5779 247.149 15.7022C247.107 15.8266 247.107 15.868 247.107 15.9923C247.107 16.1997 247.191 16.324 247.359 16.4484C247.527 16.5312 247.778 16.6141 248.114 16.6141C248.449 16.6141 248.701 16.5727 248.868 16.4484C249.036 16.324 249.12 16.1997 249.12 15.9923C249.12 15.868 249.078 15.7851 249.036 15.7022C248.994 15.6193 248.91 15.4949 248.826 15.4121L249.371 14.9975C249.497 15.122 249.623 15.2877 249.707 15.4535C249.791 15.6194 249.833 15.8266 249.833 16.0338C249.833 16.3654 249.749 16.6141 249.623 16.8628C249.497 17.1115 249.288 17.2774 249.036 17.4017C248.784 17.5261 248.491 17.6089 248.114 17.6089C247.778 17.6089 247.443 17.5261 247.191 17.4017C246.94 17.2774 246.73 17.1115 246.604 16.8628C246.478 16.6141 246.395 16.3654 246.395 16.0753C246.437 15.6193 246.562 15.2462 246.814 14.9561Z" fill="#144276"/>
<path d="M246.897 11.8056L247.4 12.2201C247.232 12.4274 247.148 12.6761 247.148 12.9248C247.148 13.0491 247.148 13.132 247.19 13.1735C247.232 13.2149 247.274 13.2564 247.358 13.2564C247.4 13.2564 247.442 13.2564 247.484 13.2149C247.526 13.1735 247.568 13.132 247.568 13.0491C247.61 12.9662 247.651 12.8419 247.693 12.6761C247.819 12.3445 247.945 12.0958 248.113 11.93C248.28 11.7641 248.49 11.7227 248.783 11.7227C248.993 11.7227 249.161 11.7641 249.329 11.8885C249.496 12.0129 249.622 12.1372 249.706 12.3445C249.79 12.5517 249.832 12.8004 249.832 13.0491C249.832 13.3393 249.79 13.588 249.706 13.7952C249.622 14.0025 249.496 14.2098 249.37 14.3341L248.867 13.8781C249.077 13.6294 249.161 13.3807 249.161 13.0906C249.161 12.9662 249.119 12.8419 249.077 12.8004C249.035 12.759 248.951 12.7175 248.867 12.7175C248.783 12.7175 248.742 12.7175 248.7 12.759C248.658 12.8004 248.616 12.8419 248.574 12.9248C248.532 13.0077 248.49 13.0906 248.448 13.2564C248.322 13.6294 248.197 13.8781 248.029 14.044C247.861 14.2098 247.651 14.2512 247.4 14.2512C247.19 14.2512 247.023 14.2098 246.897 14.0854C246.729 13.9611 246.645 13.8367 246.561 13.6294C246.478 13.4222 246.436 13.2149 246.436 13.0077C246.436 12.5103 246.603 12.0958 246.897 11.8056Z" fill="#144276"/>
<path d="M221.573 5.75391V9.98193H220.357V6.95599L219.477 7.49485L218.932 6.70728L220.441 5.79536H221.573V5.75391Z" fill="#144276"/>
<path d="M224.759 5.8781C225.011 6.00245 225.221 6.20971 225.346 6.45842C225.472 6.70713 225.556 6.99728 225.556 7.28743C225.556 7.86775 225.472 8.32371 225.263 8.73823C225.053 9.11129 224.759 9.4429 224.298 9.69161C223.879 9.94031 223.334 10.1062 222.663 10.1891L222.412 9.35999C222.789 9.27709 223.082 9.19419 223.292 9.11129C223.502 9.02838 223.711 8.90403 223.837 8.77967C223.963 8.65533 224.089 8.48952 224.172 8.24081C224.047 8.36517 223.921 8.44806 223.795 8.48952C223.669 8.53097 223.502 8.57242 223.334 8.57242C223.124 8.57242 222.915 8.53098 222.705 8.40662C222.495 8.28227 222.37 8.11646 222.244 7.9092C222.118 7.70195 222.076 7.45324 222.076 7.16309C222.076 6.87293 222.16 6.62422 222.286 6.37551C222.453 6.16826 222.621 5.961 222.915 5.83665C223.208 5.71229 223.46 5.62939 223.795 5.62939C224.172 5.67085 224.508 5.75374 224.759 5.8781ZM224.005 7.66049C224.089 7.61905 224.172 7.53614 224.256 7.45324C224.256 7.20453 224.256 7.03874 224.214 6.87293C224.172 6.74857 224.131 6.62422 224.089 6.58277C224.005 6.54132 223.921 6.49986 223.795 6.49986C223.669 6.49986 223.544 6.54132 223.46 6.66567C223.376 6.74857 223.334 6.91438 223.334 7.08018C223.334 7.4947 223.46 7.70195 223.753 7.70195C223.837 7.74341 223.921 7.70195 224.005 7.66049Z" fill="#144276"/>
<path d="M227.904 5.79514C228.114 5.87805 228.323 6.00241 228.407 6.16821C228.533 6.33402 228.575 6.49981 228.575 6.70708C228.575 6.95577 228.491 7.16304 228.365 7.32884C228.24 7.49465 228.03 7.619 227.737 7.7019C228.03 7.74336 228.282 7.82626 228.449 7.99206C228.617 8.15786 228.743 8.40657 228.743 8.73818C228.743 8.98689 228.659 9.19414 228.533 9.40139C228.407 9.60865 228.198 9.77446 227.946 9.85736C227.695 9.94026 227.359 10.0232 226.982 10.0232C226.311 10.0232 225.766 9.81592 225.389 9.35994L226.018 8.73818C226.185 8.86254 226.311 8.98689 226.437 9.02833C226.563 9.06979 226.688 9.11123 226.856 9.11123C227.024 9.11123 227.15 9.06979 227.275 8.98689C227.359 8.90398 227.443 8.77964 227.443 8.61383C227.443 8.44802 227.401 8.32368 227.275 8.24077C227.191 8.15787 227.024 8.11641 226.814 8.11641H226.437L226.563 7.2874H226.814C226.982 7.2874 227.108 7.24594 227.191 7.16304C227.275 7.08013 227.317 6.99723 227.317 6.83142C227.317 6.70708 227.275 6.62417 227.191 6.54127C227.108 6.45837 226.982 6.45837 226.856 6.45837C226.563 6.45837 226.311 6.58271 226.059 6.83142L225.431 6.20966C225.85 5.79514 226.395 5.58789 227.024 5.58789C227.401 5.6708 227.695 5.71224 227.904 5.79514Z" fill="#144276"/>
<path d="M231.384 5.75391V9.98193H230.168V6.95599L229.287 7.49485L228.742 6.70728L230.251 5.79536H231.384V5.75391Z" fill="#144276"/>
<path d="M209.079 9.277C209.797 9.277 210.379 8.7017 210.379 7.99201C210.379 7.28233 209.797 6.70703 209.079 6.70703C208.361 6.70703 207.779 7.28233 207.779 7.99201C207.779 8.7017 208.361 9.277 209.079 9.277Z" fill="#144276"/>
<path d="M243.374 9.277C244.092 9.277 244.674 8.7017 244.674 7.99201C244.674 7.28233 244.092 6.70703 243.374 6.70703C242.656 6.70703 242.074 7.28233 242.074 7.99201C242.074 8.7017 242.656 9.277 243.374 9.277Z" fill="#144276"/>
</g>
<path d="M186 3H183V61H186V3Z" fill="white"/>
<path d="M32.7235 5.85647C30.6203 5.85647 28.5714 6.07818 26.5986 6.49494C24.2653 4.92332 21.422 4 18.3515 4C10.4253 4 4 10.1517 4 17.7404C4 20.1946 4.67273 22.4973 5.84963 24.4913C4.94094 27.1462 4.44702 29.9822 4.44702 32.9275C4.44702 47.8789 17.1072 60 32.7235 60C48.3398 60 61 47.8789 61 32.9275C61 17.9761 48.3398 5.85647 32.7235 5.85647Z" fill="black"/>
<path d="M46.339 36.0763C44.6564 37.6872 41.9186 37.6872 40.236 36.0763C39.5032 35.3747 39.0899 34.4822 38.9947 33.5659C38.9947 33.5659 38.9683 33.4115 38.9771 33.1113C38.9859 32.832 38.9947 32.7254 38.9947 32.7254C39.0958 31.7838 39.5267 30.911 40.2346 30.2332C41.9171 28.6223 44.6564 28.6223 46.339 30.2332C47.085 30.9475 48.2941 30.9475 49.0401 30.2332C49.7861 29.519 49.7861 28.3613 49.0401 27.6471C45.867 24.6105 40.7065 24.6105 37.5349 27.6471C37.51 27.6709 37.4865 27.6962 37.4631 27.7201C36.2554 26.3393 34.4439 25.4595 32.4198 25.4595C30.5966 25.4595 28.9463 26.1751 27.7532 27.3258C26.5602 26.1751 24.9099 25.4595 23.0867 25.4595C21.9391 25.4595 20.8604 25.7429 19.9209 26.2397C19.553 25.8229 19.0005 25.5563 18.382 25.5563C17.2739 25.5563 16.377 26.408 16.377 27.4591V38.6708C16.377 39.7219 17.2739 40.5736 18.382 40.5736C19.49 40.5736 20.387 39.7219 20.387 38.6708V31.4077C20.4485 29.9778 21.7603 29.1149 23.0867 29.1149C24.608 29.1149 25.845 30.2992 25.845 31.7557V38.7859C25.845 39.7948 26.6994 40.6129 27.7532 40.6129C28.807 40.6129 29.6615 39.7948 29.6615 38.7859V31.7557C29.6615 30.2992 30.8985 29.1149 32.4198 29.1149C33.9411 29.1149 35.1781 30.2992 35.1781 31.7557C35.1781 31.7557 35.1518 32.9541 35.1518 33.1548C35.1518 35.2357 35.9974 37.1918 37.5349 38.6624C39.1207 40.1807 41.2034 40.9399 43.286 40.9399C45.3702 40.9399 47.4528 40.1807 49.0386 38.6624C49.7847 37.9482 49.7847 36.7905 49.0386 36.0763C48.2941 35.362 47.085 35.362 46.339 36.0763Z" fill="white"/>
<path d="M19.0412 21.8128C21.3895 21.448 22.9842 19.3296 22.6031 17.0813C22.222 14.833 20.0094 13.3062 17.6611 13.6711C15.3128 14.0359 13.7181 16.1543 14.0992 18.4026C14.4804 20.6509 16.693 22.1777 19.0412 21.8128Z" fill="white"/>
<path d="M75.9547 17.6729V24.1503C75.9547 25.1807 75.6261 25.9965 74.9668 26.5978C74.3074 27.199 73.4312 27.5008 72.3338 27.5008C71.2252 27.5008 70.3423 27.2035 69.6919 26.6112C69.0392 26.0189 68.7129 25.1964 68.7129 24.1436V17.6729H70.3915V24.1569C70.3915 24.8051 70.5569 25.2992 70.8854 25.6411C71.214 25.9831 71.6968 26.153 72.336 26.153C73.6324 26.153 74.2806 25.469 74.2806 24.1034V17.6729H75.9547Z" fill="white"/>
<path d="M79.0185 20.1629L79.0654 20.9943C79.5974 20.3506 80.297 20.0288 81.162 20.0288C82.6617 20.0288 83.4261 20.8871 83.453 22.6059V27.3667H81.8347V22.6997C81.8347 22.2438 81.7364 21.904 81.5375 21.685C81.3408 21.466 81.0167 21.3564 80.5697 21.3564C79.917 21.3564 79.432 21.6515 79.1123 22.2415V27.3667H77.4941V20.1629H79.0185Z" fill="white"/>
<path d="M84.8691 18.2918C84.8691 18.0437 84.9473 17.8358 85.106 17.6726C85.2647 17.5095 85.4883 17.4268 85.7811 17.4268C86.0739 17.4268 86.2996 17.5095 86.4605 17.6726C86.6192 17.8358 86.6997 18.0437 86.6997 18.2918C86.6997 18.5354 86.6192 18.7388 86.4605 18.902C86.3018 19.0651 86.0739 19.1456 85.7811 19.1456C85.4883 19.1456 85.2625 19.0651 85.106 18.902C84.9473 18.7388 84.8691 18.5354 84.8691 18.2918ZM86.5857 27.3664H84.9675V20.1626H86.5857V27.3664Z" fill="white"/>
<path d="M90.6878 25.3146L92.2122 20.1626H93.8841L91.3874 27.3664H89.9815L87.4648 20.1626H89.1433L90.6878 25.3146Z" fill="white"/>
<path d="M97.5696 27.4985C96.5437 27.4985 95.7144 27.1766 95.0774 26.5307C94.4404 25.8847 94.123 25.0242 94.123 23.9513V23.7524C94.123 23.0327 94.2616 22.3912 94.5388 21.8257C94.8159 21.2602 95.2048 20.8199 95.7077 20.5048C96.2084 20.1896 96.7694 20.0332 97.3863 20.0332C98.3675 20.0332 99.1252 20.3461 99.6594 20.9719C100.194 21.5977 100.462 22.4829 100.462 23.6272V24.2799H95.7547C95.8038 24.8744 96.0028 25.346 96.3514 25.6903C96.7001 26.0367 97.1382 26.2088 97.6657 26.2088C98.4078 26.2088 99.0112 25.9093 99.4761 25.3103L100.348 26.1418C100.06 26.5731 99.6751 26.9062 99.1923 27.1431C98.7095 27.38 98.1686 27.4985 97.5696 27.4985ZM97.3774 21.3273C96.9326 21.3273 96.575 21.4838 96.3023 21.7922C96.0296 22.1029 95.8553 22.5365 95.7793 23.0908H98.8615V22.9701C98.8257 22.4292 98.6827 22.0202 98.4279 21.7408C98.1753 21.4659 97.8244 21.3273 97.3774 21.3273Z" fill="white"/>
<path d="M105.377 21.6401C105.164 21.6044 104.943 21.5865 104.717 21.5865C103.975 21.5865 103.477 21.8703 103.22 22.4381V27.3643H101.602V20.1605H103.146L103.186 20.9651C103.577 20.3393 104.118 20.0264 104.811 20.0264C105.041 20.0264 105.234 20.0577 105.383 20.1202L105.377 21.6401Z" fill="white"/>
<path d="M110.297 25.4085C110.297 25.1202 110.179 24.9012 109.942 24.7492C109.705 24.5994 109.309 24.4653 108.759 24.3491C108.21 24.2329 107.749 24.0876 107.38 23.9088C106.573 23.5176 106.169 22.9521 106.169 22.2101C106.169 21.5887 106.43 21.0702 106.953 20.6522C107.476 20.2342 108.142 20.0264 108.952 20.0264C109.812 20.0264 110.507 20.2387 111.039 20.6656C111.571 21.0925 111.835 21.6446 111.835 22.3241H110.217C110.217 22.0134 110.1 21.7541 109.87 21.5485C109.64 21.3429 109.334 21.24 108.952 21.24C108.596 21.24 108.308 21.3227 108.082 21.4859C107.859 21.6491 107.747 21.8703 107.747 22.1453C107.747 22.3934 107.852 22.5878 108.06 22.7242C108.268 22.8627 108.69 23.0013 109.325 23.1399C109.96 23.2785 110.458 23.4461 110.82 23.6383C111.182 23.8306 111.45 24.063 111.625 24.3335C111.799 24.6039 111.889 24.9325 111.889 25.3191C111.889 25.9673 111.62 26.4926 111.084 26.8927C110.547 27.295 109.843 27.4962 108.974 27.4962C108.384 27.4962 107.859 27.3889 107.396 27.1765C106.933 26.9642 106.576 26.6714 106.316 26.2981C106.059 25.9249 105.93 25.5248 105.93 25.0934H107.501C107.523 25.4756 107.666 25.7684 107.935 25.9763C108.201 26.1819 108.554 26.2847 108.994 26.2847C109.421 26.2847 109.745 26.2043 109.966 26.0411C110.188 25.8824 110.297 25.6701 110.297 25.4085Z" fill="white"/>
<path d="M113.051 18.2918C113.051 18.0437 113.129 17.8358 113.288 17.6726C113.446 17.5095 113.67 17.4268 113.963 17.4268C114.256 17.4268 114.481 17.5095 114.642 17.6726C114.801 17.8358 114.881 18.0437 114.881 18.2918C114.881 18.5354 114.801 18.7388 114.642 18.902C114.483 19.0651 114.256 19.1456 113.963 19.1456C113.67 19.1456 113.444 19.0651 113.288 18.902C113.129 18.7388 113.051 18.5354 113.051 18.2918ZM114.767 27.3664H113.149V20.1626H114.767V27.3664Z" fill="white"/>
<path d="M118.404 18.4126V20.1627H119.676V21.3607H118.404V25.3817C118.404 25.6566 118.458 25.8556 118.568 25.9785C118.677 26.1014 118.872 26.1618 119.151 26.1618C119.336 26.1618 119.526 26.1394 119.716 26.0947V27.3464C119.348 27.4492 118.992 27.5006 118.65 27.5006C117.408 27.5006 116.786 26.8144 116.786 25.4443V21.363H115.602V20.1649H116.786V18.4148H118.404V18.4126Z" fill="white"/>
<path d="M123.543 25.0484L125.007 20.1624H126.731L123.867 28.457C123.427 29.6684 122.683 30.2741 121.63 30.2741C121.395 30.2741 121.136 30.2339 120.852 30.1534V28.8951L121.159 28.9152C121.568 28.9152 121.874 28.8414 122.082 28.6917C122.287 28.5442 122.45 28.2938 122.571 27.9429L122.804 27.3238L120.273 20.1602H122.017L123.543 25.0484Z" fill="white"/>
<path d="M130.754 23.6986C130.754 22.9923 130.893 22.3575 131.174 21.792C131.454 21.2266 131.847 20.7907 132.352 20.4867C132.857 20.1827 133.438 20.0308 134.095 20.0308C135.068 20.0308 135.857 20.3437 136.462 20.9695C137.068 21.5953 137.394 22.4246 137.444 23.4594L137.45 23.8394C137.45 24.5502 137.314 25.185 137.041 25.7437C136.769 26.3025 136.378 26.7361 135.87 27.0423C135.363 27.3486 134.775 27.5028 134.109 27.5028C133.092 27.5028 132.278 27.1653 131.668 26.488C131.058 25.8108 130.754 24.91 130.754 23.7813V23.6986ZM132.372 23.8372C132.372 24.5792 132.524 25.1581 132.833 25.5783C133.139 25.9985 133.566 26.2064 134.111 26.2064C134.656 26.2064 135.081 25.9941 135.385 25.5672C135.689 25.1403 135.841 24.5167 135.841 23.6964C135.841 22.9677 135.685 22.3911 135.372 21.9664C135.059 21.5395 134.634 21.3271 134.098 21.3271C133.57 21.3271 133.15 21.5372 132.839 21.9552C132.529 22.3754 132.372 23.0035 132.372 23.8372Z" fill="white"/>
<path d="M139.006 27.3665V21.3607H137.906V20.1627H139.006V19.5033C139.006 18.7054 139.227 18.0885 139.672 17.6527C140.117 17.2168 140.738 17 141.536 17C141.82 17 142.122 17.0402 142.441 17.1207L142.401 18.3858C142.224 18.35 142.017 18.3321 141.782 18.3321C141.009 18.3321 140.624 18.73 140.624 19.5235V20.1627H142.088V21.3607H140.624V27.3665H139.006Z" fill="white"/>
<path d="M74.2919 41.47H70.5369L69.7501 43.7274H68L71.6611 34.0337H73.1721L76.8399 43.7274H75.0831L74.2919 41.47ZM71.0085 40.111H73.818L72.4121 36.09L71.0085 40.111Z" fill="white"/>
<path d="M84.0306 40.1981C84.0306 41.3112 83.7781 42.2007 83.2707 42.8646C82.7656 43.5284 82.0861 43.8592 81.2345 43.8592C80.4455 43.8592 79.813 43.5999 79.3369 43.0814V46.4966H77.7188V36.5235H79.2095L79.2766 37.2566C79.7505 36.68 80.3963 36.3916 81.2144 36.3916C82.0928 36.3916 82.7812 36.718 83.2819 37.3729C83.7803 38.0278 84.0306 38.9352 84.0306 40.0997V40.1981ZM82.4191 40.0595C82.4191 39.3398 82.2761 38.7698 81.99 38.3496C81.7039 37.9272 81.2948 37.7171 80.7607 37.7171C80.0991 37.7171 79.6252 37.9898 79.3369 38.5351V41.7314C79.6297 42.2901 80.1102 42.5695 80.7741 42.5695C81.2881 42.5695 81.6905 42.3617 81.9833 41.9459C82.2738 41.5302 82.4191 40.9021 82.4191 40.0595Z" fill="white"/>
<path d="M91.5561 40.1981C91.5561 41.3112 91.3036 42.2007 90.7962 42.8646C90.2911 43.5284 89.6116 43.8592 88.76 43.8592C87.971 43.8592 87.3384 43.5999 86.8624 43.0814V46.4966H85.2441V36.5235H86.735L86.802 37.2566C87.2759 36.68 87.9218 36.3916 88.7399 36.3916C89.6183 36.3916 90.3067 36.718 90.8074 37.3729C91.3058 38.0278 91.5561 38.9352 91.5561 40.0997V40.1981ZM89.9446 40.0595C89.9446 39.3398 89.8016 38.7698 89.5155 38.3496C89.2294 37.9272 88.8203 37.7171 88.2861 37.7171C87.6245 37.7171 87.1507 37.9898 86.8624 38.5351V41.7314C87.1552 42.2901 87.6357 42.5695 88.2996 42.5695C88.8136 42.5695 89.216 42.3617 89.5088 41.9459C89.7993 41.5302 89.9446 40.9021 89.9446 40.0595Z" fill="white"/>
<path d="M94.4483 43.7276H92.8301V33.502H94.4483V43.7276Z" fill="white"/>
<path d="M95.9473 34.6531C95.9473 34.405 96.0255 34.1971 96.1842 34.0339C96.3429 33.8708 96.5664 33.7881 96.8592 33.7881C97.152 33.7881 97.3777 33.8708 97.5387 34.0339C97.6996 34.1971 97.7778 34.405 97.7778 34.6531C97.7778 34.8967 97.6974 35.1001 97.5387 35.2632C97.38 35.4264 97.152 35.5069 96.8592 35.5069C96.5664 35.5069 96.3406 35.4264 96.1842 35.2632C96.0255 35.1001 95.9473 34.8967 95.9473 34.6531ZM97.6638 43.7277H96.0456V36.5239H97.6638V43.7277Z" fill="white"/>
<path d="M102.325 43.8593C101.3 43.8593 100.47 43.5374 99.8333 42.8915C99.1963 42.2455 98.8789 41.385 98.8789 40.3121V40.1132C98.8789 39.3935 99.0175 38.752 99.2946 38.1865C99.5718 37.6211 99.9607 37.1807 100.464 36.8656C100.964 36.5504 101.525 36.394 102.142 36.394C103.123 36.394 103.881 36.7069 104.415 37.3327C104.95 37.9586 105.218 38.8437 105.218 39.988V40.6407H100.511C100.56 41.2352 100.759 41.7069 101.107 42.0511C101.456 42.3975 101.894 42.5696 102.422 42.5696C103.164 42.5696 103.767 42.2701 104.232 41.6711L105.104 42.5026C104.815 42.9339 104.431 43.267 103.948 43.5039C103.465 43.7408 102.924 43.8593 102.325 43.8593ZM102.131 37.6881C101.686 37.6881 101.329 37.8446 101.056 38.1552C100.783 38.4659 100.609 38.8995 100.533 39.4539H103.615V39.3332C103.579 38.7923 103.436 38.3832 103.182 38.1038C102.927 37.8244 102.58 37.6881 102.131 37.6881Z" fill="white"/>
<path d="M106.059 40.0732C106.059 38.9646 106.316 38.0728 106.832 37.4C107.346 36.7272 108.037 36.392 108.902 36.392C109.666 36.392 110.283 36.6579 110.752 37.1899V33.502H112.371V43.7276H110.907L110.826 42.9811C110.341 43.5667 109.697 43.8595 108.888 43.8595C108.046 43.8595 107.362 43.5198 106.841 42.8403C106.32 42.1631 106.059 41.24 106.059 40.0732ZM107.677 40.2118C107.677 40.9449 107.818 41.5149 108.099 41.9261C108.381 42.3374 108.781 42.5408 109.302 42.5408C109.963 42.5408 110.446 42.2458 110.752 41.6557V38.5802C110.455 38.0035 109.977 37.7152 109.315 37.7152C108.792 37.7152 108.388 37.923 108.104 38.3388C107.82 38.7523 107.677 39.3781 107.677 40.2118Z" fill="white"/>
<path d="M122.676 41.2311C122.676 40.8042 122.526 40.4756 122.227 40.2454C121.927 40.0152 121.386 39.7827 120.606 39.5458C119.826 39.3089 119.205 39.0496 118.742 38.7613C117.859 38.207 117.417 37.4828 117.417 36.591C117.417 35.8087 117.734 35.1672 118.371 34.6598C119.008 34.1525 119.835 33.8999 120.852 33.8999C121.527 33.8999 122.128 34.0251 122.656 34.2731C123.183 34.5212 123.599 34.8766 123.901 35.3348C124.203 35.793 124.355 36.3026 124.355 36.8614H122.676C122.676 36.3563 122.517 35.9584 122.2 35.6723C121.882 35.3862 121.429 35.2432 120.839 35.2432C120.289 35.2432 119.862 35.3617 119.558 35.5963C119.254 35.831 119.102 36.1596 119.102 36.582C119.102 36.9374 119.265 37.2325 119.594 37.4716C119.922 37.7085 120.463 37.941 121.219 38.1645C121.974 38.388 122.58 38.6428 123.036 38.9311C123.492 39.2172 123.827 39.5458 124.042 39.9168C124.256 40.2879 124.361 40.7215 124.361 41.2177C124.361 42.0246 124.053 42.6683 123.431 43.1444C122.812 43.6204 121.972 43.8596 120.912 43.8596C120.211 43.8596 119.567 43.73 118.979 43.4707C118.391 43.2114 117.933 42.8516 117.607 42.3956C117.28 41.9396 117.117 41.4054 117.117 40.7975H118.802C118.802 41.3473 118.984 41.7742 119.348 42.076C119.712 42.3777 120.233 42.5297 120.912 42.5297C121.498 42.5297 121.938 42.4112 122.233 42.1743C122.528 41.9352 122.676 41.6222 122.676 41.2311Z" fill="white"/>
<path d="M128.515 42.5699C128.92 42.5699 129.255 42.4513 129.521 42.2166C129.787 41.9819 129.93 41.6914 129.948 41.3449H131.472C131.454 41.7942 131.316 42.2122 131.052 42.5989C130.79 42.9878 130.435 43.2939 129.986 43.5197C129.536 43.7454 129.054 43.8595 128.535 43.8595C127.527 43.8595 126.729 43.5332 126.139 42.8806C125.549 42.2279 125.254 41.327 125.254 40.1782V40.0106C125.254 38.9154 125.547 38.037 126.132 37.3777C126.718 36.7183 127.518 36.3896 128.528 36.3896C129.384 36.3896 130.082 36.6401 130.623 37.1385C131.161 37.6369 131.445 38.2941 131.472 39.1054H129.948C129.93 38.6919 129.789 38.3522 129.525 38.0862C129.262 37.8202 128.924 37.6861 128.517 37.6861C127.994 37.6861 127.59 37.8761 127.306 38.2561C127.022 38.6361 126.877 39.2104 126.872 39.9837V40.243C126.872 41.0253 127.013 41.6064 127.295 41.9909C127.574 42.3775 127.981 42.5699 128.515 42.5699Z" fill="white"/>
<path d="M132.492 34.6531C132.492 34.405 132.57 34.1971 132.729 34.0339C132.888 33.8708 133.111 33.7881 133.404 33.7881C133.697 33.7881 133.923 33.8708 134.084 34.0339C134.245 34.1971 134.323 34.405 134.323 34.6531C134.323 34.8967 134.242 35.1001 134.084 35.2632C133.925 35.4264 133.697 35.5069 133.404 35.5069C133.111 35.5069 132.886 35.4264 132.729 35.2632C132.573 35.1001 132.492 34.8967 132.492 34.6531ZM134.211 43.7277H132.593V36.5239H134.211V43.7277Z" fill="white"/>
<path d="M138.87 43.8593C137.844 43.8593 137.015 43.5374 136.378 42.8915C135.741 42.2455 135.424 41.385 135.424 40.3121V40.1132C135.424 39.3935 135.562 38.752 135.84 38.1865C136.117 37.6211 136.506 37.1807 137.009 36.8656C137.509 36.5504 138.07 36.394 138.687 36.394C139.668 36.394 140.426 36.7069 140.96 37.3327C141.494 37.9586 141.763 38.8437 141.763 39.988V40.6407H137.055C137.105 41.2352 137.304 41.7069 137.652 42.0511C138.001 42.3975 138.439 42.5696 138.967 42.5696C139.709 42.5696 140.312 42.2701 140.777 41.6711L141.649 42.5026C141.36 42.9339 140.976 43.267 140.493 43.5039C140.01 43.7408 139.469 43.8593 138.87 43.8593ZM138.678 37.6881C138.233 37.6881 137.876 37.8446 137.603 38.1552C137.33 38.4659 137.156 38.8995 137.08 39.4539H140.162V39.3332C140.127 38.7923 139.984 38.3832 139.729 38.1038C139.474 37.8244 139.127 37.6881 138.678 37.6881Z" fill="white"/>
<path d="M144.413 36.5238L144.46 37.3553C144.992 36.7116 145.692 36.3896 146.557 36.3896C148.056 36.3896 148.821 37.248 148.848 38.9668V43.7276H147.229V39.0606C147.229 38.6024 147.131 38.2649 146.932 38.0459C146.735 37.8268 146.411 37.7174 145.964 37.7174C145.312 37.7174 144.827 38.0124 144.507 38.6025V43.7276H142.889V36.5238H144.413Z" fill="white"/>
<path d="M153.273 42.5699C153.677 42.5699 154.013 42.4513 154.279 42.2166C154.545 41.9819 154.688 41.6914 154.706 41.3449H156.23C156.212 41.7942 156.073 42.2122 155.81 42.5989C155.548 42.9878 155.193 43.2939 154.743 43.5197C154.294 43.7454 153.811 43.8595 153.293 43.8595C152.285 43.8595 151.487 43.5332 150.897 42.8806C150.307 42.2279 150.012 41.327 150.012 40.1782V40.0106C150.012 38.9154 150.305 38.037 150.89 37.3777C151.476 36.7183 152.276 36.3896 153.286 36.3896C154.142 36.3896 154.84 36.6401 155.381 37.1385C155.919 37.6369 156.203 38.2941 156.23 39.1054H154.706C154.688 38.6919 154.547 38.3522 154.283 38.0862C154.019 37.8202 153.682 37.6861 153.275 37.6861C152.752 37.6861 152.347 37.8761 152.064 38.2561C151.78 38.6361 151.634 39.2104 151.63 39.9837V40.243C151.63 41.0253 151.771 41.6064 152.052 41.9909C152.334 42.3775 152.741 42.5699 153.273 42.5699Z" fill="white"/>
<path d="M160.454 43.8593C159.428 43.8593 158.599 43.5374 157.962 42.8915C157.325 42.2455 157.008 41.385 157.008 40.3121V40.1132C157.008 39.3935 157.146 38.752 157.424 38.1865C157.701 37.6211 158.09 37.1807 158.593 36.8656C159.093 36.5504 159.654 36.394 160.271 36.394C161.252 36.394 162.01 36.7069 162.544 37.3327C163.078 37.9586 163.347 38.8437 163.347 39.988V40.6407H158.639C158.689 41.2352 158.888 41.7069 159.236 42.0511C159.585 42.3975 160.023 42.5696 160.551 42.5696C161.293 42.5696 161.896 42.2701 162.361 41.6711L163.233 42.5026C162.944 42.9339 162.56 43.267 162.077 43.5039C161.594 43.7408 161.053 43.8593 160.454 43.8593ZM160.262 37.6881C159.817 37.6881 159.46 37.8446 159.187 38.1552C158.914 38.4659 158.74 38.8995 158.664 39.4539H161.746V39.3332C161.711 38.7923 161.567 38.3832 161.313 38.1038C161.058 37.8244 160.711 37.6881 160.262 37.6881Z" fill="white"/>
<path d="M168.408 41.7696C168.408 41.4813 168.29 41.2622 168.053 41.1102C167.816 40.9582 167.421 40.8264 166.871 40.7101C166.321 40.5939 165.86 40.4486 165.492 40.2698C164.685 39.8787 164.28 39.3132 164.28 38.5734C164.28 37.952 164.542 37.4334 165.065 37.0155C165.588 36.5975 166.254 36.3896 167.063 36.3896C167.923 36.3896 168.619 36.602 169.151 37.0289C169.682 37.4558 169.946 38.008 169.946 38.6875H168.328C168.328 38.3768 168.212 38.1174 167.982 37.9118C167.751 37.7061 167.445 37.6033 167.063 37.6033C166.708 37.6033 166.419 37.6861 166.193 37.8493C165.97 38.0147 165.858 38.2336 165.858 38.5085C165.858 38.7566 165.963 38.9511 166.171 39.0874C166.379 39.226 166.801 39.3647 167.436 39.5033C168.071 39.6419 168.569 39.8094 168.931 40.0016C169.294 40.1938 169.562 40.4264 169.736 40.6968C169.91 40.9673 170 41.2957 170 41.6824C170 42.3306 169.732 42.856 169.195 43.2561C168.659 43.6584 167.955 43.8595 167.085 43.8595C166.495 43.8595 165.97 43.7521 165.507 43.5398C165.045 43.3275 164.687 43.0347 164.428 42.6614C164.171 42.2881 164.041 41.8881 164.041 41.4567H165.612C165.635 41.8389 165.778 42.1318 166.046 42.3396C166.312 42.5453 166.665 42.648 167.105 42.648C167.532 42.648 167.856 42.5675 168.078 42.4044C168.297 42.2434 168.408 42.0311 168.408 41.7696Z" fill="white"/>
</svg>
