<svg width="101" height="100" viewBox="0 0 101 100" fill="none" xmlns="http://www.w3.org/2000/svg">
<path d="M17.6017 58.4778C18.0352 58.5364 18.4649 58.5676 18.8908 58.5676C23.5158 58.5676 27.5588 55.1457 28.2072 50.4387C28.4806 48.466 28.1173 46.4778 27.1916 44.7395C26.6213 45.3137 25.9885 45.7747 25.2893 46.0833C24.0002 46.6536 22.3518 46.9388 20.4924 46.9388C18.2541 46.9388 15.7033 46.5286 13.0783 45.7122C9.00406 44.4466 5.68376 42.47 3.83996 40.2669C1.79306 41.7708 0.43766 44.0247 0.0899604 46.5638C-0.25379 49.056 0.39465 51.5286 1.91416 53.5326C3.43366 55.5365 5.64076 56.8295 8.12896 57.1693L17.6017 58.4778Z" fill="#FF9E1B"/>
<path d="M18.8437 71.0528C21.0117 71.2012 23.1054 70.4981 24.7421 69.0723C26.3788 67.6465 27.3632 65.67 27.5155 63.502C27.6561 61.4473 27.0077 59.42 25.7225 57.8301C23.8202 59.3262 21.4334 60.2051 18.8944 60.2051C18.3944 60.2051 17.8905 60.1699 17.3788 60.0996L7.90996 58.7949C6.66776 58.623 5.48806 58.2519 4.40216 57.6972C3.5545 58.9042 3.05446 60.3105 2.95296 61.7988C2.80452 63.9668 3.50765 66.0605 4.93346 67.6972C6.35926 69.3339 8.33576 70.3183 10.5038 70.4706L18.8437 71.0528Z" fill="#FF9E1B"/>
<path d="M25.6057 70.4858C23.8479 71.935 21.6799 72.7124 19.4182 72.7124C19.1916 72.7124 18.9612 72.7046 18.7307 72.6889L10.3909 72.1108C9.12531 72.0249 7.91431 71.6968 6.80501 71.1616C6.00423 72.2788 5.53551 73.5874 5.43781 74.978C5.15265 79.0835 8.2659 82.6577 12.3714 82.9389L20.0941 83.4741C24.1996 83.7592 27.7738 80.6499 28.055 76.5405C28.2152 74.2319 27.3049 72.0171 25.6057 70.4858Z" fill="#FF9E1B"/>
<path d="M68.0426 49.4628C67.1246 55.6581 64.0973 61.4628 63.9449 61.7478C63.7965 62.0251 63.5152 62.1853 63.2183 62.1853C63.0894 62.1853 62.9605 62.154 62.8355 62.0915C62.4332 61.8806 62.2808 61.3845 62.4918 60.986C62.5348 60.9079 66.6637 52.986 66.6637 46.115C66.6637 42.865 65.8317 39.9392 65.027 37.1072C64.0973 33.8338 63.1364 30.447 63.4762 26.6072C63.8512 22.365 66.3551 13.9702 68.3864 7.67323C68.8942 6.10293 68.7262 4.44273 67.9176 3.00133C67.1091 1.55993 65.777 0.552133 64.1676 0.165433C61.0465 -0.580657 57.9567 1.26313 57.1324 4.36073C55.0972 12.013 52.4488 21.7477 51.3707 24.6927C50.6207 26.7435 49.1129 28.888 47.5191 31.1615C45.4566 34.099 43.1207 37.431 42.2261 40.9545C40.6831 47.0483 42.6597 55.4935 42.6793 55.5755C42.7847 56.0169 42.5113 56.4583 42.0738 56.5638C41.6324 56.6693 41.191 56.3958 41.0855 55.9583C40.9996 55.599 38.9957 47.0442 40.6402 40.5523C41.605 36.7359 44.0347 33.2711 46.1793 30.2163C46.1988 30.189 46.2145 30.1656 46.234 30.1382C39.2145 25.9898 27.523 19.3962 22.394 18.3022C14.726 16.6655 8.61299 19.0132 5.95599 22.0639C3.41299 24.9819 1.49119 32.8959 4.38569 38.1729C7.10839 43.1417 19.2177 46.9698 24.6277 44.5713C27.0691 43.4893 28.9871 39.4971 30.0261 33.3293C30.3933 31.1457 29.2253 29.0168 27.1823 28.1457C24.9792 27.2082 22.405 28.0559 21.1901 30.1184L20.6081 31.1067C23.0261 33.9114 24.3229 37.7708 24.3815 37.9426C24.5221 38.3723 24.2916 38.8371 23.8619 38.9778C23.776 39.0051 23.69 39.0208 23.6041 39.0208C23.2604 39.0208 22.9401 38.802 22.8268 38.4583C22.8151 38.4192 21.4323 34.3255 19.0065 31.7747C16.569 29.2161 10.5143 26.7942 10.4557 26.7708C10.0338 26.6028 9.83068 26.1262 9.99474 25.7083C10.1627 25.2864 10.6393 25.0833 11.0572 25.2473C11.2955 25.3411 16.4674 27.4114 19.4127 29.9114L19.7838 29.2825C21.4166 26.513 24.8736 25.3763 27.8307 26.6341C30.5768 27.8021 32.1471 30.6653 31.651 33.5989C31.1002 36.8567 30.1041 40.7122 28.3112 43.3567C29.6471 45.5325 30.1901 48.095 29.8385 50.6419C29.5143 53.0052 28.4596 55.0872 26.9362 56.7044C28.5221 58.6263 29.3268 61.095 29.155 63.5989C29.0066 65.7434 28.1785 67.7317 26.7917 69.3255C28.8112 71.1927 29.8894 73.8607 29.6979 76.638C29.5339 79.0013 28.4752 81.095 26.8776 82.6107C29.8971 83.7552 37.6396 86.3685 43.3426 85.5326C50.4793 84.4818 56.3856 78.349 56.4446 78.2865C56.7571 77.9584 57.2767 77.9467 57.6048 78.2553C57.933 78.5678 57.9447 79.0873 57.6361 79.4115C57.4955 79.5599 55.597 81.5326 52.6439 83.4701L93.9019 99.9701H100.015L100.003 55.2281L68.0426 49.4628Z" fill="#FF9E1B"/>
</svg>
