<svg width="72" height="90" viewBox="0 0 72 90" fill="none" xmlns="http://www.w3.org/2000/svg">
<path d="M71.3199 31.7874C70.6218 21.063 66.5434 12.1678 59.8358 6.7403C55.7533 3.43649 50.3246 1.16533 44.5498 0.34554C38.3249 -0.538355 32.1155 0.281257 26.5926 2.71527C14.677 7.9665 6.90194 20.2798 6.78498 34.085C6.76016 37.062 5.46968 39.9503 3.24494 42.009C1.02074 44.0648 -0.0697561 46.1299 0.00345537 48.1466C0.0534535 49.5296 0.627182 50.5642 1.29162 51.762C1.91731 52.89 2.62657 54.1687 3.20208 56.1695C3.60939 57.5885 3.85813 59.0717 3.94152 60.5779C4.01509 61.9061 4.58828 63.1655 5.55557 64.1244C6.50749 65.0672 6.91819 66.41 6.65427 67.7171L6.59017 68.0358C6.41607 68.8958 6.4566 69.7967 6.70731 70.6414L8.46974 76.5787C9.57327 80.2957 13.0399 82.8206 16.8923 82.8203C17.1544 82.8203 17.4192 82.8085 17.6844 82.7847L24.7038 82.1526C26.6898 81.9742 28.5427 83.2722 29.0106 85.1734C29.1336 85.6714 29.2482 86.1942 29.3506 86.7273C29.5145 87.5833 29.643 88.4683 29.7325 89.3572C29.7693 89.7221 30.0764 90 30.4432 90H60.1635C60.364 90 60.5553 89.9157 60.6906 89.7679C60.826 89.62 60.8927 89.422 60.8749 89.2223L59.9483 78.8408C59.569 74.5738 60.5028 70.2981 62.6488 66.4757C68.9646 55.2356 72.0441 42.9164 71.3199 31.7874ZM38.2284 49.9637H19.3899C19.5902 49.3828 19.6932 48.8382 19.7416 48.3655H38.2284V49.9637ZM19.3895 45.3369H34.7107C35.3385 45.3369 35.9216 45.4503 36.4415 45.6729C36.6546 45.7651 36.8476 45.8665 37.0333 45.9842C37.4367 46.2384 37.7976 46.5638 38.0945 46.9368H19.7418C19.6806 46.3356 19.5488 45.7979 19.3895 45.3369ZM38.2284 24.8148C38.0811 24.7407 37.9443 24.6443 37.8242 24.5252C37.5276 24.2312 37.3642 23.8411 37.3642 23.4272V21.9129C37.3642 21.5185 37.0444 21.1987 36.6499 21.1987H32.0626C31.6681 21.1987 31.3483 21.5185 31.3483 21.9129V26.4985H30.5323C28.8741 26.4985 27.5253 27.837 27.5253 29.4823C27.5253 31.1287 28.8743 32.4679 30.5323 32.4679H31.3483V37.0534C31.3483 37.4479 31.6681 37.7677 32.0626 37.7677H36.6499C37.0444 37.7677 37.3642 37.4479 37.3642 37.0534V35.5392C37.3642 34.9344 37.7163 34.4101 38.2284 34.1525V45.0805C38.0888 44.9728 37.9452 44.8705 37.7967 44.7767C37.5488 44.6196 37.2908 44.4839 37.0062 44.3608C36.3053 44.0607 35.533 43.9085 34.7109 43.9085H19.0133V15.8148H34.7109C35.3419 15.8148 35.9246 15.928 36.4462 16.1526C36.6456 16.2373 36.8428 16.341 37.0344 16.4624C37.4999 16.7547 37.9092 17.1424 38.2286 17.5901L38.2284 24.8148ZM39.657 49.9637V48.3655H58.1455C58.1939 48.8383 58.297 49.3828 58.4973 49.9637H39.657ZM58.1454 46.9368H39.7928C40.0916 46.5613 40.4464 46.2408 40.8553 45.9831C41.0396 45.8663 41.2326 45.7649 41.4433 45.6738C41.9654 45.4503 42.5484 45.3369 43.1763 45.3369H58.4975C58.3384 45.7979 58.2066 46.3356 58.1454 46.9368ZM58.8741 43.9084H43.1765C42.3543 43.9084 41.5821 44.0605 40.879 44.3616C40.5967 44.4835 40.3389 44.6192 40.0923 44.7755C39.9414 44.8705 39.7969 44.9731 39.657 45.0808V34.15C39.805 34.2237 39.9419 34.3196 40.0619 34.438C40.3592 34.7341 40.523 35.1251 40.523 35.539V37.0533C40.523 37.4477 40.8428 37.7675 41.2372 37.7675H45.8246C46.219 37.7675 46.5388 37.4477 46.5388 37.0533V32.4677H47.3549C49.013 32.4677 50.3619 31.1285 50.3619 29.4821C50.3619 27.8368 49.013 26.4983 47.3549 26.4983H46.5388V21.9128C46.5388 21.5183 46.219 21.1985 45.8246 21.1985H41.2372C40.8428 21.1985 40.523 21.5183 40.523 21.9128V23.427C40.523 24.0321 40.17 24.5566 39.657 24.8141V17.5899C39.981 17.1365 40.3828 16.7578 40.8553 16.4612C41.0448 16.3412 41.2419 16.2374 41.4449 16.1512C41.9628 15.928 42.5454 15.815 43.1765 15.815H58.8741V43.9084Z" fill="#FF9E1B"/>
</svg>
