<svg width="100" height="101" viewBox="0 0 100 101" fill="none" xmlns="http://www.w3.org/2000/svg">
<path d="M91.1732 62.4232L89.5031 61.5092C88.54 62.2348 87.4242 62.6522 86.2345 62.6522C85.0449 62.6522 83.929 62.2348 82.966 61.5092L81.2958 62.4232C78.2231 64.1049 76.3142 67.4295 76.3142 71.0999V82.862C76.3142 83.8663 77.0675 84.6835 77.9934 84.6835C78.9194 84.6835 79.6727 83.8663 79.6727 82.862V70.5095C79.6727 70.0541 80.0419 69.6849 80.4972 69.6849C80.9526 69.6849 81.3218 70.0541 81.3218 70.5095V98.3877C81.3218 99.6048 82.2389 100.595 83.3661 100.595C84.4932 100.595 85.4104 99.6048 85.4104 98.3877V84.5709C85.4104 84.1156 85.7796 83.7464 86.2349 83.7464C86.6903 83.7464 87.0595 84.1156 87.0595 84.5709V98.3877C87.0595 99.6048 87.9766 100.595 89.1038 100.595C90.231 100.595 91.1481 99.6048 91.1481 98.3877V70.5095C91.1481 70.0541 91.5173 69.6849 91.9726 69.6849C92.428 69.6849 92.7972 70.0541 92.7972 70.5095V82.862C92.7972 83.8663 93.5504 84.6835 94.4764 84.6835C95.4022 84.6835 96.1556 83.8663 96.1556 82.862V71.0999C96.1548 67.4295 94.246 64.1049 91.1732 62.4232Z" fill="#FF9E1B"/>
<path d="M81.3217 54.0869C81.3217 56.4983 82.2033 58.624 83.5362 59.8623C83.5795 59.8943 83.6197 59.9303 83.6566 59.9712C84.4065 60.6246 85.2897 61.0031 86.2346 61.0031C87.1796 61.0031 88.0627 60.6246 88.8126 59.9712C88.8495 59.9305 88.8897 59.8943 88.9328 59.8625C90.2657 58.6242 91.1473 56.4983 91.1473 54.0871C91.1473 50.2737 88.9435 47.1711 86.2344 47.1711C83.5253 47.1711 81.3217 50.2735 81.3217 54.0869Z" fill="#FF9E1B"/>
<path d="M55.572 35.1591H42.2156V44.167L55.572 35.1591Z" fill="#FF9E1B"/>
<path d="M43.1184 13.4088C42.4354 12.4525 41.6612 11.3688 40.3297 10.4867C38.5575 9.31234 36.043 8.69165 33.0579 8.69165C29.8961 8.69165 26.4903 9.41417 23.4678 10.7261C17.3003 13.4034 13.2738 18.1782 13.1054 18.3803C12.7271 18.8344 12.7687 19.5555 13.1965 19.9543C13.3744 20.1203 13.6007 20.2116 13.8335 20.2116C14.1089 20.2116 14.3733 20.084 14.5593 19.8616C14.6009 19.8121 18.5141 15.2244 24.1897 12.7607C27.7698 11.2066 30.9433 10.8805 32.975 10.8805C35.5827 10.8805 37.8929 11.4201 39.3135 12.3612C40.3326 13.0359 40.9308 13.8736 41.5639 14.7602C42.6904 16.338 43.9671 18.1255 47.5121 18.1255C51.0571 18.1255 52.3335 16.338 53.4598 14.761C54.0939 13.8732 54.6919 13.0361 55.7111 12.361C57.1312 11.4203 59.4414 10.8805 62.0491 10.8805C64.081 10.8805 67.2546 11.2066 70.8344 12.7607C72.9471 13.6778 75.0405 14.9812 77.0627 16.6295L80.0223 16.4178C78.2557 14.758 75.2914 12.3476 71.5561 10.7263C68.5339 9.41459 65.128 8.69227 61.9658 8.69227C58.9811 8.69227 56.4666 9.31275 54.6944 10.4867C53.3625 11.3692 52.5885 12.4531 51.9058 13.4092C50.7901 14.9717 49.6658 15.94 47.5123 15.94H47.5121C45.3583 15.9398 44.2342 14.9713 43.1184 13.4088Z" fill="#FF9E1B"/>
<path d="M22.6456 33.5099H29.4802V23.776H22.6456C20.1307 23.776 18.0847 25.9592 18.0847 28.6427C18.0847 31.3263 20.1307 33.5099 22.6456 33.5099Z" fill="#FF9E1B"/>
<path d="M50.5638 12.4506C51.2533 11.4848 52.1978 10.1625 53.7839 9.11175C55.8272 7.75824 58.6564 7.04293 61.966 7.04293C65.3492 7.04293 68.9882 7.81369 72.2131 9.21338C76.2833 10.9802 79.4805 13.6244 81.3203 15.376C81.8423 13.2678 83.1024 11.4024 84.9474 10.0357C82.7975 7.95531 75.6777 1.75645 65.8547 0.301102C55.4163 -1.24536 49.5157 3.61399 48.337 4.70983V7.71103C50.3933 5.46781 53.0812 4.17861 56.4903 3.79024C56.9434 3.7385 57.3514 4.06378 57.4029 4.51606C57.4544 4.96854 57.1295 5.37731 56.6771 5.42885C52.9641 5.85185 50.2352 7.48531 48.337 10.4125V14.2152C49.1834 14.0418 49.7866 13.5388 50.5638 12.4506Z" fill="#FF9E1B"/>
<path d="M72.4475 23.7778C72.4246 23.7774 72.4019 23.776 72.379 23.776H36.3813V33.5099H58.0172L72.4475 23.7778Z" fill="#FF9E1B"/>
<path d="M22.6456 44.8932H40.5662V35.1591H22.6456C20.1307 35.1591 18.0847 37.3425 18.0847 40.026C18.0847 42.7096 20.1307 44.8932 22.6456 44.8932Z" fill="#FF9E1B"/>
<path d="M34.7322 23.7762H31.1293V33.5101H34.7322V23.7762Z" fill="#FF9E1B"/>
<path d="M7.52041 80.8419C10.4847 80.8419 12.8963 78.2721 12.8963 75.1136C12.8963 71.9556 10.4853 69.3862 7.52165 69.3854C7.52082 69.3854 7.52 69.3854 7.51897 69.3854C4.55528 69.3862 2.14447 71.9556 2.14447 75.1136C2.14447 78.2721 4.55611 80.8419 7.52041 80.8419Z" fill="#FF9E1B"/>
<path d="M12.3196 81.0546L11.9776 80.8116C10.764 81.8604 9.21118 82.491 7.52042 82.491C5.82986 82.491 4.277 81.8604 3.06345 80.8116L2.72147 81.0546C1.0173 82.2655 0 84.2902 0 86.4705V91.4156C0 92.1151 0.51865 92.684 1.15604 92.684C1.79342 92.684 2.31207 92.1149 2.31207 91.4156V86.628C2.31207 86.1727 2.68127 85.8035 3.13663 85.8035C3.592 85.8035 3.9612 86.1727 3.9612 86.628V99.1028C3.9612 99.9253 4.57467 100.595 5.32853 100.595C6.08238 100.595 6.69586 99.9253 6.69586 99.1028V93.5867C6.69586 93.1313 7.06505 92.7621 7.52042 92.7621C7.97578 92.7621 8.34498 93.1313 8.34498 93.5867V99.1028C8.34498 99.9253 8.95845 100.595 9.71231 100.595C10.4662 100.595 11.0796 99.9253 11.0796 99.1028V86.628C11.0796 86.1727 11.4488 85.8035 11.9042 85.8035C12.3596 85.8035 12.7288 86.1727 12.7288 86.628V91.4156C12.7288 92.1151 13.2474 92.684 13.8848 92.684C14.5222 92.684 15.0408 92.1149 15.0408 91.4156V86.4705C15.0408 84.2902 14.0235 82.2655 12.3196 81.0546Z" fill="#FF9E1B"/>
<path d="M13.1627 15.9049C14.9243 14.1469 18.338 11.1552 22.8111 9.21338C26.0361 7.81348 29.6751 7.04251 33.0579 7.04251C36.3679 7.04251 39.1974 7.75823 41.2405 9.11196C42.8259 10.1622 43.7321 11.4308 44.4604 12.45C45.2377 13.5388 45.8411 14.042 46.6877 14.2154V10.4133C44.7898 7.48551 42.0609 5.85205 38.3477 5.42905C37.8952 5.37752 37.5703 4.96895 37.6219 4.51626C37.6734 4.06358 38.0824 3.73911 38.5344 3.79044C41.9436 4.17902 44.6317 5.46822 46.6877 7.71185V4.71168C45.5047 3.62017 39.5678 -1.2398 29.1701 0.301102C19.3125 1.76161 12.1981 7.97592 10.0656 10.0456C11.7768 11.3941 12.8131 13.3576 13.1627 15.9049Z" fill="#FF9E1B"/>
<path d="M14.5455 75.1136C14.5455 75.9275 14.4175 76.71 14.1847 77.4428L86.3723 34.7917C86.598 34.6583 86.874 34.6406 87.1152 34.743C87.3564 34.8461 87.5345 35.0576 87.5945 35.313L88.3865 38.6832L100 16.6429L76.1308 18.3495L78.5249 20.4124C78.7195 20.58 78.825 20.829 78.8098 21.0856C78.7945 21.3423 78.6607 21.5771 78.4478 21.7207L41.8527 46.4007C41.8521 46.4011 41.8515 46.4015 41.8508 46.4019L9.68427 68.096C12.5022 69.0564 14.5455 71.8385 14.5455 75.1136Z" fill="#FF9E1B"/>
<path d="M71.9045 85.8156C71.9029 85.8059 71.9014 85.7964 71.8994 85.7869C71.8895 85.742 71.8759 85.6981 71.8586 85.6556C71.8546 85.6457 71.8501 85.6363 71.8456 85.6266C71.827 85.5851 71.806 85.5449 71.7808 85.5072C71.7798 85.5056 71.779 85.5039 71.778 85.5023C71.7518 85.4637 71.7213 85.4281 71.6887 85.3943C71.6817 85.387 71.6749 85.3798 71.6677 85.3728C71.6378 85.3437 71.6062 85.3161 71.5718 85.2918L64.7735 80.4716C64.4025 80.2084 63.8873 80.2958 63.6239 80.6672C63.3604 81.0387 63.448 81.5534 63.8197 81.8167L68.5063 85.1397H20.498C20.0427 85.1397 19.6735 85.5089 19.6735 85.9642C19.6735 86.4196 20.0427 86.7888 20.498 86.7888H68.5065L63.8197 90.112C63.4482 90.3752 63.3604 90.89 63.6239 91.2614C63.7847 91.4882 64.039 91.6092 64.2973 91.6092C64.4622 91.6092 64.6288 91.5599 64.7735 91.4573L71.5718 86.6369C71.6062 86.6123 71.6378 86.5847 71.6677 86.5558C71.6749 86.5488 71.6817 86.5416 71.6887 86.5342C71.7213 86.5004 71.7518 86.4647 71.7777 86.4262C71.7788 86.4245 71.7796 86.4229 71.7806 86.4212C71.8058 86.3835 71.8268 86.3431 71.8454 86.3019C71.8497 86.2922 71.8542 86.2827 71.8583 86.2728C71.8755 86.2304 71.8891 86.1867 71.8992 86.1415C71.9012 86.132 71.9027 86.1223 71.9043 86.1129C71.9132 86.0642 71.9194 86.0147 71.9194 85.9642C71.9194 85.9137 71.9134 85.8645 71.9045 85.8156Z" fill="#FF9E1B"/>
</svg>
