<svg width="242" height="214" viewBox="0 0 242 214" fill="none" xmlns="http://www.w3.org/2000/svg">
<g clip-path="url(#clip0_12_13)">
<path d="M66.7 178.7V116H51.8001V142.4H23.7V116H8.80005V178.7H23.7V153.9H51.8001V178.7H66.7ZM234.8 116H181.4V127.9H200.6V178.7H215.5V127.9H234.8V116Z" fill="black"/>
<path d="M83.3 119.1C78.2 121.9 74.1 125.8 71.1 130.6C68.2 135.5 66.7 141 66.7 147.1C66.7 153.2 68.2 158.8 71.1 163.8C74 168.8 78.1 172.7 83.3 175.5C88.4 178.3 94.3 179.8 100.7 179.8C107.1 179.8 112.9 178.4 118.1 175.5C123.2 172.6 127.3 168.7 130.3 163.8C133.2 158.9 134.7 153.3 134.7 147.1C134.7 141 133.2 135.5 130.3 130.6C127.4 125.7 123.3 121.8 118.1 119.1C112.9 116.3 107.1 114.9 100.7 114.9C94.3 114.9 88.5 116.4 83.3 119.1ZM110.2 129.9C113 131.6 115.3 134.1 116.9 137.2C118.5 140.3 119.3 143.7 119.3 147.3C119.3 151 118.5 154.5 116.9 157.5C115.3 160.6 113 163 110.2 164.8C107.4 166.6 104.2 167.5 100.8 167.5C97.4 167.5 94.2999 166.6 91.3999 164.8C88.5999 163 86.3 160.6 84.5 157.5C82.8 154.4 81.8999 151 81.8999 147.3C81.8999 143.6 82.6999 140.2 84.3999 137.2C86.0999 134.1 88.4 131.7 91.3 129.9C94.2 128.2 97.4 127.3 100.7 127.3C104.3 127.2 107.4 128.1 110.2 129.9Z" fill="#B2B2B2"/>
<path d="M179.8 150.6C177.8 148.1 175.4 146.2 172.7 144.9C169.8 143.6 166.1 142.3 161.7 141.1C158.6 140.2 156.3 139.4 154.8 138.8C153.1 138.2 151.7 137.3 150.6 136.3C149.3 135.2 148.7 133.7 148.7 132C148.7 130.2 149.5 128.7 151 127.8C154 125.9 159.3 126.1 166.6 128.5C170.2 129.7 173.7 131.2 176.9 133L182.4 121.3C179.2 119.4 175.5 117.8 171.4 116.6C167 115.3 162.4 114.7 157.8 114.7C152.8 114.7 148.3 115.5 144.6 117.1C140.9 118.6 138 120.9 136 123.7C134 126.5 133 129.9 133 133.6C133 135.2 133.2 136.7 133.5 138.1C133.6 138.4 133.7 138.8 133.8 139.1C134.3 140.7 135 142 135.9 143.2C137.9 145.6 140.2 147.4 143 148.6C145.8 149.8 149.5 151.1 153.9 152.3C156.9 153.1 159.2 153.8 160.8 154.4C162.5 155 164 155.9 165.2 157C166.5 158.2 167.1 159.7 167.1 161.4C167.1 163.5 166.2 165.2 164.5 166.3C162.9 167.3 160.7 167.8 158 167.8C154.4 167.8 150.3 166.8 145.8 165C142.5 163.6 137.2 160.3 133.3 157.5C132.6 159.7 131.6 161.9 130.4 163.9C129.4 165.5 128.3 167 127.1 168.4C131.5 171.6 138.1 175.5 142.2 177C147.4 178.8 152.7 179.8 157.9 179.8C162.6 179.8 166.9 179 170.8 177.6C174.6 176.1 177.6 173.9 179.7 171.1C181.8 168.2 182.9 164.7 182.9 160.7C182.8 156.4 181.8 153.1 179.8 150.6Z" fill="black"/>
<path d="M146.7 4.79999C168.5 29.5 173.4 60.2 163.6 91.3C183.1 85.9 199.5 77.9 213.9 63.7C214.3 51.2 212.2 39.5 205.5 29.3C190.1 19.2 170.3 11.1 146.7 4.79999Z" fill="#E1232B"/>
<path d="M90.2001 4.79999C112 29.5 116.9 60.2 107.1 91.3C126.6 85.9 143 77.9 157.4 63.7C157.8 51.2 155.7 39.5 149 29.3C133.5 19.2 113.7 11.1 90.2001 4.79999Z" fill="#E1232B"/>
<path d="M34.9 4.79999C56.7 29.5 61.6 60.2 51.8 91.3C71.3 85.9 87.7 77.9 102.1 63.7C102.5 51.2 100.4 39.5 93.7 29.3C78.2 19.2 58.4 11.1 34.9 4.79999Z" fill="#E1232B"/>
<path d="M8.80005 192.8H10.8001V199.4H19.2V192.8H21.2V207.5H19.2V201.2H10.8001V207.5H8.80005V192.8ZM33.1 197C34 197.5 34.6 198.1 35.1 199C35.6 199.8 35.8001 200.8 35.8001 201.9C35.8001 203 35.6 204 35.1 204.8C34.6 205.7 33.9 206.3 33.1 206.8C32.2 207.3 31.3 207.5 30.1 207.5C29 207.5 28 207.3 27.1 206.8C26.2 206.3 25.6 205.7 25.1 204.8C24.6 204 24.4001 203 24.4001 201.9C24.4001 200.8 24.6 199.8 25.1 199C25.6 198.2 26.3 197.5 27.1 197C28 196.5 29 196.3 30.1 196.3C31.2 196.3 32.2 196.5 33.1 197ZM28.2 198.5C27.6 198.8 27.2001 199.3 26.9001 199.9C26.6001 200.5 26.4001 201.2 26.4001 201.9C26.4001 202.7 26.6001 203.4 26.9001 204C27.2001 204.6 27.7 205.1 28.2 205.4C28.8 205.7 29.4 205.9 30.1 205.9C30.8 205.9 31.5 205.7 32 205.4C32.6 205.1 33.0001 204.6 33.3001 204C33.6001 203.4 33.8001 202.7 33.8001 201.9C33.8001 201.1 33.6001 200.5 33.3001 199.9C33.0001 199.3 32.5 198.8 32 198.5C31.4 198.2 30.8 198 30.1 198C29.4 198 28.7 198.2 28.2 198.5ZM43.6 198C42.9 198 42.2 198.2 41.7 198.5C41.1 198.8 40.7001 199.3 40.4001 199.9C40.1001 200.5 39.9001 201.2 39.9001 201.9C39.9001 202.7 40.1001 203.3 40.4001 203.9C40.7001 204.5 41.1 204.9 41.7 205.3C42.3 205.6 42.9 205.8 43.6 205.8C44.3 205.8 45 205.7 45.5 205.4C46.1 205.2 46.5001 204.8 46.9001 204.4L48 205.5C47.5 206.1 46.9 206.6 46.1 206.9C45.3 207.2 44.4 207.4 43.5 207.4C42.4 207.4 41.5 207.2 40.6 206.7C39.8 206.2 39.1 205.6 38.6 204.7C38.1 203.9 37.9001 202.9 37.9001 201.8C37.9001 200.7 38.1 199.7 38.6 198.9C39.1 198.1 39.7 197.4 40.6 196.9C41.4 196.4 42.4 196.2 43.5 196.2C44.4 196.2 45.3 196.3 46 196.6C46.7 196.9 47.4001 197.3 47.9001 197.8L46.8001 199.1C45.8001 198.5 44.8 198 43.6 198ZM59.9001 197.4C60.6001 198.2 61 199.2 61 200.6V207.5H59V201.2C59 200.3 58.7 199.5 58.2 199C57.7 198.5 57 198.2 56 198.2C54.9 198.2 54.1001 198.6 53.4001 199.3C52.8001 200 52.5 200.9 52.5 202.1V207.6H50.5V192H52.5V198.9C53.2 197.3 54.7 196.5 56.7 196.4C58.2 196.3 59.2001 196.7 59.9001 197.4ZM69.4001 198.1C68.8001 197.9 68.3001 197.8 67.8001 197.8C67.2001 197.8 66.7001 197.9 66.4001 198.1C66.0001 198.3 65.9001 198.6 65.9001 199.1C65.9001 199.6 66.1 199.9 66.5 200.1C66.9 200.3 67.5001 200.6 68.3001 200.8C69.1001 201 69.7 201.2 70.2 201.5C70.7 201.7 71.1 202.1 71.5 202.5C71.8 202.9 72 203.5 72 204.2C72 205.3 71.6001 206 70.8001 206.6C70.0001 207.1 69.0001 207.4 67.8001 207.4C67.0001 207.4 66.2001 207.3 65.4001 207C64.6001 206.7 64.0001 206.4 63.4001 205.9L64.1 204.5C64.6 204.9 65.1001 205.3 65.8001 205.5C66.5001 205.8 67.1001 205.9 67.8001 205.9C68.4001 205.9 69.0001 205.8 69.4001 205.5C69.8001 205.3 70 204.9 70 204.4C70 203.9 69.8001 203.5 69.4001 203.3C69.0001 203.1 68.4 202.8 67.5 202.5C66.8 202.3 66.2 202.1 65.7 201.9C65.2 201.7 64.8 201.4 64.5 200.9C64.2 200.5 64 199.9 64 199.3C64 198.3 64.4 197.5 65.1 197C65.9 196.5 66.8001 196.2 67.9001 196.2C68.6001 196.2 69.2001 196.3 69.9001 196.5C70.6001 196.7 71.1 196.9 71.6 197.3L70.9001 198.8C70.4001 198.5 69.9001 198.3 69.4001 198.1ZM79.5 198C78.8 198 78.1001 198.2 77.6001 198.5C77.0001 198.8 76.6 199.3 76.3 199.9C76 200.5 75.8 201.2 75.8 201.9C75.8 202.7 76 203.3 76.3 203.9C76.6 204.5 77.0001 204.9 77.6001 205.3C78.2001 205.6 78.8 205.8 79.5 205.8C80.2 205.8 80.9 205.7 81.4 205.4C82 205.2 82.4 204.8 82.8 204.4L83.9 205.5C83.4 206.1 82.8 206.6 82 206.9C81.2 207.2 80.3 207.4 79.4 207.4C78.3 207.4 77.4 207.2 76.5 206.7C75.7 206.2 75 205.6 74.5 204.7C74 203.9 73.8 202.9 73.8 201.8C73.8 200.7 74 199.7 74.5 198.9C75 198.1 75.6 197.4 76.5 196.9C77.3 196.4 78.3 196.2 79.4 196.2C80.3 196.2 81.2 196.3 81.9 196.6C82.6 196.9 83.3 197.3 83.8 197.8L82.7 199.1C81.8 198.5 80.7 198 79.5 198ZM95.9 197.4C96.6 198.2 97 199.2 97 200.6V207.5H95V201.2C95 200.3 94.7 199.5 94.2 199C93.7 198.5 93 198.2 92 198.2C90.9 198.2 90.1 198.6 89.4 199.3C88.8 200 88.5 200.9 88.5 202.1V207.6H86.5V192H88.5V198.9C89.2 197.3 90.7 196.5 92.7 196.4C94.1 196.3 95.1 196.7 95.9 197.4ZM110.4 196.4V207.5H108.4V205.1C107.7 206.7 106.3 207.5 104.3 207.5C103 207.5 102 207.1 101.3 206.4C100.6 205.6 100.2 204.6 100.2 203.2V196.3H102.2V202.6C102.2 203.5 102.5 204.3 103 204.8C103.5 205.3 104.2 205.6 105.1 205.6C106.1 205.6 107 205.2 107.6 204.5C108.2 203.8 108.5 202.9 108.5 201.7V196.2H110.4V196.4ZM114.2 191.9H116.2V207.5H114.2V191.9ZM128.6 197.8C129.5 198.8 129.9 200.2 129.9 202V202.6H121.1C121.3 203.6 121.7 204.4 122.4 205C123.1 205.6 123.9 205.9 124.9 205.9C125.6 205.9 126.2 205.8 126.7 205.5C127.3 205.3 127.8 204.9 128.2 204.5L129.3 205.6C128.8 206.2 128.1 206.6 127.3 207C126.5 207.4 125.7 207.5 124.7 207.5C123.6 207.5 122.6 207.3 121.8 206.8C121 206.3 120.3 205.7 119.8 204.8C119.3 203.9 119.1 203 119.1 201.9C119.1 200.8 119.3 199.8 119.8 199C120.3 198.2 120.9 197.5 121.8 197C122.6 196.5 123.6 196.3 124.7 196.3C126.4 196.3 127.7 196.8 128.6 197.8ZM128.1 201.2C128 200.2 127.7 199.4 127.1 198.8C126.5 198.2 125.7 197.9 124.7 197.9C123.7 197.9 122.9 198.2 122.3 198.8C121.7 199.4 121.3 200.2 121.1 201.2H128.1ZM145.6 194.9C144.9 194.7 144.2 194.6 143.6 194.6C142.7 194.6 142.1 194.8 141.6 195.1C141.1 195.4 140.8 195.9 140.8 196.5C140.8 197 141 197.4 141.3 197.8C141.6 198.2 142 198.4 142.4 198.6C142.8 198.8 143.5 199 144.3 199.3C145.3 199.6 146.1 199.9 146.7 200.2C147.3 200.5 147.8 200.9 148.3 201.5C148.7 202.1 149 202.8 149 203.7C149 204.5 148.8 205.3 148.3 205.9C147.8 206.5 147.2 207 146.4 207.4C145.6 207.7 144.6 207.9 143.6 207.9C142.5 207.9 141.5 207.7 140.4 207.3C139.4 206.9 138.5 206.3 137.8 205.6L138.7 203.9C139.4 204.6 140.2 205.1 141.1 205.5C142 205.9 142.8 206.1 143.7 206.1C144.7 206.1 145.5 205.9 146 205.5C146.6 205.1 146.9 204.6 146.9 203.9C146.9 203.4 146.7 203 146.4 202.6C146.1 202.2 145.7 202 145.2 201.8C144.7 201.6 144.1 201.4 143.3 201.1C142.3 200.8 141.5 200.5 140.9 200.2C140.3 199.9 139.8 199.5 139.3 199C138.8 198.5 138.7 197.7 138.7 196.8C138.7 196 138.9 195.3 139.4 194.7C139.8 194.1 140.4 193.6 141.2 193.3C142 193 142.9 192.8 143.9 192.8C144.8 192.8 145.6 192.9 146.5 193.2C147.3 193.5 148.1 193.8 148.8 194.2L148 196C147.1 195.4 146.4 195.1 145.6 194.9ZM157.7 206.7C156.8 207.2 156 207.5 155.1 207.5C154.2 207.5 153.5 207.2 153 206.7C152.5 206.2 152.2 205.4 152.2 204.3V198.1H150.6V196.6H152.2V193.6H154.2V196.6H157.6V198.1H154.2V203.9C154.2 204.5 154.3 205 154.5 205.2C154.7 205.5 155.1 205.6 155.5 205.6C156 205.6 156.6 205.4 157.2 205.1L157.7 206.7ZM163.7 196.9C164.4 196.5 165.2 196.3 166.1 196.3V198.2C165 198.2 164 198.5 163.3 199.1C162.6 199.7 162.2 200.6 162.1 201.6V207.5H160.1V196.4H162.1V198.8C162.5 198 163 197.4 163.7 196.9ZM175.3 207.5V205.9C174.5 207 173.2 207.5 171.4 207.5C170.6 207.5 170 207.4 169.4 207.1C168.8 206.8 168.4 206.4 168.1 205.9C167.8 205.4 167.6 204.8 167.6 204.2C167.6 203.2 168 202.4 168.7 201.8C169.4 201.2 170.5 200.9 171.8 200.9H175.3V200.4C175.3 199.6 175.1 199 174.6 198.6C174.1 198.2 173.4 198 172.5 198C171.4 198 170.2 198.4 169.1 199.2L168.3 197.9C169.1 197.4 169.8 197 170.5 196.8C171.2 196.6 172 196.5 172.9 196.5C174.3 196.5 175.4 196.8 176.1 197.5C176.8 198.2 177.2 199.1 177.3 200.3V207.6H175.3V207.5ZM174.1 205.3C174.7 204.9 175.1 204.3 175.2 203.5V202.4H172C171.1 202.4 170.5 202.5 170 202.8C169.6 203.1 169.4 203.5 169.4 204.1C169.4 204.7 169.6 205.1 170.1 205.5C170.6 205.9 171.1 206 171.8 206C172.7 205.9 173.5 205.7 174.1 205.3ZM180.8 191.9H182.8V207.5H180.8V191.9ZM191.4 198.1C190.8 197.9 190.3 197.8 189.8 197.8C189.2 197.8 188.7 197.9 188.4 198.1C188 198.3 187.9 198.6 187.9 199.1C187.9 199.6 188.1 199.9 188.5 200.1C188.9 200.3 189.5 200.6 190.3 200.8C191.1 201 191.7 201.2 192.2 201.5C192.7 201.7 193.1 202.1 193.5 202.5C193.8 202.9 194 203.5 194 204.2C194 205.3 193.6 206 192.8 206.6C192 207.1 191 207.4 189.8 207.4C189 207.4 188.2 207.3 187.4 207C186.6 206.7 186 206.4 185.4 205.9L186.1 204.5C186.6 204.9 187.1 205.3 187.8 205.5C188.5 205.8 189.1 205.9 189.8 205.9C190.4 205.9 191 205.8 191.4 205.5C191.8 205.3 192 204.9 192 204.4C192 203.9 191.8 203.5 191.4 203.3C191 203.1 190.4 202.8 189.5 202.5C188.8 202.3 188.2 202.1 187.7 201.9C187.2 201.7 186.8 201.4 186.5 200.9C186.2 200.5 186 199.9 186 199.3C186 198.3 186.4 197.5 187.1 197C187.9 196.5 188.8 196.2 189.9 196.2C190.6 196.2 191.2 196.3 191.9 196.5C192.6 196.7 193.1 196.9 193.6 197.3L192.9 198.8C192.4 198.5 191.9 198.3 191.4 198.1ZM206.6 196.4V207.5H204.6V205.1C203.9 206.7 202.5 207.5 200.5 207.5C199.2 207.5 198.2 207.1 197.5 206.4C196.8 205.6 196.4 204.6 196.4 203.2V196.3H198.4V202.6C198.4 203.5 198.7 204.3 199.2 204.8C199.7 205.3 200.4 205.6 201.3 205.6C202.3 205.6 203.2 205.2 203.8 204.5C204.4 203.8 204.7 202.9 204.7 201.7V196.2H206.6V196.4ZM219.5 197.4C220.2 198.2 220.6 199.2 220.6 200.6V207.5H218.6V201.2C218.6 200.3 218.3 199.5 217.8 199C217.3 198.5 216.6 198.2 215.6 198.2C214.6 198.2 213.8 198.5 213.2 199.2C212.6 199.8 212.2 200.6 212.1 201.6V207.5H210.1V196.4H212.1V198.8C212.8 197.2 214.2 196.4 216.3 196.4C217.8 196.3 218.8 196.7 219.5 197.4ZM234.8 191.9V207.5H232.8V205.3C232.4 206 231.8 206.6 231.1 207C230.4 207.4 229.6 207.6 228.6 207.6C227.5 207.6 226.6 207.4 225.8 206.9C225 206.4 224.4 205.7 223.9 204.9C223.5 204 223.2 203.1 223.2 201.9C223.2 200.8 223.4 199.8 223.9 199C224.3 198.2 225 197.5 225.8 197C226.6 196.5 227.5 196.3 228.6 196.3C229.6 196.3 230.4 196.5 231.1 196.9C231.8 197.3 232.4 197.9 232.8 198.6V191.9H234.8ZM231 205.4C231.6 205.1 232 204.6 232.3 204C232.6 203.4 232.8 202.7 232.8 202C232.8 201.2 232.6 200.5 232.3 199.9C232 199.3 231.5 198.8 231 198.5C230.4 198.2 229.8 198 229.1 198C228.4 198 227.7 198.2 227.2 198.5C226.6 198.8 226.2 199.3 225.9 199.9C225.6 200.5 225.4 201.2 225.4 201.9C225.4 202.7 225.6 203.3 225.9 203.9C226.2 204.5 226.7 205 227.2 205.3C227.8 205.6 228.4 205.8 229.1 205.8C229.8 205.8 230.5 205.7 231 205.4Z" fill="black"/>
</g>
<defs>
<clipPath id="clip0_12_13">
<rect width="242" height="214" fill="white"/>
</clipPath>
</defs>
</svg>
