<svg width="257" height="66" viewBox="0 0 257 66" fill="none" xmlns="http://www.w3.org/2000/svg">
<g clip-path="url(#clip0_78_16)">
<path d="M245.009 12.8007H207.527V14.8733H245.009V12.8007Z" fill="#2679D9"/>
<path d="M210.839 16.9873H210.588V19.0599H210.839H212.684V45.6301V47.4126H217.212C219.308 47.4126 221.321 48.0342 223.04 49.1949L226.478 51.4748L229.161 49.4851C230.964 48.1586 233.186 47.4126 235.408 47.4126H239.768V45.6301V19.0599H241.865H242.116V16.9873H241.865H210.839ZM227.903 47.7855L226.436 48.9047L224.256 47.4539C222.159 46.0447 219.77 45.3399 217.254 45.3399H214.864V38.8321H217.212C219.308 38.8321 221.321 39.4539 223.04 40.6146L226.478 42.8943L229.161 40.9046C230.964 39.5782 233.186 38.8321 235.408 38.8321H237.672V45.3399H235.408C232.725 45.2985 230.041 46.2104 227.903 47.7855ZM225.22 30.7906V39.4954L224.214 38.8321C223.627 38.4176 222.956 38.086 222.327 37.7958V30.7906H225.22ZM227.316 30.7906H230.041V37.7958H230.293C229.454 38.169 228.658 38.6249 227.903 39.1637L227.316 39.5782V30.7906ZM237.672 36.7181H235.408C234.276 36.7181 233.186 36.8839 232.138 37.174V30.8321H235.995V28.7595H216.374V30.8321H220.231V37.0912C219.267 36.8424 218.26 36.7181 217.212 36.7181H214.822V19.0185H237.672V36.7181Z" fill="#2679D9"/>
<path d="M222.788 21.7956L222.704 22.5416H221.698V25.8163H220.734V22.5416H219.728V21.7956H222.788ZM225.262 21.837C225.471 21.9198 225.681 22.0443 225.891 22.21L225.429 22.7075C225.136 22.5002 224.843 22.3759 224.549 22.3759C224.381 22.3759 224.256 22.4174 224.172 22.4587C224.088 22.5416 224.046 22.6246 224.046 22.7489C224.046 22.8318 224.088 22.9147 224.13 22.9562C224.172 22.9977 224.256 23.0805 224.339 23.122C224.465 23.1634 224.591 23.2464 224.843 23.2877C225.262 23.4121 225.555 23.5779 225.765 23.7852C225.974 23.9925 226.058 24.2412 226.058 24.6143C226.058 24.863 225.974 25.0702 225.849 25.2774C225.723 25.4847 225.555 25.6091 225.304 25.7333C225.052 25.8578 224.759 25.8992 224.465 25.8992C224.13 25.8992 223.836 25.8578 223.585 25.7333C223.333 25.6091 223.124 25.4847 222.914 25.3189L223.417 24.78C223.585 24.9043 223.752 25.0287 223.878 25.0702C224.046 25.1531 224.214 25.1531 224.423 25.1531C224.633 25.1531 224.759 25.1117 224.884 25.0287C225.01 24.9458 225.052 24.8215 225.052 24.6556C225.052 24.5728 225.01 24.4899 224.968 24.4069C224.926 24.3241 224.843 24.2826 224.759 24.2412C224.633 24.1997 224.507 24.1168 224.297 24.0754C223.836 23.951 223.543 23.7852 223.333 23.5779C223.165 23.3707 223.04 23.122 223.04 22.8318C223.04 22.5831 223.082 22.4174 223.207 22.21C223.333 22.0443 223.501 21.9198 223.711 21.7956C223.92 21.7126 224.172 21.6711 224.465 21.6711C224.801 21.7126 225.052 21.7541 225.262 21.837ZM229.706 24.4899C229.706 24.78 229.664 24.9873 229.538 25.236C229.412 25.4433 229.245 25.6091 228.993 25.7333C228.742 25.8578 228.448 25.8992 228.113 25.8992C227.61 25.8992 227.19 25.7748 226.939 25.5261C226.687 25.2774 226.52 24.9043 226.52 24.4899V21.837H227.484V24.4484C227.484 24.6971 227.526 24.9043 227.652 25.0287C227.735 25.1531 227.903 25.236 228.113 25.236C228.322 25.236 228.49 25.1531 228.574 25.0287C228.658 24.9043 228.742 24.6971 228.742 24.4484V21.837H229.706V24.4899ZM233.018 21.7956L232.934 22.4587H231.509V23.4121H232.767V24.0754H231.509V25.1117H233.018V25.7748H230.544V21.7956H233.018Z" fill="#144276"/>
<path d="M226.017 64.9877C221.028 64.9877 215.997 63.6198 211.595 60.8425C203.712 55.9098 199.101 47.1636 199.101 37.9615V1.11145H252.975V38.3761C252.975 47.6611 247.986 56.3659 239.978 61.1742C235.66 63.7027 230.838 64.9877 226.017 64.9877ZM201.197 3.18401V38.3761C201.197 46.9149 205.809 54.998 213.188 59.3918C221.112 64.1172 230.964 64.1172 238.888 59.3918C246.309 54.9565 250.879 46.9149 250.879 38.3761V3.18401H201.197Z" fill="#2679D9"/>
<path d="M205.556 14.1271L204.844 14.0443V13.2981H202.328V12.3447H204.844V11.5571H205.556V14.1271Z" fill="#144276"/>
<path d="M202.328 16.324L202.957 16.1998V15.4537L202.328 15.3293V14.3345L205.556 15.2878V16.407L202.328 17.3604V16.324ZM203.628 15.578V16.0753L204.886 15.8267L203.628 15.578Z" fill="#144276"/>
<path d="M205.18 20.3863L204.677 19.9718C204.845 19.7645 204.928 19.5158 204.928 19.2671C204.928 19.1427 204.928 19.0599 204.886 19.0185C204.845 18.977 204.803 18.9355 204.719 18.9355C204.677 18.9355 204.635 18.9355 204.593 18.977C204.551 19.0185 204.509 19.0599 204.509 19.1427C204.467 19.2257 204.425 19.3501 204.383 19.5158C204.258 19.8475 204.132 20.0962 203.964 20.2619C203.796 20.4278 203.587 20.4693 203.293 20.4693C203.084 20.4693 202.916 20.4278 202.748 20.3034C202.581 20.1791 202.455 20.0547 202.371 19.8475C202.287 19.6403 202.245 19.3916 202.245 19.1427C202.245 18.8527 202.287 18.6039 202.371 18.3967C202.455 18.1894 202.581 17.9822 202.706 17.8578L203.209 18.3137C203 18.5625 202.916 18.8112 202.916 19.1014C202.916 19.2257 202.958 19.3501 203 19.3916C203.042 19.4744 203.126 19.4744 203.209 19.4744C203.293 19.4744 203.335 19.4744 203.377 19.4329C203.419 19.3916 203.461 19.3501 203.503 19.2671C203.545 19.1842 203.587 19.1014 203.629 18.9355C203.754 18.5625 203.88 18.3138 204.048 18.148C204.216 17.9822 204.425 17.9407 204.677 17.9407C204.886 17.9407 205.054 17.9822 205.18 18.1065C205.348 18.2309 205.431 18.3552 205.515 18.5625C205.599 18.7698 205.641 18.977 205.641 19.1842C205.641 19.6816 205.473 20.0547 205.18 20.3863Z" fill="#144276"/>
<path d="M202.328 22.9976H203.628V22.2515H202.328V21.2981H205.556V22.2515H204.382V22.9976H205.556V23.9509H202.328V22.9976Z" fill="#144276"/>
<path d="M205.556 25.8579H202.328V24.9045H205.556V25.8579ZM205.556 27.7646L204.131 26.8526L202.328 27.8476V26.7698L204.047 25.8993L205.556 26.8113V27.7646Z" fill="#144276"/>
<path d="M205.556 30.6661L204.886 30.5832V29.5054H204.299V30.4588H203.67V29.5054H203.041V30.6246H202.37V28.552H205.598V30.6661H205.556Z" fill="#144276"/>
<path d="M202.328 34.148V32.946L204.676 32.2412H204.592C204.382 32.2827 204.173 32.2827 203.963 32.3242C203.796 32.3242 203.586 32.3657 203.334 32.3657H202.328V31.5366H205.556V32.6973L203.209 33.4434H203.292C203.502 33.4019 203.712 33.3604 203.879 33.3604C204.047 33.3604 204.257 33.319 204.508 33.319H205.556V34.148H202.328Z" fill="#144276"/>
<path d="M205.556 37.5055L204.844 37.4225V36.6764H202.328V35.723H204.844V34.9354H205.556V37.5055Z" fill="#144276"/>
<path d="M206.06 44.6766L205.473 44.3864C205.598 44.1377 205.598 43.889 205.556 43.6403C205.515 43.516 205.473 43.4331 205.431 43.3916C205.389 43.3502 205.305 43.3087 205.263 43.3501C205.221 43.3501 205.179 43.3916 205.137 43.4331C205.095 43.4746 205.095 43.516 205.095 43.5988C205.095 43.6818 205.053 43.8062 205.053 43.972C205.011 44.3451 204.97 44.5938 204.844 44.7595C204.718 44.9254 204.508 45.0497 204.257 45.1326C204.047 45.1741 203.879 45.1741 203.67 45.0911C203.502 45.0082 203.334 44.8839 203.209 44.718C203.083 44.5523 202.957 44.3036 202.915 44.0549C202.831 43.7647 202.831 43.516 202.873 43.3087C202.915 43.06 202.999 42.8942 203.083 42.687L203.712 43.0186C203.586 43.3087 203.544 43.5988 203.586 43.8475C203.628 43.972 203.67 44.0549 203.754 44.1377C203.838 44.2206 203.879 44.2206 203.963 44.1792C204.005 44.1792 204.089 44.1377 204.089 44.0964C204.089 44.0549 204.131 44.0134 204.173 43.9305C204.173 43.8477 204.215 43.7233 204.215 43.5988C204.257 43.2259 204.299 42.9357 204.424 42.7285C204.55 42.5211 204.718 42.4383 204.97 42.3554C205.179 42.3139 205.347 42.3139 205.515 42.3968C205.682 42.4798 205.85 42.6041 205.934 42.7698C206.06 42.9357 206.143 43.1429 206.185 43.3501C206.311 43.889 206.269 44.3036 206.06 44.6766Z" fill="#144276"/>
<path d="M207.402 47.2051L206.689 47.371L206.437 46.7077L204.131 47.6197L203.796 46.7492L206.102 45.8372L205.808 45.0911L206.479 44.8424L207.402 47.2051Z" fill="#144276"/>
<path d="M205.473 50.314L205.976 49.8994L205.599 49.2363L205.012 49.4435L204.509 48.573L207.779 47.8684L208.324 48.8632L205.976 51.2259L205.473 50.314ZM206.228 49.0291L206.479 49.4435L207.444 48.6145L206.228 49.0291Z" fill="#144276"/>
<path d="M210.252 51.5575L209.623 51.8892L209.204 51.3088L207.191 52.7597L206.604 52.0136L208.617 50.5627L208.156 49.9409L208.743 49.5265L210.252 51.5575Z" fill="#144276"/>
<path d="M211.972 53.3399L211.427 53.7129L210.672 52.9668L210.253 53.3812L210.923 54.0445L210.462 54.5004L209.791 53.8373L209.33 54.2932L210.127 55.1222L209.666 55.5781L208.198 54.086L210.504 51.889L211.972 53.3399Z" fill="#144276"/>
<path d="M217.129 59.0602C217.045 59.2674 216.877 59.4333 216.71 59.5161C216.542 59.5991 216.332 59.682 216.123 59.682C215.913 59.682 215.661 59.6405 215.368 59.4748C214.949 59.2674 214.697 59.0187 214.613 58.7701C214.487 58.4799 214.529 58.1897 214.697 57.8581L215.619 55.9928L216.5 56.4074L215.577 58.2727C215.494 58.4384 215.452 58.5628 215.494 58.6871C215.536 58.8115 215.578 58.853 215.703 58.9358C215.829 58.9773 215.913 59.0187 216.039 58.9358C216.123 58.8945 216.206 58.77 216.29 58.6043L217.213 56.739L218.093 57.1535L217.129 59.0602Z" fill="#144276"/>
<path d="M220.021 61.1743L218.889 60.8012L218.931 58.397V58.4798C218.889 58.6872 218.848 58.8944 218.806 59.1016C218.764 59.3089 218.722 59.4747 218.638 59.7234L218.344 60.6767L217.548 60.428L218.512 57.4022L219.644 57.7752V60.2208V60.1379C219.686 59.9307 219.686 59.7234 219.728 59.5577C219.77 59.3918 219.812 59.1846 219.896 58.9359L220.189 57.9824L220.986 58.2311L220.021 61.1743Z" fill="#144276"/>
<path d="M222.579 58.4385L221.992 61.5474L221.027 61.3815L221.614 58.2727L222.579 58.4385Z" fill="#144276"/>
<path d="M225.807 58.77L224.717 61.8789L223.459 61.7959L222.83 58.5627L223.836 58.6457L224.13 61.2156L224.759 58.7285L225.807 58.77Z" fill="#144276"/>
<path d="M228.197 58.6456L228.113 59.3088L227.023 59.3502L227.065 59.9306L228.029 59.8891L228.071 60.5109L227.107 60.5524L227.149 61.1742L228.281 61.1327L228.323 61.7959L226.226 61.9203L226.059 58.7699L228.197 58.6456Z" fill="#144276"/>
<path d="M230.168 60.3867L230 60.4282L230.209 61.5474L229.245 61.7132L228.658 58.6043L229.832 58.397C230.293 58.3141 230.671 58.3141 230.922 58.4385C231.174 58.5628 231.341 58.7701 231.425 59.1431C231.467 59.3505 231.467 59.5162 231.383 59.6406C231.3 59.8064 231.216 59.9307 231.006 60.0966L232.012 61.2158L230.964 61.423L230.168 60.3867ZM229.874 59.8064L230.126 59.7649C230.251 59.7235 230.335 59.682 230.377 59.5992C230.419 59.5162 230.461 59.4333 230.419 59.2675C230.377 59.0188 230.209 58.9359 229.916 58.9774L229.706 59.0188L229.874 59.8064Z" fill="#144276"/>
<path d="M233.982 57.5679L233.731 58.1483C233.479 58.0653 233.228 58.0653 232.976 58.1483C232.85 58.1897 232.808 58.2312 232.766 58.2725C232.724 58.314 232.724 58.3969 232.724 58.4799C232.724 58.5212 232.766 58.5627 232.808 58.6042C232.85 58.6456 232.892 58.6456 232.976 58.6456C233.06 58.6456 233.186 58.6456 233.353 58.6456C233.731 58.6456 233.982 58.6871 234.192 58.7701C234.402 58.8943 234.527 59.0601 234.611 59.3089C234.695 59.5161 234.695 59.6819 234.611 59.8892C234.527 60.0965 234.443 60.2208 234.276 60.3866C234.108 60.5524 233.898 60.6353 233.647 60.7596C233.395 60.8426 233.102 60.884 232.892 60.884C232.641 60.884 232.431 60.8011 232.263 60.7182L232.557 60.0965C232.85 60.2208 233.144 60.2208 233.395 60.1379C233.521 60.0965 233.605 60.055 233.647 59.9721C233.689 59.8891 233.689 59.8063 233.689 59.7234C233.689 59.6819 233.647 59.5991 233.605 59.5991C233.563 59.5576 233.521 59.5576 233.437 59.5161C233.353 59.5161 233.228 59.5161 233.102 59.5161C232.724 59.5161 232.431 59.4747 232.221 59.3917C232.012 59.2674 231.886 59.1016 231.802 58.8943C231.718 58.6871 231.718 58.5214 231.802 58.3555C231.886 58.1897 231.97 58.0238 232.138 57.8996C232.305 57.7751 232.473 57.6509 232.724 57.5679C233.186 57.4022 233.605 57.4022 233.982 57.5679Z" fill="#144276"/>
<path d="M235.282 56.5731L236.623 59.4332L235.743 59.8478L234.401 56.9876L235.282 56.5731Z" fill="#144276"/>
<path d="M237.923 55.0808L238.217 55.7441L237.588 56.1171L238.888 58.231L238.049 58.7286L236.749 56.6145L236.079 57.029L235.701 56.4487L237.923 55.0808Z" fill="#144276"/>
<path d="M240.314 53.1741L240.775 55.371L241.529 56.2828L240.775 56.9046L240.02 55.9927L237.924 55.0808L238.72 54.4176L239.936 55.1223L239.475 53.7958L240.314 53.1741Z" fill="#144276"/>
<path d="M244.716 47.8269C245.093 47.744 245.512 47.8268 245.974 48.1169C246.267 48.2828 246.519 48.49 246.686 48.6973C246.854 48.9046 246.938 49.1533 246.938 49.4435C246.938 49.6922 246.854 49.9823 246.686 50.231C246.435 50.6455 246.141 50.8942 245.722 50.9771C245.345 51.0601 244.883 50.9771 244.422 50.687C244.129 50.5212 243.877 50.3139 243.71 50.1066C243.542 49.8994 243.458 49.6507 243.458 49.3605C243.458 49.1118 243.542 48.8217 243.71 48.573C244.045 48.1584 244.338 47.9097 244.716 47.8269ZM244.38 49.3605C244.464 49.5263 244.674 49.6507 245.009 49.8579C245.345 50.0237 245.596 50.1481 245.764 50.1481C245.932 50.1481 246.057 50.0652 246.183 49.9409C246.267 49.775 246.267 49.6092 246.183 49.4848C246.099 49.3191 245.89 49.1947 245.554 48.9874C245.219 48.8217 244.967 48.6973 244.8 48.6973C244.632 48.6973 244.506 48.7802 244.38 48.9046C244.296 49.0704 244.296 49.2361 244.38 49.3605Z" fill="#144276"/>
<path d="M247.735 48.117L244.758 46.9563L245.512 45.0496L246.099 45.3812L245.722 46.293L246.393 46.5417L246.728 45.7127L247.357 45.9615L247.022 46.7906L248.112 47.2465L247.735 48.117Z" fill="#144276"/>
<path d="M246.56 38.5004L247.231 38.6247L247.189 39.7024L247.776 39.7438L247.818 38.7904L248.447 38.8319L248.405 39.7853L249.034 39.8268L249.076 38.7076L249.747 38.7491L249.663 40.8216L246.477 40.6972L246.56 38.5004Z" fill="#144276"/>
<path d="M246.812 35.3915L247.315 35.8475C247.231 35.9303 247.189 36.0133 247.147 36.1377C247.105 36.262 247.105 36.3034 247.105 36.4279C247.105 36.6351 247.189 36.7594 247.357 36.8838C247.525 36.9667 247.776 37.0495 248.112 37.0495C248.447 37.0495 248.699 37.0081 248.866 36.8838C249.034 36.7594 249.118 36.6351 249.118 36.4279C249.118 36.3034 249.076 36.2205 249.034 36.1377C248.992 36.0548 248.908 35.9303 248.824 35.8475L249.369 35.4329C249.495 35.5574 249.621 35.7231 249.705 35.8889C249.789 36.0548 249.831 36.262 249.831 36.4692C249.831 36.8008 249.747 37.0495 249.621 37.2982C249.495 37.5469 249.286 37.7128 249.034 37.8371C248.782 37.9615 248.489 38.0444 248.112 38.0444C247.776 38.0444 247.441 37.9615 247.189 37.8371C246.938 37.7128 246.728 37.5469 246.602 37.2982C246.476 37.0495 246.393 36.8008 246.393 36.5107C246.435 36.0133 246.56 35.6816 246.812 35.3915Z" fill="#144276"/>
<path d="M246.896 32.1584C247.189 31.9097 247.608 31.7853 248.154 31.7853C248.489 31.7853 248.782 31.8267 249.076 31.951C249.327 32.0754 249.537 32.2412 249.663 32.4486C249.789 32.6558 249.872 32.9459 249.872 33.2776C249.872 33.775 249.705 34.148 249.411 34.3967C249.118 34.6455 248.699 34.7698 248.154 34.7698C247.818 34.7698 247.525 34.7283 247.231 34.604C246.98 34.4796 246.77 34.3138 246.644 34.1065C246.518 33.8993 246.435 33.6091 246.435 33.2776C246.435 32.7801 246.602 32.4071 246.896 32.1584ZM247.357 33.6506C247.525 33.7335 247.776 33.775 248.154 33.775C248.531 33.775 248.782 33.7335 248.95 33.6506C249.118 33.5676 249.202 33.4433 249.202 33.2776C249.202 33.1117 249.118 32.9459 248.95 32.863C248.782 32.7801 248.531 32.7387 248.154 32.7387C247.776 32.7387 247.525 32.7801 247.357 32.863C247.189 32.9459 247.105 33.0702 247.105 33.2361C247.105 33.4019 247.189 33.6091 247.357 33.6506Z" fill="#144276"/>
<path d="M249.747 28.3033V29.5054L247.399 30.1686H247.483C247.693 30.1271 247.902 30.1271 248.112 30.0857C248.28 30.0857 248.489 30.0443 248.741 30.0443H249.747V30.8733H246.519V29.7127L248.866 28.9666H248.783C248.573 29.0079 248.363 29.0494 248.196 29.0494C248.028 29.0494 247.818 29.0909 247.567 29.0909H246.519V28.2618H249.747V28.3033Z" fill="#144276"/>
<path d="M246.896 24.8216C247.189 24.5728 247.608 24.4485 248.154 24.4485C248.489 24.4485 248.782 24.49 249.076 24.6142C249.327 24.7387 249.537 24.9044 249.663 25.1116C249.789 25.319 249.872 25.6092 249.872 25.9407C249.872 26.4382 249.705 26.8112 249.411 27.0599C249.118 27.3086 248.699 27.433 248.154 27.433C247.818 27.433 247.525 27.3915 247.231 27.2672C246.98 27.1428 246.77 26.977 246.644 26.7697C246.518 26.5625 246.435 26.2723 246.435 25.9407C246.435 25.4433 246.602 25.0703 246.896 24.8216ZM247.357 26.3138C247.525 26.3967 247.776 26.4382 248.154 26.4382C248.531 26.4382 248.782 26.3967 248.95 26.3138C249.118 26.2308 249.202 26.1065 249.202 25.9407C249.202 25.7749 249.118 25.6092 248.95 25.5262C248.782 25.4433 248.531 25.4018 248.154 25.4018C247.776 25.4018 247.525 25.4433 247.357 25.5262C247.189 25.6092 247.105 25.7334 247.105 25.8993C247.105 26.0651 247.189 26.2308 247.357 26.3138Z" fill="#144276"/>
<path d="M249.747 20.179V21.1323L248.615 21.1737C248.531 21.1737 248.405 21.1737 248.195 21.1737C247.902 21.1737 247.567 21.1737 247.273 21.1323L249.411 21.5054V22.4172L247.273 22.8318C247.692 22.7903 248.07 22.7903 248.363 22.7903H248.573L249.705 22.8318V23.7851L246.477 23.5364V22.2929L248.573 21.9198L246.477 21.5883V20.4277L249.747 20.179Z" fill="#144276"/>
<path d="M246.519 18.3966H249.747V19.35H246.519V18.3966Z" fill="#144276"/>
<path d="M246.812 14.9562L247.315 15.4122C247.231 15.495 247.189 15.578 247.147 15.7023C247.105 15.8267 247.105 15.8681 247.105 15.9924C247.105 16.1998 247.189 16.3241 247.357 16.4485C247.525 16.5313 247.776 16.6142 248.112 16.6142C248.447 16.6142 248.699 16.5728 248.866 16.4485C249.034 16.3241 249.118 16.1998 249.118 15.9924C249.118 15.8681 249.076 15.7852 249.034 15.7023C248.992 15.6194 248.908 15.495 248.824 15.4122L249.369 14.9976C249.495 15.1221 249.621 15.2878 249.705 15.4536C249.789 15.6195 249.831 15.8267 249.831 16.0339C249.831 16.3655 249.747 16.6142 249.621 16.8629C249.495 17.1116 249.286 17.2775 249.034 17.4018C248.782 17.5262 248.489 17.609 248.112 17.609C247.776 17.609 247.441 17.5262 247.189 17.4018C246.938 17.2775 246.728 17.1116 246.602 16.8629C246.476 16.6142 246.393 16.3655 246.393 16.0754C246.435 15.6194 246.56 15.2463 246.812 14.9562Z" fill="#144276"/>
<path d="M246.896 11.8058L247.399 12.2203C247.231 12.4276 247.147 12.6763 247.147 12.925C247.147 13.0493 247.147 13.1322 247.189 13.1737C247.231 13.2151 247.273 13.2566 247.357 13.2566C247.399 13.2566 247.441 13.2566 247.483 13.2151C247.525 13.1737 247.567 13.1322 247.567 13.0493C247.609 12.9664 247.65 12.8421 247.692 12.6763C247.818 12.3447 247.944 12.096 248.112 11.9302C248.279 11.7643 248.489 11.7229 248.782 11.7229C248.992 11.7229 249.16 11.7643 249.328 11.8887C249.495 12.0131 249.621 12.1374 249.705 12.3447C249.789 12.5519 249.831 12.8006 249.831 13.0493C249.831 13.3395 249.789 13.5882 249.705 13.7954C249.621 14.0027 249.495 14.21 249.369 14.3343L248.866 13.8783C249.076 13.6296 249.16 13.3809 249.16 13.0908C249.16 12.9664 249.118 12.8421 249.076 12.8006C249.034 12.7592 248.95 12.7177 248.866 12.7177C248.782 12.7177 248.741 12.7177 248.699 12.7592C248.657 12.8006 248.615 12.8421 248.573 12.925C248.531 13.0079 248.489 13.0908 248.447 13.2566C248.321 13.6296 248.196 13.8783 248.028 14.0442C247.86 14.21 247.65 14.2514 247.399 14.2514C247.189 14.2514 247.022 14.21 246.896 14.0856C246.728 13.9613 246.644 13.8369 246.56 13.6296C246.477 13.4224 246.435 13.2151 246.435 13.0079C246.435 12.5105 246.602 12.096 246.896 11.8058Z" fill="#144276"/>
<path d="M221.573 5.75391V9.98193H220.357V6.95599L219.477 7.49485L218.932 6.70728L220.441 5.79536H221.573V5.75391Z" fill="#144276"/>
<path d="M224.758 5.87835C225.01 6.0027 225.22 6.20996 225.345 6.45867C225.471 6.70738 225.555 6.99753 225.555 7.28768C225.555 7.868 225.471 8.32396 225.262 8.73848C225.052 9.11154 224.758 9.44315 224.297 9.69186C223.878 9.94056 223.333 10.1064 222.662 10.1893L222.411 9.36024C222.788 9.27734 223.081 9.19444 223.291 9.11154C223.501 9.02863 223.71 8.90428 223.836 8.77992C223.962 8.65558 224.088 8.48977 224.171 8.24106C224.046 8.36542 223.92 8.44831 223.794 8.48977C223.668 8.53122 223.501 8.57267 223.333 8.57267C223.123 8.57267 222.914 8.53123 222.704 8.40687C222.494 8.28252 222.369 8.11671 222.243 7.90945C222.117 7.7022 222.075 7.45349 222.075 7.16334C222.075 6.87318 222.159 6.62447 222.285 6.37576C222.452 6.16851 222.62 5.96125 222.914 5.8369C223.207 5.71254 223.459 5.62964 223.794 5.62964C224.171 5.6711 224.507 5.75399 224.758 5.87835ZM224.004 7.66074C224.088 7.6193 224.171 7.53639 224.255 7.45349C224.255 7.20478 224.255 7.03899 224.213 6.87318C224.171 6.74882 224.13 6.62447 224.088 6.58302C224.004 6.54157 223.92 6.50011 223.794 6.50011C223.668 6.50011 223.543 6.54157 223.459 6.66592C223.375 6.74882 223.333 6.91463 223.333 7.08043C223.333 7.49495 223.459 7.7022 223.752 7.7022C223.836 7.74366 223.92 7.7022 224.004 7.66074Z" fill="#144276"/>
<path d="M227.903 5.79526C228.113 5.87817 228.322 6.00253 228.406 6.16833C228.532 6.33414 228.574 6.49993 228.574 6.7072C228.574 6.95589 228.49 7.16316 228.364 7.32896C228.239 7.49477 228.029 7.61912 227.736 7.70202C228.029 7.74348 228.281 7.82638 228.448 7.99218C228.616 8.15798 228.742 8.40669 228.742 8.7383C228.742 8.98701 228.658 9.19426 228.532 9.40151C228.406 9.60877 228.197 9.77458 227.945 9.85748C227.694 9.94038 227.358 10.0233 226.981 10.0233C226.31 10.0233 225.765 9.81604 225.388 9.36006L226.017 8.7383C226.184 8.86266 226.31 8.98701 226.436 9.02845C226.562 9.06991 226.687 9.11135 226.855 9.11135C227.023 9.11135 227.149 9.06991 227.274 8.98701C227.358 8.9041 227.442 8.77976 227.442 8.61395C227.442 8.44814 227.4 8.3238 227.274 8.24089C227.19 8.15799 227.023 8.11653 226.813 8.11653H226.436L226.562 7.28752H226.813C226.981 7.28752 227.107 7.24606 227.19 7.16316C227.274 7.08025 227.316 6.99735 227.316 6.83154C227.316 6.7072 227.274 6.62429 227.19 6.54139C227.107 6.45849 226.981 6.45849 226.855 6.45849C226.562 6.45849 226.31 6.58283 226.058 6.83154L225.43 6.20978C225.849 5.79526 226.394 5.58801 227.023 5.58801C227.4 5.67092 227.694 5.71236 227.903 5.79526Z" fill="#144276"/>
<path d="M231.384 5.75391V9.98193H230.168V6.95599L229.287 7.49485L228.742 6.70728L230.251 5.79536H231.384V5.75391Z" fill="#144276"/>
<path d="M209.079 9.27725C209.797 9.27725 210.379 8.70195 210.379 7.99226C210.379 7.28258 209.797 6.70728 209.079 6.70728C208.361 6.70728 207.779 7.28258 207.779 7.99226C207.779 8.70195 208.361 9.27725 209.079 9.27725Z" fill="#144276"/>
<path d="M243.374 9.27725C244.092 9.27725 244.674 8.70195 244.674 7.99226C244.674 7.28258 244.092 6.70728 243.374 6.70728C242.656 6.70728 242.074 7.28258 242.074 7.99226C242.074 8.70195 242.656 9.27725 243.374 9.27725Z" fill="#144276"/>
</g>
<rect x="183" y="3" width="3" height="58" fill="black"/>
<path d="M32.7235 5.85647C30.6203 5.85647 28.5714 6.07818 26.5986 6.49494C24.2653 4.92332 21.422 4 18.3515 4C10.4253 4 4 10.1517 4 17.7404C4 20.1946 4.67273 22.4973 5.84963 24.4913C4.94094 27.1462 4.44702 29.9822 4.44702 32.9275C4.44702 47.8789 17.1072 60 32.7235 60C48.3398 60 61 47.8789 61 32.9275C61 17.9761 48.3398 5.85647 32.7235 5.85647Z" fill="black"/>
<path d="M46.338 36.0764C44.6554 37.6873 41.9176 37.6873 40.235 36.0764C39.5022 35.3748 39.0889 34.4823 38.9937 33.566C38.9937 33.566 38.9673 33.4116 38.9761 33.1114C38.9849 32.8321 38.9937 32.7255 38.9937 32.7255C39.0948 31.7839 39.5257 30.9111 40.2336 30.2333C41.9161 28.6224 44.6554 28.6224 46.338 30.2333C47.084 30.9476 48.2931 30.9476 49.0391 30.2333C49.7851 29.5191 49.7851 28.3614 49.0391 27.6472C45.866 24.6106 40.7055 24.6106 37.5339 27.6472C37.509 27.671 37.4855 27.6963 37.4621 27.7202C36.2544 26.3394 34.4429 25.4596 32.4188 25.4596C30.5956 25.4596 28.9453 26.1752 27.7522 27.3259C26.5592 26.1752 24.9089 25.4596 23.0857 25.4596C21.9381 25.4596 20.8594 25.743 19.9199 26.2398C19.552 25.823 18.9995 25.5564 18.381 25.5564C17.2729 25.5564 16.376 26.4081 16.376 27.4592V38.6709C16.376 39.722 17.2729 40.5737 18.381 40.5737C19.489 40.5737 20.386 39.722 20.386 38.6709V31.4078C20.4475 29.9779 21.7593 29.115 23.0857 29.115C24.607 29.115 25.844 30.2993 25.844 31.7558V38.786C25.844 39.7949 26.6984 40.613 27.7522 40.613C28.806 40.613 29.6605 39.7949 29.6605 38.786V31.7558C29.6605 30.2993 30.8975 29.115 32.4188 29.115C33.9401 29.115 35.1771 30.2993 35.1771 31.7558C35.1771 31.7558 35.1508 32.9542 35.1508 33.1549C35.1508 35.2358 35.9964 37.1919 37.5339 38.6625C39.1197 40.1808 41.2024 40.94 43.285 40.94C45.3692 40.94 47.4518 40.1808 49.0376 38.6625C49.7837 37.9483 49.7837 36.7906 49.0376 36.0764C48.2931 35.3621 47.084 35.3621 46.338 36.0764Z" fill="white"/>
<path d="M19.0412 21.8126C21.3895 21.4478 22.9842 19.3294 22.6031 17.0811C22.222 14.8328 20.0094 13.306 17.6611 13.6709C15.3128 14.0357 13.7181 16.1541 14.0992 18.4024C14.4804 20.6507 16.693 22.1775 19.0412 21.8126Z" fill="white"/>
<path d="M75.9547 17.6727V24.1501C75.9547 25.1805 75.6261 25.9963 74.9668 26.5976C74.3074 27.1988 73.4312 27.5006 72.3338 27.5006C71.2252 27.5006 70.3423 27.2033 69.6919 26.611C69.0392 26.0187 68.7129 25.1962 68.7129 24.1434V17.6727H70.3915V24.1568C70.3915 24.805 70.5569 25.299 70.8854 25.6409C71.214 25.9829 71.6968 26.1528 72.336 26.1528C73.6324 26.1528 74.2806 25.4688 74.2806 24.1032V17.6727H75.9547Z" fill="black"/>
<path d="M79.0195 20.1627L79.0664 20.9941C79.5984 20.3504 80.298 20.0286 81.163 20.0286C82.6627 20.0286 83.4271 20.8869 83.454 22.6057V27.3665H81.8357V22.6995C81.8357 22.2436 81.7374 21.9038 81.5385 21.6848C81.3418 21.4658 81.0177 21.3562 80.5707 21.3562C79.918 21.3562 79.433 21.6513 79.1133 22.2413V27.3665H77.4951V20.1627H79.0195Z" fill="black"/>
<path d="M84.8701 18.2919C84.8701 18.0438 84.9483 17.8359 85.107 17.6727C85.2657 17.5096 85.4893 17.4269 85.7821 17.4269C86.0749 17.4269 86.3006 17.5096 86.4615 17.6727C86.6202 17.8359 86.7007 18.0438 86.7007 18.2919C86.7007 18.5355 86.6202 18.7389 86.4615 18.9021C86.3028 19.0652 86.0749 19.1457 85.7821 19.1457C85.4893 19.1457 85.2635 19.0652 85.107 18.9021C84.9483 18.7389 84.8701 18.5355 84.8701 18.2919ZM86.5867 27.3665H84.9685V20.1627H86.5867V27.3665Z" fill="black"/>
<path d="M90.6869 25.3146L92.2113 20.1626H93.8832L91.3865 27.3664H89.9806L87.4639 20.1626H89.1424L90.6869 25.3146Z" fill="black"/>
<path d="M97.5706 27.4983C96.5447 27.4983 95.7154 27.1764 95.0784 26.5305C94.4414 25.8845 94.124 25.024 94.124 23.9511V23.7522C94.124 23.0325 94.2626 22.391 94.5398 21.8255C94.8169 21.26 95.2058 20.8197 95.7087 20.5046C96.2094 20.1894 96.7704 20.033 97.3873 20.033C98.3685 20.033 99.1262 20.3459 99.6604 20.9717C100.195 21.5975 100.463 22.4827 100.463 23.627V24.2797H95.7557C95.8048 24.8742 96.0038 25.3458 96.3524 25.6901C96.7011 26.0365 97.1392 26.2086 97.6667 26.2086C98.4088 26.2086 99.0122 25.9091 99.4771 25.3101L100.349 26.1416C100.061 26.5729 99.6761 26.906 99.1933 27.1429C98.7105 27.3798 98.1696 27.4983 97.5706 27.4983ZM97.3784 21.3271C96.9336 21.3271 96.576 21.4836 96.3033 21.792C96.0306 22.1027 95.8563 22.5363 95.7803 23.0906H98.8625V22.9699C98.8267 22.429 98.6837 22.02 98.4289 21.7406C98.1763 21.4657 97.8254 21.3271 97.3784 21.3271Z" fill="black"/>
<path d="M105.376 21.6401C105.163 21.6044 104.942 21.5865 104.716 21.5865C103.974 21.5865 103.476 21.8703 103.219 22.4381V27.3643H101.601V20.1605H103.145L103.185 20.9651C103.576 20.3393 104.117 20.0264 104.81 20.0264C105.04 20.0264 105.233 20.0577 105.382 20.1202L105.376 21.6401Z" fill="black"/>
<path d="M110.297 25.4085C110.297 25.1202 110.179 24.9012 109.942 24.7492C109.705 24.5994 109.309 24.4653 108.759 24.3491C108.21 24.2329 107.749 24.0876 107.38 23.9088C106.573 23.5176 106.169 22.9521 106.169 22.2101C106.169 21.5887 106.43 21.0702 106.953 20.6522C107.476 20.2342 108.142 20.0264 108.952 20.0264C109.812 20.0264 110.507 20.2387 111.039 20.6656C111.571 21.0925 111.835 21.6446 111.835 22.3241H110.217C110.217 22.0134 110.1 21.7541 109.87 21.5485C109.64 21.3429 109.334 21.24 108.952 21.24C108.596 21.24 108.308 21.3227 108.082 21.4859C107.859 21.6491 107.747 21.8703 107.747 22.1453C107.747 22.3934 107.852 22.5878 108.06 22.7242C108.268 22.8627 108.69 23.0013 109.325 23.1399C109.96 23.2785 110.458 23.4461 110.82 23.6383C111.182 23.8306 111.45 24.063 111.625 24.3335C111.799 24.6039 111.889 24.9325 111.889 25.3191C111.889 25.9673 111.62 26.4926 111.084 26.8927C110.547 27.295 109.843 27.4962 108.974 27.4962C108.384 27.4962 107.859 27.3889 107.396 27.1765C106.933 26.9642 106.576 26.6714 106.316 26.2981C106.059 25.9249 105.93 25.5248 105.93 25.0934H107.501C107.523 25.4756 107.666 25.7684 107.935 25.9763C108.201 26.1819 108.554 26.2847 108.994 26.2847C109.421 26.2847 109.745 26.2043 109.966 26.0411C110.188 25.8824 110.297 25.6701 110.297 25.4085Z" fill="black"/>
<path d="M113.051 18.2919C113.051 18.0438 113.129 17.8359 113.288 17.6727C113.446 17.5096 113.67 17.4269 113.963 17.4269C114.256 17.4269 114.481 17.5096 114.642 17.6727C114.801 17.8359 114.881 18.0438 114.881 18.2919C114.881 18.5355 114.801 18.7389 114.642 18.9021C114.483 19.0652 114.256 19.1457 113.963 19.1457C113.67 19.1457 113.444 19.0652 113.288 18.9021C113.129 18.7389 113.051 18.5355 113.051 18.2919ZM114.767 27.3665H113.149V20.1627H114.767V27.3665Z" fill="black"/>
<path d="M118.404 18.4126V20.1627H119.676V21.3607H118.404V25.3817C118.404 25.6566 118.458 25.8556 118.568 25.9785C118.677 26.1014 118.872 26.1618 119.151 26.1618C119.336 26.1618 119.526 26.1394 119.716 26.0947V27.3464C119.348 27.4492 118.992 27.5006 118.65 27.5006C117.408 27.5006 116.786 26.8144 116.786 25.4443V21.363H115.602V20.1649H116.786V18.4148H118.404V18.4126Z" fill="black"/>
<path d="M123.544 25.0486L125.008 20.1626H126.732L123.868 28.4572C123.428 29.6686 122.684 30.2743 121.631 30.2743C121.396 30.2743 121.137 30.2341 120.853 30.1536V28.8953L121.16 28.9154C121.569 28.9154 121.875 28.8416 122.083 28.6919C122.288 28.5444 122.451 28.294 122.572 27.9431L122.805 27.324L120.274 20.1604H122.018L123.544 25.0486Z" fill="black"/>
<path d="M130.753 23.6986C130.753 22.9923 130.892 22.3575 131.173 21.792C131.453 21.2266 131.846 20.7907 132.351 20.4867C132.856 20.1827 133.437 20.0308 134.094 20.0308C135.067 20.0308 135.856 20.3437 136.461 20.9695C137.067 21.5953 137.393 22.4246 137.443 23.4594L137.449 23.8394C137.449 24.5502 137.313 25.185 137.04 25.7437C136.768 26.3025 136.377 26.7361 135.869 27.0423C135.362 27.3486 134.774 27.5028 134.108 27.5028C133.091 27.5028 132.277 27.1653 131.667 26.488C131.057 25.8108 130.753 24.91 130.753 23.7813V23.6986ZM132.371 23.8372C132.371 24.5792 132.523 25.1581 132.832 25.5783C133.138 25.9985 133.565 26.2064 134.11 26.2064C134.655 26.2064 135.08 25.9941 135.384 25.5672C135.688 25.1403 135.84 24.5167 135.84 23.6964C135.84 22.9677 135.684 22.3911 135.371 21.9664C135.058 21.5395 134.633 21.3271 134.097 21.3271C133.569 21.3271 133.149 21.5372 132.838 21.9552C132.528 22.3754 132.371 23.0035 132.371 23.8372Z" fill="black"/>
<path d="M139.007 27.3665V21.3607H137.907V20.1627H139.007V19.5033C139.007 18.7054 139.228 18.0885 139.673 17.6527C140.118 17.2168 140.739 17 141.537 17C141.821 17 142.123 17.0402 142.442 17.1207L142.402 18.3858C142.225 18.35 142.018 18.3321 141.783 18.3321C141.01 18.3321 140.625 18.73 140.625 19.5235V20.1627H142.089V21.3607H140.625V27.3665H139.007Z" fill="black"/>
<path d="M74.2919 41.4701H70.5369L69.7501 43.7275H68L71.6611 34.0338H73.1721L76.8399 43.7275H75.0831L74.2919 41.4701ZM71.0085 40.1111H73.818L72.4121 36.0901L71.0085 40.1111Z" fill="black"/>
<path d="M84.0307 40.1983C84.0307 41.3114 83.7782 42.2009 83.2708 42.8648C82.7657 43.5286 82.0862 43.8594 81.2346 43.8594C80.4456 43.8594 79.8131 43.6001 79.337 43.0816V46.4968H77.7188V36.5237H79.2096L79.2766 37.2568C79.7505 36.6802 80.3964 36.3918 81.2145 36.3918C82.0929 36.3918 82.7813 36.7182 83.282 37.3731C83.7804 38.028 84.0307 38.9354 84.0307 40.0999V40.1983ZM82.4192 40.0597C82.4192 39.34 82.2762 38.77 81.9901 38.3498C81.704 37.9274 81.2949 37.7173 80.7608 37.7173C80.0992 37.7173 79.6253 37.99 79.337 38.5353V41.7316C79.6298 42.2903 80.1103 42.5697 80.7742 42.5697C81.2882 42.5697 81.6906 42.3619 81.9834 41.9461C82.2739 41.5304 82.4192 40.9023 82.4192 40.0597Z" fill="black"/>
<path d="M91.5561 40.1983C91.5561 41.3114 91.3036 42.2009 90.7962 42.8648C90.2911 43.5286 89.6116 43.8594 88.76 43.8594C87.971 43.8594 87.3384 43.6001 86.8624 43.0816V46.4968H85.2441V36.5237H86.735L86.802 37.2568C87.2759 36.6802 87.9218 36.3918 88.7399 36.3918C89.6183 36.3918 90.3067 36.7182 90.8074 37.3731C91.3058 38.028 91.5561 38.9354 91.5561 40.0999V40.1983ZM89.9446 40.0597C89.9446 39.34 89.8016 38.77 89.5155 38.3498C89.2294 37.9274 88.8203 37.7173 88.2861 37.7173C87.6245 37.7173 87.1507 37.99 86.8624 38.5353V41.7316C87.1552 42.2903 87.6357 42.5697 88.2996 42.5697C88.8136 42.5697 89.216 42.3619 89.5088 41.9461C89.7993 41.5304 89.9446 40.9023 89.9446 40.0597Z" fill="black"/>
<path d="M94.4483 43.7276H92.8301V33.502H94.4483V43.7276Z" fill="black"/>
<path d="M95.9473 34.653C95.9473 34.4049 96.0255 34.197 96.1842 34.0338C96.3429 33.8707 96.5664 33.788 96.8592 33.788C97.152 33.788 97.3777 33.8707 97.5387 34.0338C97.6996 34.197 97.7778 34.4049 97.7778 34.653C97.7778 34.8966 97.6974 35.1 97.5387 35.2631C97.38 35.4263 97.152 35.5068 96.8592 35.5068C96.5664 35.5068 96.3406 35.4263 96.1842 35.2631C96.0255 35.1 95.9473 34.8966 95.9473 34.653ZM97.6638 43.7276H96.0456V36.5238H97.6638V43.7276Z" fill="black"/>
<path d="M102.325 43.8595C101.3 43.8595 100.47 43.5376 99.8333 42.8917C99.1963 42.2457 98.8789 41.3852 98.8789 40.3123V40.1134C98.8789 39.3937 99.0175 38.7522 99.2946 38.1867C99.5718 37.6213 99.9607 37.1809 100.464 36.8658C100.964 36.5506 101.525 36.3942 102.142 36.3942C103.123 36.3942 103.881 36.7071 104.415 37.3329C104.95 37.9588 105.218 38.8439 105.218 39.9882V40.6409H100.511C100.56 41.2354 100.759 41.7071 101.107 42.0513C101.456 42.3977 101.894 42.5698 102.422 42.5698C103.164 42.5698 103.767 42.2703 104.232 41.6713L105.104 42.5028C104.815 42.9341 104.431 43.2672 103.948 43.5041C103.465 43.741 102.924 43.8595 102.325 43.8595ZM102.131 37.6883C101.686 37.6883 101.329 37.8448 101.056 38.1554C100.783 38.4661 100.609 38.8997 100.533 39.4541H103.615V39.3334C103.579 38.7925 103.436 38.3834 103.182 38.104C102.927 37.8246 102.58 37.6883 102.131 37.6883Z" fill="black"/>
<path d="M106.058 40.0732C106.058 38.9646 106.315 38.0728 106.831 37.4C107.345 36.7272 108.036 36.392 108.901 36.392C109.665 36.392 110.282 36.6579 110.751 37.1899V33.502H112.37V43.7276H110.906L110.825 42.9811C110.34 43.5667 109.696 43.8595 108.887 43.8595C108.045 43.8595 107.361 43.5198 106.84 42.8403C106.319 42.1631 106.058 41.24 106.058 40.0732ZM107.676 40.2118C107.676 40.9449 107.817 41.5149 108.098 41.9261C108.38 42.3374 108.78 42.5408 109.301 42.5408C109.962 42.5408 110.445 42.2458 110.751 41.6557V38.5802C110.454 38.0035 109.976 37.7152 109.314 37.7152C108.791 37.7152 108.387 37.923 108.103 38.3388C107.819 38.7523 107.676 39.3781 107.676 40.2118Z" fill="black"/>
<path d="M122.676 41.231C122.676 40.8041 122.526 40.4755 122.227 40.2453C121.927 40.0151 121.386 39.7826 120.606 39.5457C119.826 39.3088 119.205 39.0495 118.742 38.7612C117.859 38.2069 117.417 37.4827 117.417 36.5909C117.417 35.8086 117.734 35.1671 118.371 34.6597C119.008 34.1524 119.835 33.8998 120.852 33.8998C121.527 33.8998 122.128 34.025 122.656 34.273C123.183 34.5211 123.599 34.8765 123.901 35.3347C124.203 35.7929 124.355 36.3025 124.355 36.8613H122.676C122.676 36.3562 122.517 35.9583 122.2 35.6722C121.882 35.3861 121.429 35.2431 120.839 35.2431C120.289 35.2431 119.862 35.3616 119.558 35.5962C119.254 35.8309 119.102 36.1595 119.102 36.5819C119.102 36.9373 119.265 37.2324 119.594 37.4715C119.922 37.7084 120.463 37.9409 121.219 38.1644C121.974 38.3879 122.58 38.6427 123.036 38.931C123.492 39.2171 123.827 39.5457 124.042 39.9167C124.256 40.2878 124.361 40.7214 124.361 41.2176C124.361 42.0245 124.053 42.6682 123.431 43.1443C122.812 43.6203 121.972 43.8595 120.912 43.8595C120.211 43.8595 119.567 43.7299 118.979 43.4706C118.391 43.2113 117.933 42.8515 117.607 42.3955C117.28 41.9395 117.117 41.4053 117.117 40.7974H118.802C118.802 41.3472 118.984 41.7741 119.348 42.0759C119.712 42.3776 120.233 42.5296 120.912 42.5296C121.498 42.5296 121.938 42.4111 122.233 42.1742C122.528 41.9351 122.676 41.6221 122.676 41.231Z" fill="black"/>
<path d="M128.514 42.5698C128.919 42.5698 129.254 42.4513 129.52 42.2166C129.786 41.9819 129.929 41.6914 129.947 41.3449H131.471C131.453 41.7942 131.315 42.2121 131.051 42.5988C130.789 42.9877 130.434 43.2939 129.985 43.5197C129.535 43.7454 129.053 43.8594 128.534 43.8594C127.526 43.8594 126.728 43.5331 126.138 42.8805C125.548 42.2278 125.253 41.327 125.253 40.1782V40.0105C125.253 38.9153 125.546 38.0369 126.131 37.3776C126.717 36.7182 127.517 36.3896 128.527 36.3896C129.383 36.3896 130.081 36.64 130.622 37.1384C131.16 37.6368 131.444 38.294 131.471 39.1053H129.947C129.929 38.6918 129.788 38.3521 129.524 38.0861C129.261 37.8201 128.923 37.686 128.516 37.686C127.993 37.686 127.589 37.876 127.305 38.256C127.021 38.636 126.876 39.2104 126.871 39.9837V40.243C126.871 41.0253 127.012 41.6064 127.294 41.9909C127.573 42.3775 127.98 42.5698 128.514 42.5698Z" fill="black"/>
<path d="M132.492 34.653C132.492 34.4049 132.57 34.197 132.729 34.0338C132.888 33.8707 133.111 33.788 133.404 33.788C133.697 33.788 133.923 33.8707 134.084 34.0338C134.245 34.197 134.323 34.4049 134.323 34.653C134.323 34.8966 134.242 35.1 134.084 35.2631C133.925 35.4263 133.697 35.5068 133.404 35.5068C133.111 35.5068 132.886 35.4263 132.729 35.2631C132.573 35.1 132.492 34.8966 132.492 34.653ZM134.211 43.7276H132.593V36.5238H134.211V43.7276Z" fill="black"/>
<path d="M138.869 43.8595C137.843 43.8595 137.014 43.5376 136.377 42.8917C135.74 42.2457 135.423 41.3852 135.423 40.3123V40.1134C135.423 39.3937 135.561 38.7522 135.839 38.1867C136.116 37.6213 136.505 37.1809 137.008 36.8658C137.508 36.5506 138.069 36.3942 138.686 36.3942C139.667 36.3942 140.425 36.7071 140.959 37.3329C141.493 37.9588 141.762 38.8439 141.762 39.9882V40.6409H137.054C137.104 41.2354 137.303 41.7071 137.651 42.0513C138 42.3977 138.438 42.5698 138.966 42.5698C139.708 42.5698 140.311 42.2703 140.776 41.6713L141.648 42.5028C141.359 42.9341 140.975 43.2672 140.492 43.5041C140.009 43.741 139.468 43.8595 138.869 43.8595ZM138.677 37.6883C138.232 37.6883 137.875 37.8448 137.602 38.1554C137.329 38.4661 137.155 38.8997 137.079 39.4541H140.161V39.3334C140.126 38.7925 139.983 38.3834 139.728 38.104C139.473 37.8246 139.126 37.6883 138.677 37.6883Z" fill="black"/>
<path d="M144.413 36.5238L144.46 37.3552C144.992 36.7115 145.692 36.3896 146.557 36.3896C148.056 36.3896 148.821 37.2479 148.848 38.9667V43.7276H147.229V39.0606C147.229 38.6024 147.131 38.2649 146.932 38.0459C146.735 37.8268 146.411 37.7173 145.964 37.7173C145.312 37.7173 144.827 38.0123 144.507 38.6024V43.7276H142.889V36.5238H144.413Z" fill="black"/>
<path d="M153.272 42.5698C153.676 42.5698 154.012 42.4513 154.278 42.2166C154.544 41.9819 154.687 41.6914 154.705 41.3449H156.229C156.211 41.7942 156.072 42.2121 155.809 42.5988C155.547 42.9877 155.192 43.2939 154.742 43.5197C154.293 43.7454 153.81 43.8594 153.292 43.8594C152.284 43.8594 151.486 43.5331 150.896 42.8805C150.306 42.2278 150.011 41.327 150.011 40.1782V40.0105C150.011 38.9153 150.304 38.0369 150.889 37.3776C151.475 36.7182 152.275 36.3896 153.285 36.3896C154.141 36.3896 154.839 36.64 155.38 37.1384C155.918 37.6368 156.202 38.294 156.229 39.1053H154.705C154.687 38.6918 154.546 38.3521 154.282 38.0861C154.018 37.8201 153.681 37.686 153.274 37.686C152.751 37.686 152.346 37.876 152.063 38.256C151.779 38.636 151.633 39.2104 151.629 39.9837V40.243C151.629 41.0253 151.77 41.6064 152.051 41.9909C152.333 42.3775 152.74 42.5698 153.272 42.5698Z" fill="black"/>
<path d="M160.453 43.8595C159.427 43.8595 158.598 43.5376 157.961 42.8917C157.324 42.2457 157.007 41.3852 157.007 40.3123V40.1134C157.007 39.3937 157.145 38.7522 157.423 38.1867C157.7 37.6213 158.089 37.1809 158.592 36.8658C159.092 36.5506 159.653 36.3942 160.27 36.3942C161.251 36.3942 162.009 36.7071 162.543 37.3329C163.077 37.9588 163.346 38.8439 163.346 39.9882V40.6409H158.638C158.688 41.2354 158.887 41.7071 159.235 42.0513C159.584 42.3977 160.022 42.5698 160.55 42.5698C161.292 42.5698 161.895 42.2703 162.36 41.6713L163.232 42.5028C162.943 42.9341 162.559 43.2672 162.076 43.5041C161.593 43.741 161.052 43.8595 160.453 43.8595ZM160.261 37.6883C159.816 37.6883 159.459 37.8448 159.186 38.1554C158.913 38.4661 158.739 38.8997 158.663 39.4541H161.745V39.3334C161.71 38.7925 161.566 38.3834 161.312 38.104C161.057 37.8246 160.71 37.6883 160.261 37.6883Z" fill="black"/>
<path d="M168.408 41.7696C168.408 41.4813 168.29 41.2622 168.053 41.1102C167.816 40.9582 167.421 40.8264 166.871 40.7101C166.321 40.5939 165.86 40.4486 165.492 40.2698C164.685 39.8787 164.28 39.3132 164.28 38.5734C164.28 37.952 164.542 37.4334 165.065 37.0155C165.588 36.5975 166.254 36.3896 167.063 36.3896C167.923 36.3896 168.619 36.602 169.151 37.0289C169.682 37.4558 169.946 38.0079 169.946 38.6874H168.328C168.328 38.3767 168.212 38.1174 167.982 37.9118C167.751 37.7061 167.445 37.6033 167.063 37.6033C166.708 37.6033 166.419 37.686 166.193 37.8492C165.97 38.0146 165.858 38.2336 165.858 38.5085C165.858 38.7566 165.963 38.9511 166.171 39.0874C166.379 39.226 166.801 39.3646 167.436 39.5032C168.071 39.6418 168.569 39.8094 168.931 40.0016C169.294 40.1938 169.562 40.4263 169.736 40.6967C169.91 40.9672 170 41.2957 170 41.6824C170 42.3306 169.732 42.8559 169.195 43.256C168.659 43.6583 167.955 43.8594 167.085 43.8594C166.495 43.8594 165.97 43.7521 165.507 43.5398C165.045 43.3275 164.687 43.0347 164.428 42.6614C164.171 42.2881 164.041 41.8881 164.041 41.4567H165.612C165.635 41.8389 165.778 42.1317 166.046 42.3395C166.312 42.5452 166.665 42.648 167.105 42.648C167.532 42.648 167.856 42.5675 168.078 42.4044C168.297 42.2434 168.408 42.0311 168.408 41.7696Z" fill="black"/>
<defs>
<clipPath id="clip0_78_16">
<rect width="54" height="64" fill="white" transform="translate(199 1)"/>
</clipPath>
</defs>
</svg>
