<svg width="118" height="123" viewBox="0 0 118 123" fill="none" xmlns="http://www.w3.org/2000/svg">
<path d="M0 0C0 3.63348 2.94446 6.59409 6.55811 6.59409H110.685C114.298 6.59409 117.243 3.63348 117.243 0H0Z" fill="#000"/>
<path d="M9.77023 13.3228C9.77023 16.9562 12.7147 19.9168 16.3283 19.9168V104.429V106.986C16.3283 108.735 17.6667 110.081 19.4066 110.081H30.3814C36.9395 110.081 43.23 112.1 48.5835 115.733L59.2906 123L67.7225 116.675C73.3437 112.369 80.3034 110.081 87.263 110.081H97.8363C99.5762 110.081 100.915 108.735 100.915 106.986V104.429V19.9168H101.718C105.331 19.9168 108.276 16.9562 108.276 13.3228H9.77023ZM63.7073 111.427L59.023 114.926L52.1972 110.216C45.7729 105.775 38.1441 103.487 30.2476 103.487H22.7526V82.7626H30.2476C36.8057 82.7626 43.0961 84.7812 48.4497 88.4147L59.1568 95.6816L67.5887 89.3567C73.2099 85.0503 80.1695 82.7626 87.1292 82.7626H94.2226V103.487H87.1292C78.8311 103.487 70.5331 106.313 63.7073 111.427ZM55.4093 57.3282V85.0503L52.331 82.8971C50.4573 81.5514 48.4497 80.4748 46.3083 79.5328V57.3282H55.4093ZM61.9674 57.3282H70.3993V80.0426L71.2023 79.6674C68.5255 80.8786 66.1164 82.3589 63.7073 84.1083L61.8336 85.454V57.3282H61.9674ZM94.3565 76.1685H87.263C83.7832 76.1685 80.3034 76.7068 76.9574 77.6488V57.4628H82.4448C86.0584 57.4628 89.0029 54.5022 89.0029 50.8687H27.7047C27.7047 54.5022 30.6491 57.4628 34.2628 57.4628H39.7502V77.5142C36.6719 76.7068 33.5936 76.3031 30.3814 76.3031H22.8865V19.9168H94.3565V76.1685Z" fill="#000"/>
<path d="M39.4825 41.7177H42.8285V31.6247H48.0482V41.7177H52.7325C54.7401 41.7177 56.3462 41.1794 57.4169 40.1028C58.4876 39.0263 59.023 37.4114 59.023 35.3928V34.5853C59.023 32.7013 58.4876 31.0864 57.4169 30.0098C56.3462 28.9333 54.7401 28.395 52.7325 28.395H48.4497H48.0482H35.8688V31.6247H39.4825V41.7177V41.7177ZM51.3942 31.6247H52.5987C53.6694 31.6247 54.3386 31.8939 54.874 32.2976C55.2755 32.7013 55.5432 33.5088 55.5432 34.5853V35.3928C55.5432 36.6039 55.2755 37.4114 54.874 37.8151C54.4725 38.2188 53.6694 38.488 52.5987 38.488H51.3942V31.6247Z" fill="#000"/>
<path d="M64.5104 28.395H61.1644V41.7177H64.5104V28.395Z" fill="#000"/>
<path d="M68.124 40.372C68.6594 40.9103 69.1947 41.1794 69.8639 41.4486C70.5331 41.7177 71.3362 41.8523 72.1392 41.8523C72.9422 41.8523 73.7452 41.7177 74.4144 41.4486C75.0836 41.1794 75.619 40.7757 76.1544 40.372C76.6897 39.8337 76.9574 39.2954 77.2251 38.6225C77.4927 37.9497 77.6266 37.1422 77.6266 36.3348V28.5295H74.2806V36.3348C74.2806 37.2768 74.1468 37.9497 73.7452 38.2188C73.3437 38.6225 72.9422 38.7571 72.273 38.7571C71.6038 38.7571 71.0685 38.6225 70.8008 38.2188C70.3993 37.8151 70.2654 37.1422 70.2654 36.3348V28.5295H66.9195V36.3348C66.9195 37.1422 67.0533 37.9497 67.321 38.6225C67.321 39.2954 67.5887 39.8337 68.124 40.372Z" fill="#000"/>
</svg>

