<svg width="1440" height="450" viewBox="0 0 1440 450" fill="none" xmlns="http://www.w3.org/2000/svg">
<g clip-path="url(#clip0_1_4)">
<mask id="mask0_1_4" style="mask-type:luminance" maskUnits="userSpaceOnUse" x="0" y="0" width="1440" height="450">
<path d="M1440 0H0V450H1440V0Z" fill="white"/>
</mask>
<g mask="url(#mask0_1_4)">
<path d="M51 450L501 0H769.5L319.5 450H51Z" fill="url(#paint0_linear_1_4)"/>
<path d="M348.8 450L798.8 0H891.8L441.8 450H348.8Z" fill="url(#paint1_linear_1_4)"/>
<path d="M668.6 450L1118.6 0H1205.6L755.6 450H668.6Z" fill="url(#paint2_linear_1_4)"/>
<path d="M1386 450L936 0H553.5L1003.5 450H1386Z" fill="url(#paint3_linear_1_4)"/>
<path d="M1061.2 450L611.2 0H462.7L912.7 450H1061.2Z" fill="url(#paint4_linear_1_4)"/>
<path d="M777.4 450L327.4 0H232.9L682.9 450H777.4Z" fill="url(#paint5_linear_1_4)"/>
<path d="M1010.14 450L1440 20.1425V450H1010.14Z" fill="url(#paint6_linear_1_4)"/>
<path d="M0 450H429.858L0 20.1425V450Z" fill="url(#paint7_linear_1_4)"/>
</g>
</g>
<defs>
<linearGradient id="paint0_linear_1_4" x1="51" y1="45000" x2="40537.4" y2="-19643.2" gradientUnits="userSpaceOnUse">
<stop stop-color="#FF9E1B"/>
<stop offset="0.66" stop-color="#FF9E1B" stop-opacity="0"/>
</linearGradient>
<linearGradient id="paint1_linear_1_4" x1="348.8" y1="45000" x2="44566.2" y2="-8355.71" gradientUnits="userSpaceOnUse">
<stop stop-color="#FF9E1B"/>
<stop offset="0.66" stop-color="#FF9E1B" stop-opacity="0"/>
</linearGradient>
<linearGradient id="paint2_linear_1_4" x1="668.6" y1="45000" x2="44974.7" y2="-7871.97" gradientUnits="userSpaceOnUse">
<stop stop-color="#FF9E1B"/>
<stop offset="0.66" stop-color="#FF9E1B" stop-opacity="0"/>
</linearGradient>
<linearGradient id="paint3_linear_1_4" x1="83803.5" y1="45000" x2="46155.1" y2="-24649.5" gradientUnits="userSpaceOnUse">
<stop stop-color="#FF9E1B"/>
<stop offset="0.66" stop-color="#FF9E1B" stop-opacity="0"/>
</linearGradient>
<linearGradient id="paint4_linear_1_4" x1="60312.7" y1="45000" x2="17082.5" y2="-12496.1" gradientUnits="userSpaceOnUse">
<stop stop-color="#FF9E1B"/>
<stop offset="0.66" stop-color="#FF9E1B" stop-opacity="0"/>
</linearGradient>
<linearGradient id="paint5_linear_1_4" x1="54682.9" y1="45000" x2="10488.3" y2="-8475.51" gradientUnits="userSpaceOnUse">
<stop stop-color="#FF9E1B"/>
<stop offset="0.66" stop-color="#FF9E1B" stop-opacity="0"/>
</linearGradient>
<linearGradient id="paint6_linear_1_4" x1="1010.14" y1="43005.9" x2="43995.9" y2="20.1425" gradientUnits="userSpaceOnUse">
<stop stop-color="#FF9E1B"/>
<stop offset="0.66" stop-color="#FF9E1B" stop-opacity="0"/>
</linearGradient>
<linearGradient id="paint7_linear_1_4" x1="42985.8" y1="43005.9" x2="0" y2="20.1425" gradientUnits="userSpaceOnUse">
<stop stop-color="#FF9E1B"/>
<stop offset="0.66" stop-color="#FF9E1B" stop-opacity="0"/>
</linearGradient>
<clipPath id="clip0_1_4">
<rect width="1440" height="450" fill="white"/>
</clipPath>
</defs>
</svg>
