<svg xmlns="http://www.w3.org/2000/svg" version="1.1" xmlns:xlink="http://www.w3.org/1999/xlink" xmlns:svgjs="http://svgjs.com/svgjs" width="1440" height="450" preserveAspectRatio="none" viewBox="0 0 1440 450"><g mask="url(&quot;#SvgjsMask1023&quot;)" fill="none"><path d="M51 450L501 0L769.5 0L319.5 450z" fill="url(#SvgjsLinearGradient1024)"></path><path d="M348.8 450L798.8 0L891.8 0L441.8 450z" fill="url(#SvgjsLinearGradient1024)"></path><path d="M668.6 450L1118.6 0L1205.6 0L755.6 450z" fill="url(#SvgjsLinearGradient1024)"></path><path d="M1386 450L936 0L553.5 0L1003.5 450z" fill="url(#SvgjsLinearGradient1025)"></path><path d="M1061.2 450L611.2 0L462.70000000000005 0L912.7 450z" fill="url(#SvgjsLinearGradient1025)"></path><path d="M777.4 450L327.4 0L232.89999999999998 0L682.9 450z" fill="url(#SvgjsLinearGradient1025)"></path><path d="M1010.142463867215 450L1440 20.142463867215042L1440 450z" fill="url(#SvgjsLinearGradient1024)"></path><path d="M0 450L429.85753613278496 450L 0 20.142463867215042z" fill="url(#SvgjsLinearGradient1025)"></path></g><defs><mask id="SvgjsMask1023"><rect width="1440" height="450" fill="#ffffff"></rect></mask><linearGradient x1="0%" y1="100%" x2="100%" y2="0%" id="SvgjsLinearGradient1024"><stop stop-color="rgba(0, 211, 143, 1)" offset="0"></stop><stop stop-opacity="0" stop-color="rgba(0, 211, 143, 1)" offset="0.66"></stop></linearGradient><linearGradient x1="100%" y1="100%" x2="0%" y2="0%" id="SvgjsLinearGradient1025"><stop stop-color="rgba(0, 211, 143, 1)" offset="0"></stop><stop stop-opacity="0" stop-color="rgba(0, 211, 143, 1)" offset="0.66"></stop></linearGradient></defs></svg>