<svg width="279" height="111" viewBox="0 0 279 111" fill="none" xmlns="http://www.w3.org/2000/svg">
<g clip-path="url(#clip0_78_237)">
<mask id="mask0_78_237" style="mask-type:luminance" maskUnits="userSpaceOnUse" x="0" y="0" width="279" height="111">
<path d="M275 0H4C1.79086 0 0 1.79086 0 4V107C0 109.209 1.79086 111 4 111H275C277.209 111 279 109.209 279 107V4C279 1.79086 277.209 0 275 0Z" fill="white"/>
</mask>
<g mask="url(#mask0_78_237)">
<path d="M275 0H4C1.79086 0 0 1.79086 0 4V107C0 109.209 1.79086 111 4 111H275C277.209 111 279 109.209 279 107V4C279 1.79086 277.209 0 275 0Z" fill="#798591"/>
<g opacity="0.15">
<path fill-rule="evenodd" clip-rule="evenodd" d="M76 22C76 47.405 55.405 68 30 68C4.59497 68 -16 47.405 -16 22C-16 -3.40503 4.59497 -24 30 -24C55.405 -24 76 -3.40503 76 22ZM14.8037 17.7862C10.1957 19.7981 5.46111 21.8654 1.13165 24.2502C-1.12902 25.9054 1.87556 27.0763 4.69444 28.1745C5.14256 28.3491 5.58588 28.5218 6.00276 28.6943C6.34967 28.8011 6.70234 28.9134 7.0598 29.0273C10.1949 30.026 13.6905 31.1398 16.7342 29.4645C21.734 26.5923 26.4523 23.2719 31.1671 19.954C32.7117 18.8668 34.256 17.7801 35.8096 16.7094C35.8824 16.6628 35.9645 16.6096 36.0544 16.5515C37.3778 15.6934 40.3546 13.7639 39.2535 16.4227C36.6499 19.2701 33.8609 21.7905 31.057 24.3249C29.1672 26.0329 27.2705 27.7471 25.419 29.5718C23.8065 30.882 22.1319 33.5169 23.9376 35.3517C28.0966 38.2631 32.3205 41.104 36.542 43.9433C37.9156 44.8672 39.2893 45.791 40.6601 46.7171C42.9835 48.5721 46.6146 47.0715 47.1254 44.173C47.3525 42.8395 47.5806 41.5063 47.8087 40.1729C49.0691 32.8039 50.3299 25.4322 51.4437 18.0392C51.5951 16.8794 51.7666 15.7198 51.9384 14.5597C52.3545 11.7477 52.7711 8.93236 52.9013 6.10527C52.5659 3.28394 49.145 3.90437 47.2414 4.53878C37.4564 8.2621 27.7692 12.2614 18.1203 16.3313C17.0272 16.8154 15.9192 17.2992 14.8037 17.7862Z" fill="white"/>
</g>
</g>
</g>
<defs>
<clipPath id="clip0_78_237">
<rect width="279" height="111" fill="white"/>
</clipPath>
</defs>
</svg>
