<svg width="48" height="48" viewBox="0 0 48 48" fill="none" xmlns="http://www.w3.org/2000/svg">
<g clip-path="url(#clip0_76_230)">
<path d="M44 0H4C1.79086 0 0 1.79086 0 4V44C0 46.2091 1.79086 48 4 48H44C46.2091 48 48 46.2091 48 44V4C48 1.79086 46.2091 0 44 0Z" fill="#F9FAFC"/>
<path fill-rule="evenodd" clip-rule="evenodd" d="M37.9387 15.8217L25.4206 9.23079C25.1379 9.07942 24.8215 9 24.5 9C24.1786 9 23.8622 9.07942 23.5795 9.23079L11.0614 15.8217C10.6687 16.0278 10.3568 16.3577 10.1749 16.7591C9.99307 17.1606 9.95158 17.6107 10.0572 18.038C10.1627 18.4655 10.4094 18.8457 10.7579 19.1188C11.1065 19.3918 11.5371 19.5419 11.9815 19.5454H37.0178C37.4623 19.5421 37.893 19.3921 38.2416 19.119C38.5904 18.8461 38.837 18.4657 38.9427 18.0384C39.0484 17.611 39.0071 17.1608 38.8253 16.7593C38.6433 16.3578 38.3314 16.028 37.9387 15.8217ZM11.9803 17.5682L24.4984 10.9773L37.0165 17.5682H11.9803ZM37.0165 36.0227H11.9803C11.7153 36.0227 11.4612 36.127 11.2739 36.3123C11.0867 36.4978 10.9814 36.7491 10.9814 37.0114C10.9814 37.2735 11.0867 37.525 11.2739 37.7103C11.4612 37.8957 11.7153 38 11.9803 38H37.0165C37.2814 38.0001 37.5355 37.8961 37.7229 37.7109C37.9103 37.5255 38.0158 37.2742 38.0159 37.012C38.0161 36.7498 37.9111 36.4982 37.7239 36.3127C37.5367 36.1271 37.2815 36.0229 37.0165 36.0227ZM37.0165 22.8409C37.2814 22.8409 37.5354 22.7367 37.7227 22.5512C37.91 22.3659 38.0152 22.1145 38.0152 21.8523C38.0152 21.59 37.91 21.3387 37.7227 21.1533C37.5354 20.9678 37.2814 20.8637 37.0165 20.8637H11.9803C11.7153 20.8637 11.4612 20.9678 11.2739 21.1533C11.0867 21.3387 10.9814 21.59 10.9814 21.8523C10.9814 22.1145 11.0867 22.3659 11.2739 22.5512C11.4612 22.7367 11.7153 22.8409 11.9803 22.8409H13.2387V32.7272H11.9803C11.7153 32.7272 11.4612 32.8315 11.2739 33.0169C11.0867 33.2022 10.9814 33.4537 10.9814 33.716C10.9814 33.9781 11.0867 34.2295 11.2739 34.4149C11.4612 34.6003 11.7153 34.7046 11.9803 34.7046H37.0165C37.2814 34.7046 37.5354 34.6003 37.7227 34.4149C37.91 34.2295 38.0152 33.9781 38.0152 33.716C38.0152 33.4537 37.91 33.2022 37.7227 33.0169C37.5354 32.8315 37.2814 32.7272 37.0165 32.7272H35.2041V22.8409H37.0165ZM21.8622 22.8409H23.2153V32.7272H21.8635L21.8622 22.8409ZM19.8859 32.7272H18.5542V22.8409H19.8859V32.7272ZM25.2129 22.8409H26.5325V32.7272H25.2129V22.8409ZM28.5421 22.8409H29.8738V32.7272H28.5421V22.8409ZM15.225 22.8409H16.5627V32.7272H15.225V22.8409ZM33.2032 32.7272H31.8714V22.8409H33.2032V32.7272Z" fill="#798591"/>
<path d="M44 0.5H4C2.067 0.5 0.5 2.067 0.5 4V44C0.5 45.933 2.067 47.5 4 47.5H44C45.933 47.5 47.5 45.933 47.5 44V4C47.5 2.067 45.933 0.5 44 0.5Z" stroke="#9FABB9" stroke-opacity="0.2"/>
</g>
<defs>
<clipPath id="clip0_76_230">
<rect width="48" height="48" fill="white"/>
</clipPath>
</defs>
</svg>
